{"glyphs":{"0":{"ha":429,"x_min":41,"x_max":387,"o":"m 214 12 l 214 12 q 160 12 122 -20 q 83 -53 62 -133 q 41 -213 41 -357 l 41 -357 q 41 -481 60 -562 q 79 -644 118 -684 q 156 -725 214 -725 l 214 -725 q 273 -725 311 -684 q 349 -644 368 -562 q 387 -481 387 -357 l 387 -357 q 387 -270 377 -201 q 367 -133 347 -85 q 326 -38 293 -13 q 260 12 214 12 z m 214 -64 l 214 -64 q 237 -64 254 -82 q 271 -100 282 -136 q 293 -173 298 -228 q 303 -283 303 -357 l 303 -357 q 303 -430 298 -485 q 293 -540 282 -576 q 271 -613 254 -631 q 237 -649 214 -649 l 214 -649 q 190 -649 174 -631 q 157 -613 147 -577 q 136 -541 131 -486 q 126 -431 126 -357 l 126 -357 q 126 -283 131 -228 q 136 -173 147 -136 q 157 -100 174 -82 q 190 -64 214 -64 z"},"1":{"ha":429,"x_min":62,"x_max":294,"o":"m 294 -714 l 294 0 l 211 0 l 211 -481 q 211 -513 213 -547 q 214 -581 215 -615 l 215 -615 q 209 -607 199 -595 q 188 -583 171 -566 l 171 -566 l 109 -506 l 62 -557 l 222 -714 l 294 -714 z"},"2":{"ha":429,"x_min":33,"x_max":382,"o":"m 382 0 l 33 0 l 33 -62 l 174 -269 q 217 -331 241 -375 q 264 -419 274 -457 q 284 -496 284 -542 l 284 -542 q 284 -574 273 -598 q 262 -623 242 -636 q 221 -650 190 -650 l 190 -650 q 159 -650 130 -638 q 101 -627 76 -607 l 76 -607 l 37 -668 q 60 -684 85 -697 q 109 -710 137 -717 q 165 -725 197 -725 l 197 -725 q 251 -725 289 -702 q 327 -679 348 -638 q 368 -598 368 -545 l 368 -545 q 368 -488 354 -440 q 340 -392 313 -345 q 286 -298 248 -244 l 248 -244 l 131 -79 l 131 -75 l 382 -75 l 382 0 z"},"3":{"ha":429,"x_min":29,"x_max":377,"o":"m 181 12 l 181 12 q 135 12 99 7 q 63 1 34 -10 l 34 -10 l 34 -89 q 66 -75 98 -68 q 130 -61 173 -61 l 173 -61 q 233 -61 262 -99 q 290 -138 290 -200 l 290 -200 q 290 -243 274 -272 q 258 -301 226 -316 q 194 -332 145 -332 l 145 -332 l 109 -332 l 109 -405 l 148 -405 q 190 -405 220 -422 q 250 -439 266 -470 q 282 -501 282 -541 l 282 -541 q 282 -594 258 -623 q 233 -652 187 -652 l 187 -652 q 154 -652 126 -640 q 97 -629 69 -609 l 69 -609 l 29 -669 q 71 -698 110 -711 q 149 -725 196 -725 l 196 -725 q 249 -725 287 -703 q 325 -682 345 -643 q 365 -604 365 -550 l 365 -550 q 365 -508 352 -473 q 338 -439 312 -414 q 286 -389 247 -375 l 247 -375 l 247 -371 q 310 -358 344 -312 q 377 -267 377 -196 l 377 -196 q 377 -134 354 -87 q 331 -40 287 -14 q 243 12 181 12 z"},"4":{"ha":429,"x_min":17,"x_max":415,"o":"m 341 0 l 259 0 l 259 -155 l 17 -155 l 17 -223 l 252 -720 l 341 -720 l 341 -226 l 415 -226 l 415 -155 l 341 -155 l 341 0 z m 225 -525 l 91 -226 l 259 -226 l 259 -498 q 259 -514 260 -535 q 260 -556 261 -576 q 262 -597 262 -611 l 262 -611 l 259 -611 q 251 -588 243 -566 q 234 -545 225 -525 l 225 -525 z"},"5":{"ha":429,"x_min":49,"x_max":385,"o":"m 180 12 l 180 12 q 140 12 107 6 q 73 -1 49 -11 l 49 -11 l 49 -92 q 76 -76 107 -68 q 138 -61 175 -61 l 175 -61 q 217 -61 245 -83 q 273 -106 287 -144 q 300 -182 300 -227 l 300 -227 q 300 -297 269 -332 q 238 -368 182 -368 l 182 -368 q 159 -368 136 -364 q 112 -360 88 -352 l 88 -352 l 55 -384 l 76 -714 l 346 -714 l 346 -638 l 146 -638 l 131 -431 q 152 -436 172 -437 q 192 -439 205 -439 l 205 -439 q 262 -439 303 -412 q 343 -386 364 -339 q 385 -292 385 -230 l 385 -230 q 385 -158 362 -103 q 338 -49 293 -18 q 247 12 180 12 z"},"6":{"ha":429,"x_min":47,"x_max":391,"o":"m 224 12 l 224 12 q 181 12 148 -8 q 115 -29 93 -69 q 70 -110 59 -168 q 47 -227 47 -303 l 47 -303 q 47 -383 56 -449 q 64 -515 81 -566 q 98 -618 126 -653 q 153 -688 192 -706 q 230 -725 280 -725 l 280 -725 q 301 -725 320 -722 q 338 -720 354 -715 l 354 -715 l 354 -640 q 338 -645 321 -648 q 303 -651 283 -651 l 283 -651 q 235 -651 201 -620 q 167 -589 149 -527 q 130 -465 127 -372 l 127 -372 l 131 -372 q 142 -397 159 -415 q 175 -433 197 -442 q 218 -452 243 -452 l 243 -452 q 293 -452 326 -422 q 359 -392 375 -340 q 391 -289 391 -226 l 391 -226 q 391 -159 373 -105 q 354 -51 317 -19 q 280 12 224 12 z m 223 -63 l 223 -63 q 263 -63 286 -102 q 308 -142 308 -224 l 308 -224 q 308 -300 287 -339 q 265 -378 223 -378 l 223 -378 q 193 -378 173 -360 q 152 -343 142 -315 q 132 -287 132 -255 l 132 -255 q 132 -224 137 -190 q 142 -156 153 -127 q 163 -99 181 -81 q 198 -63 223 -63 z"},"7":{"ha":429,"x_min":31,"x_max":393,"o":"m 180 0 l 93 0 l 309 -637 l 31 -637 l 31 -714 l 393 -714 l 393 -652 l 180 0 z"},"8":{"ha":429,"x_min":34,"x_max":396,"o":"m 219 12 l 219 12 q 160 12 119 -11 q 77 -34 56 -76 q 34 -119 34 -175 l 34 -175 q 34 -218 47 -253 q 59 -288 85 -317 q 111 -347 151 -372 l 151 -372 q 117 -399 95 -428 q 73 -457 62 -489 q 51 -521 51 -556 l 51 -556 q 51 -608 72 -645 q 92 -683 129 -704 q 166 -725 216 -725 l 216 -725 q 268 -725 305 -704 q 341 -684 361 -646 q 380 -609 380 -557 l 380 -557 q 380 -518 368 -484 q 356 -451 332 -423 q 307 -396 269 -373 l 269 -373 q 307 -348 336 -320 q 364 -292 380 -258 q 396 -224 396 -180 l 396 -180 q 396 -123 374 -80 q 352 -37 313 -12 q 273 12 219 12 z m 215 -58 l 215 -58 q 264 -58 289 -92 q 313 -126 313 -180 l 313 -180 q 313 -206 304 -230 q 295 -254 276 -276 q 257 -299 227 -320 l 227 -320 l 207 -334 q 174 -312 154 -288 q 134 -265 125 -237 q 116 -210 116 -175 l 116 -175 q 116 -124 142 -91 q 167 -58 215 -58 z m 214 -413 l 214 -413 q 244 -433 263 -454 q 281 -475 290 -499 q 298 -524 298 -554 l 298 -554 q 298 -604 277 -629 q 255 -655 215 -655 l 215 -655 q 178 -655 155 -627 q 132 -600 132 -551 l 132 -551 q 132 -521 141 -496 q 150 -472 169 -452 q 187 -432 214 -413 z"},"9":{"ha":429,"x_min":39,"x_max":383,"o":"m 148 12 l 148 12 q 130 12 108 9 q 85 6 71 2 l 71 2 l 71 -74 q 87 -68 106 -65 q 124 -62 146 -62 l 146 -62 q 188 -62 218 -85 q 247 -108 265 -147 q 283 -187 292 -237 q 301 -287 303 -342 l 303 -342 l 299 -342 q 288 -317 272 -299 q 255 -281 234 -271 q 213 -262 187 -262 l 187 -262 q 137 -262 104 -292 q 71 -323 55 -374 q 39 -425 39 -488 l 39 -488 q 39 -555 58 -608 q 76 -662 115 -693 q 153 -725 211 -725 l 211 -725 q 253 -725 285 -705 q 317 -685 339 -645 q 361 -606 372 -548 q 383 -491 383 -417 l 383 -417 q 383 -336 375 -269 q 366 -202 348 -150 q 329 -98 302 -61 q 274 -25 236 -6 q 197 12 148 12 z m 208 -336 l 208 -336 q 239 -336 259 -355 q 279 -374 289 -404 q 299 -434 299 -467 l 299 -467 q 299 -493 296 -524 q 292 -555 282 -584 q 272 -613 255 -631 q 237 -650 210 -650 l 210 -650 q 167 -650 145 -610 q 123 -571 123 -490 l 123 -490 q 123 -414 145 -375 q 166 -336 208 -336 z"},"\r":{"ha":221,"x_min":0,"x_max":0,"o":""}," ":{"ha":221,"x_min":0,"x_max":0,"o":""},"ഀ":{"ha":0,"x_min":-400,"x_max":-156,"o":"m -400 -721 l -400 -721 q -400 -789 -366 -826 q -332 -864 -279 -864 l -279 -864 q -225 -864 -190 -827 q -156 -790 -156 -721 l -156 -721 q -156 -653 -190 -615 q -224 -578 -279 -578 l -279 -578 q -333 -578 -366 -615 q -400 -653 -400 -721 z m -334 -722 l -334 -722 q -334 -687 -321 -663 q -308 -639 -279 -639 l -279 -639 q -250 -639 -236 -663 q -222 -687 -222 -722 l -222 -722 q -222 -757 -236 -780 q -250 -803 -279 -803 l -279 -803 q -307 -803 -320 -780 q -334 -757 -334 -722 z"},"ഁ":{"ha":0,"x_min":-419,"x_max":-138,"o":"m -278 -655 l -278 -655 q -342 -655 -380 -693 q -419 -732 -419 -811 l -419 -811 q -419 -824 -417 -837 q -415 -851 -412 -863 l -412 -863 l -349 -854 q -351 -844 -352 -832 q -354 -820 -354 -810 l -354 -810 q -354 -776 -344 -755 q -335 -735 -318 -726 q -301 -717 -279 -717 l -279 -717 q -256 -717 -239 -725 q -222 -734 -212 -754 q -203 -775 -203 -812 l -203 -812 q -203 -819 -204 -831 q -205 -844 -208 -855 l -208 -855 l -145 -862 q -142 -850 -140 -836 q -138 -822 -138 -811 l -138 -811 q -138 -734 -176 -694 q -214 -655 -278 -655 z m -279 -760 l -279 -760 q -298 -760 -309 -773 q -320 -786 -320 -809 l -320 -809 q -320 -831 -309 -844 q -298 -858 -279 -858 l -279 -858 q -260 -858 -248 -845 q -237 -832 -237 -810 l -237 -810 q -237 -786 -248 -773 q -260 -760 -279 -760 z"},"ം":{"ha":362,"x_min":32,"x_max":330,"o":"m 181 12 l 181 12 q 135 12 102 -10 q 68 -32 50 -74 q 32 -117 32 -176 l 32 -176 q 32 -237 51 -278 q 70 -320 104 -341 q 137 -363 181 -363 l 181 -363 q 225 -363 259 -342 q 292 -321 311 -279 q 330 -238 330 -176 l 330 -176 q 330 -115 311 -73 q 292 -31 259 -9 q 225 12 181 12 z m 181 -299 l 181 -299 q 148 -299 128 -271 q 108 -243 108 -175 l 108 -175 q 108 -108 129 -80 q 149 -52 181 -52 l 181 -52 q 213 -52 234 -80 q 254 -109 254 -176 l 254 -176 q 254 -243 234 -271 q 214 -299 181 -299 z"},"ഃ":{"ha":278,"x_min":30,"x_max":248,"o":"m 30 -436 l 30 -436 q 30 -498 61 -532 q 91 -566 138 -566 l 138 -566 q 186 -566 217 -532 q 248 -499 248 -436 l 248 -436 q 248 -374 218 -340 q 187 -306 138 -306 l 138 -306 q 90 -306 60 -340 q 30 -374 30 -436 z m 94 -437 l 94 -437 q 94 -405 105 -386 q 116 -367 138 -367 l 138 -367 q 161 -367 173 -386 q 184 -405 184 -437 l 184 -437 q 184 -469 172 -487 q 160 -505 138 -505 l 138 -505 q 117 -505 106 -487 q 94 -469 94 -437 z m 30 -118 l 30 -118 q 30 -180 61 -214 q 91 -248 138 -248 l 138 -248 q 186 -248 217 -214 q 248 -181 248 -118 l 248 -118 q 248 -55 218 -21 q 187 12 138 12 l 138 12 q 90 12 60 -22 q 30 -56 30 -118 z m 94 -118 l 94 -118 q 94 -85 105 -66 q 116 -48 138 -48 l 138 -48 q 161 -48 173 -66 q 184 -85 184 -118 l 184 -118 q 184 -150 172 -168 q 160 -187 138 -187 l 138 -187 q 117 -187 106 -168 q 94 -150 94 -118 z"},"ഄ":{"ha":481,"x_min":36,"x_max":445,"o":"m 50 -318 l 50 -318 l 125 -303 q 119 -281 117 -258 q 114 -235 114 -209 l 114 -209 q 114 -144 141 -102 q 168 -60 240 -60 l 240 -60 q 313 -60 340 -102 q 367 -144 367 -209 l 367 -209 q 367 -235 365 -258 q 362 -281 356 -303 l 356 -303 l 431 -318 q 436 -299 441 -270 q 445 -242 445 -209 l 445 -209 q 445 -147 426 -97 q 406 -48 361 -19 q 316 9 240 9 l 240 9 q 165 9 120 -19 q 75 -48 56 -97 q 36 -147 36 -209 l 36 -209 q 36 -242 41 -270 q 45 -299 50 -318 z m 207 -171 l 207 -403 l 278 -403 l 278 -171 l 207 -171 z"},"അ":{"ha":1132,"x_min":36,"x_max":1096,"o":"m 298 -566 l 298 -566 q 327 -566 359 -560 q 391 -554 425 -537 l 425 -537 q 431 -535 435 -529 q 438 -523 444 -520 l 444 -520 q 475 -506 497 -484 q 518 -463 530 -435 q 542 -407 542 -370 l 542 -370 q 542 -342 534 -319 q 525 -296 507 -278 q 489 -261 459 -249 l 459 -249 l 455 -258 q 499 -247 525 -215 q 550 -183 550 -133 l 550 -133 q 550 -93 536 -60 q 521 -27 489 -7 q 457 12 405 12 l 405 12 q 346 12 308 -17 q 270 -47 252 -102 q 233 -157 233 -235 l 233 -235 q 233 -291 246 -342 q 258 -394 283 -436 q 308 -479 345 -507 l 345 -507 q 350 -511 355 -516 q 360 -522 365 -526 l 365 -526 q 394 -545 429 -555 q 464 -566 505 -566 l 505 -566 q 557 -566 593 -551 q 628 -537 653 -510 q 677 -484 696 -449 l 696 -449 l 713 -255 l 713 0 l 634 0 l 634 -304 q 634 -372 627 -408 q 620 -444 597 -469 l 597 -469 q 582 -486 559 -494 q 535 -503 500 -503 l 500 -503 q 479 -503 460 -497 q 441 -492 424 -484 l 424 -484 q 396 -471 374 -447 q 352 -424 338 -391 q 324 -359 317 -318 q 309 -278 309 -231 l 309 -231 q 309 -137 334 -94 q 359 -51 404 -51 l 404 -51 q 437 -51 455 -70 q 473 -90 473 -131 l 473 -131 q 473 -173 449 -196 q 425 -220 384 -220 l 384 -220 l 380 -220 l 380 -286 l 383 -286 q 418 -286 442 -309 q 465 -332 465 -370 l 465 -370 q 465 -418 443 -446 q 420 -474 376 -487 l 376 -487 q 351 -497 335 -499 q 318 -502 304 -502 l 304 -502 q 240 -502 199 -473 q 158 -444 138 -394 q 118 -345 118 -281 l 118 -281 q 118 -224 129 -180 q 140 -137 160 -104 q 180 -72 206 -47 l 206 -47 l 150 8 q 119 -21 93 -62 q 67 -104 52 -160 q 36 -216 36 -288 l 36 -288 q 36 -344 51 -394 q 66 -444 98 -483 q 130 -522 180 -544 q 229 -566 298 -566 z m 936 12 l 936 12 q 885 12 853 -15 q 820 -43 804 -91 q 788 -139 788 -199 l 788 -199 q 788 -298 825 -350 q 862 -402 927 -402 l 927 -402 q 962 -402 986 -387 q 1010 -372 1030 -342 q 1049 -312 1068 -266 l 1068 -266 l 1041 -249 q 1035 -266 1023 -286 q 1010 -307 991 -322 q 971 -337 945 -337 l 945 -337 q 904 -337 885 -300 q 866 -263 866 -198 l 866 -198 q 866 -152 874 -119 q 881 -87 897 -70 q 913 -53 937 -53 l 937 -53 q 963 -53 982 -72 q 1000 -92 1010 -135 q 1020 -178 1020 -248 l 1020 -248 q 1020 -250 1019 -270 q 1017 -290 1015 -310 l 1015 -310 q 1014 -315 1015 -323 q 1015 -331 1013 -335 l 1013 -335 q 1007 -378 987 -415 q 966 -452 931 -475 q 896 -498 847 -498 l 847 -498 q 816 -498 794 -490 q 771 -483 754 -467 l 754 -467 q 738 -452 729 -430 q 720 -409 717 -380 q 713 -351 713 -311 l 713 -311 l 713 -207 l 660 -459 q 678 -488 702 -512 q 725 -537 759 -551 q 793 -566 842 -566 l 842 -566 q 905 -566 953 -543 q 1000 -520 1032 -477 q 1064 -434 1080 -374 q 1096 -315 1096 -242 l 1096 -242 q 1096 -147 1076 -91 q 1055 -35 1019 -11 q 983 12 936 12 z"},"ആ":{"ha":1239,"x_min":36,"x_max":1217,"o":"m 298 -566 l 298 -566 q 327 -566 359 -560 q 391 -554 425 -537 l 425 -537 q 431 -535 435 -529 q 438 -523 444 -520 l 444 -520 q 475 -506 497 -484 q 518 -463 530 -435 q 542 -407 542 -370 l 542 -370 q 542 -342 534 -319 q 525 -296 507 -278 q 489 -261 459 -249 l 459 -249 l 455 -258 q 499 -247 525 -215 q 550 -183 550 -133 l 550 -133 q 550 -93 536 -60 q 521 -27 489 -7 q 457 12 405 12 l 405 12 q 346 12 308 -17 q 270 -47 252 -102 q 233 -157 233 -235 l 233 -235 q 233 -291 246 -342 q 258 -394 283 -436 q 308 -479 345 -507 l 345 -507 q 350 -511 355 -516 q 360 -522 365 -526 l 365 -526 q 394 -545 429 -555 q 464 -566 505 -566 l 505 -566 q 557 -566 593 -551 q 628 -537 653 -510 q 677 -484 696 -449 l 696 -449 l 713 -255 l 713 0 l 634 0 l 634 -304 q 634 -372 627 -408 q 620 -444 597 -469 l 597 -469 q 582 -486 559 -494 q 535 -503 500 -503 l 500 -503 q 479 -503 460 -497 q 441 -492 424 -484 l 424 -484 q 396 -471 374 -447 q 352 -424 338 -391 q 324 -359 317 -318 q 309 -278 309 -231 l 309 -231 q 309 -137 334 -94 q 359 -51 404 -51 l 404 -51 q 437 -51 455 -70 q 473 -90 473 -131 l 473 -131 q 473 -173 449 -196 q 425 -220 384 -220 l 384 -220 l 380 -220 l 380 -286 l 383 -286 q 418 -286 442 -309 q 465 -332 465 -370 l 465 -370 q 465 -418 443 -446 q 420 -474 376 -487 l 376 -487 q 351 -497 335 -499 q 318 -502 304 -502 l 304 -502 q 240 -502 199 -473 q 158 -444 138 -394 q 118 -345 118 -281 l 118 -281 q 118 -224 129 -180 q 140 -137 160 -104 q 180 -72 206 -47 l 206 -47 l 150 8 q 119 -21 93 -62 q 67 -104 52 -160 q 36 -216 36 -288 l 36 -288 q 36 -344 51 -394 q 66 -444 98 -483 q 130 -522 180 -544 q 229 -566 298 -566 z m 836 -566 l 836 -566 q 912 -566 961 -534 q 1010 -503 1037 -450 q 1064 -397 1072 -330 l 1072 -330 q 1076 -306 1078 -280 q 1079 -254 1079 -228 l 1079 -228 q 1079 -138 1061 -85 q 1042 -33 1008 -10 q 973 12 923 12 l 923 12 q 873 12 841 -12 q 809 -36 794 -76 q 778 -117 778 -168 l 778 -168 q 778 -273 836 -326 q 893 -380 983 -380 l 983 -380 q 992 -380 1003 -379 q 1014 -379 1023 -377 l 1023 -377 l 1038 -377 q 1094 -365 1134 -326 q 1174 -287 1196 -226 q 1217 -166 1217 -88 l 1217 -88 q 1217 -23 1203 31 q 1188 84 1158 122 q 1127 160 1080 181 q 1032 201 967 201 l 967 201 q 937 201 912 197 q 887 192 862 184 l 862 184 l 884 120 q 906 127 927 130 q 948 132 969 132 l 969 132 q 1019 132 1053 114 q 1086 96 1105 65 q 1124 34 1132 -7 q 1140 -49 1140 -95 l 1140 -95 q 1140 -146 1131 -185 q 1122 -225 1104 -253 q 1086 -282 1059 -299 l 1059 -299 l 1036 -304 q 1023 -310 1010 -312 q 996 -315 988 -315 l 988 -315 q 949 -315 920 -300 q 890 -285 874 -253 q 857 -222 857 -171 l 857 -171 q 857 -137 864 -110 q 870 -84 885 -69 q 899 -54 923 -54 l 923 -54 q 963 -54 983 -93 q 1003 -132 1003 -235 l 1003 -235 q 1003 -260 1001 -288 q 999 -316 994 -344 l 994 -344 l 991 -367 q 982 -403 964 -433 q 945 -463 915 -480 q 885 -498 840 -498 l 840 -498 q 814 -498 792 -490 q 770 -483 753 -467 l 753 -467 q 737 -452 729 -430 q 720 -409 717 -380 q 713 -351 713 -311 l 713 -311 l 713 -207 l 660 -459 q 677 -488 700 -512 q 723 -537 757 -551 q 790 -566 836 -566 z"},"ഇ":{"ha":740,"x_min":34,"x_max":704,"o":"m 245 -566 l 245 -566 q 293 -566 324 -554 q 354 -542 376 -521 q 397 -501 417 -473 l 417 -473 l 394 -477 q 420 -526 454 -546 q 488 -566 526 -566 l 526 -566 q 572 -566 606 -547 q 639 -529 661 -494 q 683 -460 694 -413 q 704 -366 704 -309 l 704 -309 q 704 -220 686 -161 q 668 -103 626 -65 l 626 -65 q 601 -42 569 -27 q 536 -13 490 -6 q 444 0 375 0 l 375 0 l 241 0 q 202 0 184 3 q 166 5 152 12 l 152 12 q 136 19 128 33 q 120 46 120 64 l 120 64 q 120 81 127 94 q 133 106 144 114 l 144 114 q 158 124 182 129 q 206 133 244 133 l 244 133 l 689 133 l 689 201 l 240 201 q 191 201 156 194 q 120 187 94 171 l 94 171 q 69 155 55 130 q 40 104 40 69 l 40 69 q 40 34 53 7 q 66 -20 92 -37 l 92 -37 q 106 -47 124 -53 q 142 -59 168 -62 q 193 -66 228 -66 l 228 -66 l 363 -66 q 423 -66 461 -71 q 498 -76 521 -85 q 544 -95 561 -108 l 561 -108 q 601 -140 612 -192 q 623 -244 623 -308 l 623 -308 q 623 -355 613 -398 q 603 -442 582 -470 q 560 -499 524 -499 l 524 -499 q 509 -499 497 -494 q 485 -489 476 -479 l 476 -479 q 459 -460 452 -426 q 444 -393 444 -337 l 444 -337 l 444 -132 l 365 -132 l 365 -336 q 365 -389 358 -418 q 350 -448 334 -466 l 334 -466 q 318 -483 298 -491 q 278 -500 247 -500 l 247 -500 q 218 -500 195 -490 q 172 -481 155 -464 q 137 -447 125 -423 q 112 -400 104 -372 l 104 -372 q 103 -367 106 -362 q 108 -357 107 -352 l 107 -352 q 106 -342 105 -331 q 103 -321 103 -308 l 103 -308 q 103 -244 118 -212 q 132 -180 165 -180 l 165 -180 q 191 -180 202 -205 q 213 -230 213 -266 l 213 -266 q 213 -293 208 -312 q 203 -331 191 -341 q 179 -352 159 -352 l 159 -352 q 130 -352 112 -335 q 93 -318 77 -298 l 77 -298 l 52 -341 q 66 -361 85 -378 q 103 -395 126 -405 q 149 -416 175 -416 l 175 -416 q 216 -416 242 -396 q 267 -376 279 -342 q 291 -309 291 -267 l 291 -267 q 291 -222 278 -188 q 264 -154 236 -135 q 208 -116 164 -116 l 164 -116 q 126 -116 97 -137 q 67 -158 51 -202 q 34 -247 34 -318 l 34 -318 q 34 -394 61 -449 q 88 -505 136 -535 q 184 -566 245 -566 z"},"ഈ":{"ha":1326,"x_min":34,"x_max":1288,"o":"m 245 -566 l 245 -566 q 293 -566 324 -554 q 354 -542 376 -521 q 397 -501 417 -473 l 417 -473 l 394 -477 q 420 -526 454 -546 q 488 -566 526 -566 l 526 -566 q 572 -566 606 -547 q 639 -529 661 -494 q 683 -460 694 -413 q 704 -366 704 -309 l 704 -309 q 704 -220 686 -161 q 668 -103 626 -65 l 626 -65 q 601 -42 569 -27 q 536 -13 490 -6 q 444 0 375 0 l 375 0 l 241 0 q 202 0 184 3 q 166 5 152 12 l 152 12 q 136 19 128 33 q 120 46 120 64 l 120 64 q 120 81 127 94 q 133 106 144 114 l 144 114 q 158 124 182 129 q 206 133 244 133 l 244 133 l 689 133 l 689 201 l 240 201 q 191 201 156 194 q 120 187 94 171 l 94 171 q 69 155 55 130 q 40 104 40 69 l 40 69 q 40 34 53 7 q 66 -20 92 -37 l 92 -37 q 106 -47 124 -53 q 142 -59 168 -62 q 193 -66 228 -66 l 228 -66 l 363 -66 q 423 -66 461 -71 q 498 -76 521 -85 q 544 -95 561 -108 l 561 -108 q 601 -140 612 -192 q 623 -244 623 -308 l 623 -308 q 623 -355 613 -398 q 603 -442 582 -470 q 560 -499 524 -499 l 524 -499 q 509 -499 497 -494 q 485 -489 476 -479 l 476 -479 q 459 -460 452 -426 q 444 -393 444 -337 l 444 -337 l 444 -132 l 365 -132 l 365 -336 q 365 -389 358 -418 q 350 -448 334 -466 l 334 -466 q 318 -483 298 -491 q 278 -500 247 -500 l 247 -500 q 218 -500 195 -490 q 172 -481 155 -464 q 137 -447 125 -423 q 112 -400 104 -372 l 104 -372 q 103 -367 106 -362 q 108 -357 107 -352 l 107 -352 q 106 -342 105 -331 q 103 -321 103 -308 l 103 -308 q 103 -244 118 -212 q 132 -180 165 -180 l 165 -180 q 191 -180 202 -205 q 213 -230 213 -266 l 213 -266 q 213 -293 208 -312 q 203 -331 191 -341 q 179 -352 159 -352 l 159 -352 q 130 -352 112 -335 q 93 -318 77 -298 l 77 -298 l 52 -341 q 66 -361 85 -378 q 103 -395 126 -405 q 149 -416 175 -416 l 175 -416 q 216 -416 242 -396 q 267 -376 279 -342 q 291 -309 291 -267 l 291 -267 q 291 -222 278 -188 q 264 -154 236 -135 q 208 -116 164 -116 l 164 -116 q 126 -116 97 -137 q 67 -158 51 -202 q 34 -247 34 -318 l 34 -318 q 34 -394 61 -449 q 88 -505 136 -535 q 184 -566 245 -566 z m 1131 -566 l 1131 -566 q 1181 -566 1216 -537 q 1251 -509 1270 -451 q 1288 -394 1288 -305 l 1288 -305 q 1288 -192 1261 -122 q 1234 -52 1182 -20 q 1130 12 1056 12 l 1056 12 q 1019 12 975 4 q 931 -5 891 -28 l 891 -28 l 929 -92 q 954 -79 986 -69 q 1017 -60 1051 -60 l 1051 -60 q 1108 -60 1142 -86 q 1176 -112 1191 -166 q 1206 -220 1206 -305 l 1206 -305 q 1206 -400 1184 -449 q 1162 -498 1124 -498 l 1124 -498 q 1111 -498 1103 -494 q 1094 -490 1087 -482 l 1087 -482 q 1074 -467 1069 -440 q 1064 -413 1064 -354 l 1064 -354 l 1064 -260 l 985 -260 l 985 -355 q 985 -404 981 -431 q 977 -458 966 -474 l 966 -474 q 959 -486 948 -492 q 936 -498 922 -498 l 922 -498 q 888 -498 871 -468 q 853 -438 853 -393 l 853 -393 q 853 -359 857 -328 q 861 -298 867 -273 l 867 -273 l 793 -256 q 785 -288 779 -323 q 773 -359 773 -397 l 773 -397 q 773 -443 789 -481 q 804 -519 835 -542 q 866 -566 915 -566 l 915 -566 q 955 -566 983 -547 q 1010 -528 1028 -492 l 1028 -492 l 1016 -493 q 1037 -534 1065 -550 q 1093 -566 1131 -566 z"},"ഉ":{"ha":529,"x_min":34,"x_max":493,"o":"m 263 -566 l 263 -566 q 327 -566 371 -542 q 415 -519 442 -479 q 469 -440 481 -391 q 493 -342 493 -290 l 493 -290 q 493 -208 475 -148 q 457 -88 417 -53 l 417 -53 q 393 -32 366 -20 q 338 -9 306 -4 q 273 0 235 0 l 235 0 l 221 0 q 199 0 183 2 q 166 4 152 11 l 152 11 q 136 18 128 32 q 120 46 120 64 l 120 64 q 120 81 127 94 q 133 106 144 114 l 144 114 q 158 124 182 129 q 206 133 244 133 l 244 133 l 479 133 l 479 201 l 240 201 q 191 201 156 194 q 120 187 94 171 l 94 171 q 69 155 55 130 q 40 104 40 69 l 40 69 q 40 34 53 7 q 66 -21 92 -38 l 92 -38 q 113 -52 144 -59 q 174 -66 213 -66 l 213 -66 l 216 -66 q 258 -66 285 -70 q 312 -75 330 -83 q 347 -92 360 -104 l 360 -104 q 393 -135 403 -183 q 412 -232 412 -290 l 412 -290 q 412 -327 404 -364 q 396 -401 379 -432 q 361 -463 332 -481 q 302 -500 258 -500 l 258 -500 q 225 -500 200 -490 q 175 -481 157 -463 q 138 -446 125 -422 q 112 -399 104 -372 l 104 -372 q 103 -367 106 -362 q 108 -357 107 -352 l 107 -352 q 106 -342 105 -331 q 103 -321 103 -308 l 103 -308 q 103 -244 118 -212 q 132 -180 165 -180 l 165 -180 q 191 -180 202 -205 q 213 -230 213 -266 l 213 -266 q 213 -293 208 -312 q 203 -331 191 -341 q 179 -352 159 -352 l 159 -352 q 131 -352 112 -335 q 93 -318 77 -298 l 77 -298 l 52 -341 q 66 -361 85 -378 q 103 -395 126 -405 q 149 -416 175 -416 l 175 -416 q 216 -416 242 -396 q 267 -376 279 -342 q 291 -309 291 -267 l 291 -267 q 291 -222 278 -188 q 264 -154 236 -135 q 208 -116 164 -116 l 164 -116 q 126 -116 97 -137 q 67 -158 51 -202 q 34 -247 34 -318 l 34 -318 q 34 -376 50 -422 q 66 -468 96 -500 q 126 -532 168 -549 q 210 -566 263 -566 z"},"ഊ":{"ha":1112,"x_min":34,"x_max":1074,"o":"m 263 -566 l 263 -566 q 327 -566 371 -542 q 415 -519 442 -479 q 469 -440 481 -391 q 493 -342 493 -290 l 493 -290 q 493 -208 475 -148 q 457 -88 417 -53 l 417 -53 q 393 -32 366 -20 q 338 -9 306 -4 q 273 0 235 0 l 235 0 l 221 0 q 199 0 183 2 q 166 4 152 11 l 152 11 q 136 18 128 32 q 120 46 120 64 l 120 64 q 120 81 127 94 q 133 106 144 114 l 144 114 q 158 124 182 129 q 206 133 244 133 l 244 133 l 479 133 l 479 201 l 240 201 q 191 201 156 194 q 120 187 94 171 l 94 171 q 69 155 55 130 q 40 104 40 69 l 40 69 q 40 34 53 7 q 66 -21 92 -38 l 92 -38 q 113 -52 144 -59 q 174 -66 213 -66 l 213 -66 l 216 -66 q 258 -66 285 -70 q 312 -75 330 -83 q 347 -92 360 -104 l 360 -104 q 393 -135 403 -183 q 412 -232 412 -290 l 412 -290 q 412 -327 404 -364 q 396 -401 379 -432 q 361 -463 332 -481 q 302 -500 258 -500 l 258 -500 q 225 -500 200 -490 q 175 -481 157 -463 q 138 -446 125 -422 q 112 -399 104 -372 l 104 -372 q 103 -367 106 -362 q 108 -357 107 -352 l 107 -352 q 106 -342 105 -331 q 103 -321 103 -308 l 103 -308 q 103 -244 118 -212 q 132 -180 165 -180 l 165 -180 q 191 -180 202 -205 q 213 -230 213 -266 l 213 -266 q 213 -293 208 -312 q 203 -331 191 -341 q 179 -352 159 -352 l 159 -352 q 131 -352 112 -335 q 93 -318 77 -298 l 77 -298 l 52 -341 q 66 -361 85 -378 q 103 -395 126 -405 q 149 -416 175 -416 l 175 -416 q 216 -416 242 -396 q 267 -376 279 -342 q 291 -309 291 -267 l 291 -267 q 291 -222 278 -188 q 264 -154 236 -135 q 208 -116 164 -116 l 164 -116 q 126 -116 97 -137 q 67 -158 51 -202 q 34 -247 34 -318 l 34 -318 q 34 -376 50 -422 q 66 -468 96 -500 q 126 -532 168 -549 q 210 -566 263 -566 z m 917 -566 l 917 -566 q 967 -566 1002 -537 q 1037 -509 1056 -451 q 1074 -394 1074 -305 l 1074 -305 q 1074 -192 1047 -122 q 1020 -52 968 -20 q 916 12 842 12 l 842 12 q 805 12 761 4 q 717 -5 677 -28 l 677 -28 l 715 -92 q 740 -79 772 -69 q 803 -60 837 -60 l 837 -60 q 894 -60 928 -86 q 962 -112 977 -166 q 992 -220 992 -305 l 992 -305 q 992 -400 970 -449 q 948 -498 910 -498 l 910 -498 q 897 -498 889 -494 q 880 -490 873 -482 l 873 -482 q 860 -467 855 -440 q 850 -413 850 -354 l 850 -354 l 850 -260 l 771 -260 l 771 -355 q 771 -404 767 -431 q 763 -458 752 -474 l 752 -474 q 745 -486 734 -492 q 722 -498 708 -498 l 708 -498 q 674 -498 657 -468 q 639 -438 639 -393 l 639 -393 q 639 -359 643 -328 q 647 -298 653 -273 l 653 -273 l 579 -256 q 571 -288 565 -323 q 559 -359 559 -397 l 559 -397 q 559 -443 575 -481 q 590 -519 621 -542 q 652 -566 701 -566 l 701 -566 q 741 -566 769 -547 q 796 -528 814 -492 l 814 -492 l 802 -493 q 823 -534 851 -550 q 879 -566 917 -566 z"},"ഋ":{"ha":679,"x_min":34,"x_max":645,"o":"m 506 -566 l 506 -566 q 571 -566 608 -512 q 645 -458 645 -364 l 645 -364 q 645 -301 631 -254 q 617 -208 586 -173 l 586 -173 q 549 -133 495 -113 q 440 -94 363 -94 l 363 -94 l 320 -94 q 268 -94 225 -102 q 182 -110 150 -127 q 117 -145 93 -172 l 93 -172 q 63 -207 49 -253 q 34 -299 34 -360 l 34 -360 q 34 -420 52 -466 q 69 -513 103 -539 q 137 -566 185 -566 l 185 -566 q 229 -566 257 -545 q 284 -524 297 -489 q 310 -454 310 -411 l 310 -411 q 310 -360 297 -325 q 283 -290 256 -271 q 228 -253 184 -253 l 184 -253 q 159 -253 138 -261 q 116 -270 97 -285 q 77 -300 57 -319 l 57 -319 l 81 -370 q 96 -353 109 -341 q 122 -329 136 -323 q 150 -318 167 -318 l 167 -318 q 204 -318 219 -342 q 234 -366 234 -412 l 234 -412 q 234 -450 222 -475 q 209 -500 180 -500 l 180 -500 q 156 -500 140 -484 q 124 -468 116 -437 q 107 -407 107 -365 l 107 -365 q 107 -350 109 -334 q 110 -319 113 -304 l 113 -304 l 111 -285 q 119 -252 138 -227 q 156 -202 184 -186 q 211 -170 246 -162 q 280 -154 321 -154 l 321 -154 l 358 -154 q 399 -154 434 -162 q 468 -170 496 -186 q 523 -203 542 -228 q 560 -253 568 -287 l 568 -287 l 566 -306 q 568 -318 570 -335 q 572 -352 572 -365 l 572 -365 q 572 -410 565 -440 q 558 -470 544 -485 q 529 -500 506 -500 l 506 -500 q 475 -500 460 -474 q 445 -449 445 -405 l 445 -405 q 445 -364 459 -341 q 473 -318 510 -318 l 510 -318 q 527 -318 541 -323 q 555 -329 569 -340 q 582 -352 597 -368 l 597 -368 l 621 -317 q 603 -300 584 -285 q 564 -270 542 -261 q 520 -253 495 -253 l 495 -253 q 451 -253 423 -272 q 395 -291 382 -325 q 369 -360 369 -408 l 369 -408 q 369 -452 383 -487 q 397 -523 428 -544 q 458 -566 506 -566 z m 340 213 l 340 213 q 250 213 188 193 q 126 173 94 133 q 62 93 62 33 l 62 33 q 62 -10 80 -41 q 98 -73 129 -93 q 160 -114 202 -124 q 243 -134 289 -134 l 289 -134 l 389 -134 q 436 -134 477 -124 q 518 -114 550 -93 q 581 -73 599 -41 q 617 -10 617 33 l 617 33 q 617 93 586 133 q 554 173 492 193 q 430 213 340 213 z m 340 145 l 340 145 q 410 145 453 132 q 496 119 516 93 q 536 67 536 29 l 536 29 q 536 -3 523 -25 q 509 -47 484 -60 q 459 -74 426 -80 q 392 -86 351 -86 l 351 -86 l 328 -86 q 274 -86 233 -74 q 191 -63 167 -38 q 143 -13 143 29 l 143 29 q 143 67 163 93 q 183 119 227 132 q 270 145 340 145 z"},"ഌ":{"ha":891,"x_min":38,"x_max":855,"o":"m 277 -566 l 277 -566 q 339 -566 376 -542 q 413 -518 444 -473 l 444 -473 l 460 -417 l 472 -264 l 472 0 l 393 0 l 393 -326 q 393 -380 387 -412 q 380 -444 362 -465 l 362 -465 q 349 -480 329 -489 q 308 -498 279 -498 l 279 -498 q 228 -498 191 -466 q 154 -434 134 -378 q 113 -322 113 -251 l 113 -251 l 113 -222 q 113 -161 123 -124 q 132 -87 149 -71 q 165 -55 187 -55 l 187 -55 q 204 -55 217 -65 q 229 -76 236 -98 q 243 -120 243 -157 l 243 -157 q 243 -213 226 -236 q 209 -260 177 -260 l 177 -260 q 151 -260 130 -246 q 109 -233 86 -204 l 86 -204 l 65 -257 q 88 -283 122 -304 q 156 -326 195 -326 l 195 -326 q 235 -326 263 -308 q 291 -290 306 -253 q 321 -216 321 -160 l 321 -160 q 321 -101 306 -63 q 290 -25 261 -6 q 231 12 188 12 l 188 12 q 147 12 113 -12 q 79 -37 59 -92 q 38 -148 38 -241 l 38 -241 q 38 -352 70 -424 q 101 -496 155 -531 q 209 -566 277 -566 z m 695 12 l 695 12 q 644 12 612 -15 q 579 -43 563 -91 q 547 -139 547 -199 l 547 -199 q 547 -298 584 -350 q 621 -402 686 -402 l 686 -402 q 721 -402 745 -387 q 769 -372 789 -342 q 808 -312 827 -266 l 827 -266 l 800 -249 q 794 -266 782 -286 q 769 -307 750 -322 q 730 -337 704 -337 l 704 -337 q 663 -337 644 -300 q 625 -263 625 -198 l 625 -198 q 625 -152 633 -119 q 640 -87 656 -70 q 672 -53 696 -53 l 696 -53 q 722 -53 741 -72 q 759 -92 769 -135 q 779 -178 779 -248 l 779 -248 q 779 -250 778 -270 q 776 -290 774 -310 l 774 -310 q 773 -315 774 -323 q 774 -331 772 -335 l 772 -335 q 766 -378 746 -415 q 725 -452 690 -475 q 655 -498 606 -498 l 606 -498 q 575 -498 553 -490 q 530 -483 513 -467 l 513 -467 q 497 -452 488 -430 q 479 -409 476 -380 q 472 -351 472 -311 l 472 -311 l 472 -207 l 419 -459 q 437 -488 461 -512 q 484 -537 518 -551 q 552 -566 601 -566 l 601 -566 q 664 -566 712 -543 q 759 -520 791 -477 q 823 -434 839 -374 q 855 -315 855 -242 l 855 -242 q 855 -147 835 -91 q 814 -35 778 -11 q 742 12 695 12 z"},"എ":{"ha":961,"x_min":31,"x_max":923,"o":"m 183 -346 l 183 -346 q 235 -346 269 -322 q 302 -298 319 -260 q 335 -222 335 -178 l 335 -178 q 335 -134 322 -102 q 309 -71 298 -57 l 298 -57 l 284 -66 l 651 -66 l 649 0 l 253 0 l 222 -52 q 236 -74 247 -101 q 258 -129 258 -168 l 258 -168 q 258 -221 239 -250 q 220 -280 184 -280 l 184 -280 q 161 -280 144 -267 q 126 -254 117 -230 q 108 -206 108 -174 l 108 -174 q 108 -131 122 -100 q 135 -69 157 -37 l 157 -37 l 101 7 q 73 -28 52 -72 q 31 -117 31 -174 l 31 -174 q 31 -227 50 -265 q 69 -304 104 -325 q 138 -346 183 -346 z m 679 -566 l 679 -566 q 738 -566 784 -542 q 829 -519 860 -471 q 891 -424 907 -352 q 923 -281 923 -185 l 923 -185 q 923 -114 911 -40 q 898 34 873 103 q 848 171 810 228 l 810 228 l 745 187 q 775 139 797 83 q 818 26 830 -40 q 842 -107 842 -184 l 842 -184 q 842 -247 834 -303 q 825 -360 806 -404 q 787 -448 756 -473 q 724 -498 677 -498 l 677 -498 q 620 -498 583 -454 q 545 -411 527 -332 q 508 -254 508 -148 l 508 -148 q 508 -117 509 -94 q 510 -71 511 -51 l 511 -51 q 512 -46 512 -40 q 511 -35 511 -30 l 511 -30 q 515 42 527 84 q 539 126 557 144 q 575 162 594 162 l 594 162 q 609 162 617 154 l 617 154 q 625 146 628 133 q 630 119 630 91 l 630 91 l 630 -406 l 709 -406 l 709 60 q 709 103 705 135 q 701 166 687 187 l 687 187 q 675 205 655 217 q 634 228 600 228 l 600 228 q 547 228 508 191 q 469 154 449 71 q 428 -12 428 -150 l 428 -150 q 428 -249 444 -326 q 460 -404 492 -457 q 524 -511 571 -538 q 618 -566 679 -566 z"},"ഏ":{"ha":971,"x_min":31,"x_max":941,"o":"m 183 -346 l 183 -346 q 235 -346 269 -322 q 302 -298 319 -260 q 335 -222 335 -178 l 335 -178 q 335 -134 322 -102 q 309 -71 298 -57 l 298 -57 l 284 -66 l 651 -66 l 649 0 l 253 0 l 222 -52 q 236 -74 247 -101 q 258 -129 258 -168 l 258 -168 q 258 -221 239 -250 q 220 -280 184 -280 l 184 -280 q 161 -280 144 -267 q 126 -254 117 -230 q 108 -206 108 -174 l 108 -174 q 108 -131 122 -100 q 135 -69 157 -37 l 157 -37 l 101 7 q 73 -28 52 -72 q 31 -117 31 -174 l 31 -174 q 31 -227 50 -265 q 69 -304 104 -325 q 138 -346 183 -346 z m 712 -566 l 712 -566 q 774 -566 817 -546 q 859 -526 885 -492 q 911 -459 923 -419 q 934 -379 934 -339 l 934 -339 q 934 -283 919 -244 q 904 -206 880 -181 q 856 -156 828 -138 l 828 -138 l 830 -147 q 878 -128 910 -83 q 941 -38 941 32 l 941 32 q 941 103 921 147 q 901 190 867 209 q 832 228 788 228 l 788 228 q 769 228 753 226 q 737 224 726 221 l 726 221 l 741 156 q 751 159 760 160 q 768 161 778 161 l 778 161 q 804 161 823 149 q 841 136 851 108 q 860 80 860 33 l 860 33 q 860 -28 834 -66 q 808 -104 755 -105 l 755 -105 l 755 -172 q 783 -180 805 -199 q 827 -219 840 -252 q 853 -286 853 -335 l 853 -335 q 853 -382 838 -419 q 822 -456 791 -477 q 759 -498 710 -498 l 710 -498 q 637 -498 593 -452 q 548 -406 528 -326 q 508 -247 508 -148 l 508 -148 q 508 -117 509 -94 q 510 -71 511 -51 l 511 -51 q 511 -46 511 -40 q 511 -35 511 -30 l 511 -30 q 515 42 527 84 q 539 126 557 144 q 575 162 594 162 l 594 162 q 609 162 617 154 l 617 154 q 625 146 628 133 q 630 119 630 91 l 630 91 l 630 -406 l 709 -406 l 709 60 q 709 103 705 135 q 701 166 687 187 l 687 187 q 675 205 655 217 q 634 228 600 228 l 600 228 q 548 228 509 191 q 470 154 449 71 q 428 -12 428 -150 l 428 -150 q 428 -249 447 -326 q 465 -404 502 -457 q 538 -511 591 -538 q 643 -566 712 -566 z"},"ഐ":{"ha":1510,"x_min":36,"x_max":1472,"o":"m 186 12 l 186 12 q 145 12 111 -12 q 77 -36 57 -90 q 36 -144 36 -234 l 36 -234 q 36 -315 55 -376 q 73 -438 107 -480 q 140 -523 186 -544 q 231 -566 286 -566 l 286 -566 q 344 -566 387 -545 q 430 -525 458 -487 q 486 -450 500 -399 q 513 -349 513 -289 l 513 -289 q 513 -217 499 -162 q 484 -108 459 -67 q 433 -26 399 8 l 399 8 l 343 -47 q 366 -69 386 -101 q 406 -133 419 -177 q 431 -221 431 -279 l 431 -279 q 431 -351 414 -399 q 396 -448 363 -473 q 330 -498 284 -498 l 284 -498 q 234 -498 195 -465 q 155 -432 133 -372 q 111 -313 111 -231 l 111 -231 q 111 -165 121 -126 q 130 -88 147 -71 q 163 -55 185 -55 l 185 -55 q 202 -55 215 -65 q 227 -76 234 -98 q 241 -120 241 -157 l 241 -157 q 241 -213 224 -236 q 207 -260 175 -260 l 175 -260 q 149 -260 128 -246 q 107 -233 84 -204 l 84 -204 l 63 -257 q 86 -283 120 -304 q 154 -326 193 -326 l 193 -326 q 233 -326 261 -308 q 289 -290 304 -253 q 319 -216 319 -160 l 319 -160 q 319 -101 304 -63 q 288 -25 259 -6 q 229 12 186 12 z m 732 -346 l 732 -346 q 784 -346 818 -322 q 851 -298 868 -260 q 884 -222 884 -178 l 884 -178 q 884 -134 871 -102 q 858 -71 847 -57 l 847 -57 l 833 -66 l 1200 -66 l 1198 0 l 802 0 l 771 -52 q 785 -74 796 -101 q 807 -129 807 -168 l 807 -168 q 807 -221 788 -250 q 769 -280 733 -280 l 733 -280 q 710 -280 693 -267 q 675 -254 666 -230 q 657 -206 657 -174 l 657 -174 q 657 -131 671 -100 q 684 -69 706 -37 l 706 -37 l 650 7 q 622 -28 601 -72 q 580 -117 580 -174 l 580 -174 q 580 -227 599 -265 q 618 -304 653 -325 q 687 -346 732 -346 z m 1228 -566 l 1228 -566 q 1287 -566 1333 -542 q 1378 -519 1409 -471 q 1440 -424 1456 -352 q 1472 -281 1472 -185 l 1472 -185 q 1472 -114 1460 -40 q 1447 34 1422 103 q 1397 171 1359 228 l 1359 228 l 1294 187 q 1324 139 1346 83 q 1367 26 1379 -40 q 1391 -107 1391 -184 l 1391 -184 q 1391 -247 1383 -303 q 1374 -360 1355 -404 q 1336 -448 1305 -473 q 1273 -498 1226 -498 l 1226 -498 q 1169 -498 1132 -454 q 1094 -411 1076 -332 q 1057 -254 1057 -148 l 1057 -148 q 1057 -117 1058 -94 q 1059 -71 1060 -51 l 1060 -51 q 1061 -46 1061 -40 q 1060 -35 1060 -30 l 1060 -30 q 1064 42 1076 84 q 1088 126 1106 144 q 1124 162 1143 162 l 1143 162 q 1158 162 1166 154 l 1166 154 q 1174 146 1177 133 q 1179 119 1179 91 l 1179 91 l 1179 -406 l 1258 -406 l 1258 60 q 1258 103 1254 135 q 1250 166 1236 187 l 1236 187 q 1224 205 1204 217 q 1183 228 1149 228 l 1149 228 q 1096 228 1057 191 q 1018 154 998 71 q 977 -12 977 -150 l 977 -150 q 977 -249 993 -326 q 1009 -404 1041 -457 q 1073 -511 1120 -538 q 1167 -566 1228 -566 z"},"ഒ":{"ha":590,"x_min":36,"x_max":557,"o":"m 353 -566 l 353 -566 q 423 -566 467 -543 q 511 -520 532 -483 q 552 -446 552 -403 l 552 -403 q 552 -375 543 -351 q 534 -327 514 -307 q 493 -288 459 -275 l 459 -275 l 456 -280 q 502 -268 530 -228 q 557 -189 557 -141 l 557 -141 q 557 -70 519 -29 q 481 11 415 11 l 415 11 q 395 11 374 8 q 353 5 339 1 l 339 1 l 354 -62 q 366 -58 379 -56 q 391 -55 401 -55 l 401 -55 q 439 -55 458 -77 q 476 -100 476 -140 l 476 -140 q 476 -163 470 -182 q 463 -201 450 -214 l 450 -214 q 436 -229 414 -236 q 392 -244 363 -244 l 363 -244 l 361 -244 l 361 -310 l 363 -310 q 394 -310 415 -316 q 435 -322 450 -337 l 450 -337 q 461 -348 466 -363 q 471 -378 471 -398 l 471 -398 q 471 -447 439 -472 q 406 -498 349 -498 l 349 -498 q 298 -498 255 -479 q 211 -461 179 -427 q 147 -393 129 -344 q 111 -296 111 -236 l 111 -236 l 111 -214 q 111 -158 120 -122 q 129 -87 146 -71 q 163 -55 185 -55 l 185 -55 q 202 -55 215 -65 q 227 -75 234 -97 q 241 -120 241 -157 l 241 -157 q 241 -213 224 -236 q 207 -260 175 -260 l 175 -260 q 149 -260 128 -246 q 107 -233 84 -204 l 84 -204 l 63 -257 q 86 -283 120 -304 q 154 -326 193 -326 l 193 -326 q 233 -326 261 -308 q 289 -290 304 -253 q 319 -216 319 -159 l 319 -159 q 319 -101 304 -63 q 288 -25 259 -6 q 229 12 186 12 l 186 12 q 145 12 111 -12 q 77 -36 57 -88 q 36 -140 36 -225 l 36 -225 q 36 -304 58 -367 q 79 -430 120 -474 q 160 -519 219 -542 q 278 -566 353 -566 z"},"ഓ":{"ha":993,"x_min":36,"x_max":955,"o":"m 353 -566 l 353 -566 q 423 -566 467 -543 q 511 -520 532 -483 q 552 -446 552 -403 l 552 -403 q 552 -375 543 -351 q 534 -327 514 -307 q 493 -288 459 -275 l 459 -275 l 456 -280 q 502 -268 530 -228 q 557 -189 557 -141 l 557 -141 q 557 -70 519 -29 q 481 11 415 11 l 415 11 q 395 11 374 8 q 353 5 339 1 l 339 1 l 354 -62 q 366 -58 379 -56 q 391 -55 401 -55 l 401 -55 q 439 -55 458 -77 q 476 -100 476 -140 l 476 -140 q 476 -163 470 -182 q 463 -201 450 -214 l 450 -214 q 436 -229 414 -236 q 392 -244 363 -244 l 363 -244 l 361 -244 l 361 -310 l 363 -310 q 394 -310 415 -316 q 435 -322 450 -337 l 450 -337 q 461 -348 466 -363 q 471 -378 471 -398 l 471 -398 q 471 -447 439 -472 q 406 -498 349 -498 l 349 -498 q 298 -498 255 -479 q 211 -461 179 -427 q 147 -393 129 -344 q 111 -296 111 -236 l 111 -236 l 111 -214 q 111 -158 120 -122 q 129 -87 146 -71 q 163 -55 185 -55 l 185 -55 q 202 -55 215 -65 q 227 -75 234 -97 q 241 -120 241 -157 l 241 -157 q 241 -213 224 -236 q 207 -260 175 -260 l 175 -260 q 149 -260 128 -246 q 107 -233 84 -204 l 84 -204 l 63 -257 q 86 -283 120 -304 q 154 -326 193 -326 l 193 -326 q 233 -326 261 -308 q 289 -290 304 -253 q 319 -216 319 -159 l 319 -159 q 319 -101 304 -63 q 288 -25 259 -6 q 229 12 186 12 l 186 12 q 145 12 111 -12 q 77 -36 57 -88 q 36 -140 36 -225 l 36 -225 q 36 -304 58 -367 q 79 -430 120 -474 q 160 -519 219 -542 q 278 -566 353 -566 z m 955 -279 l 955 -279 q 955 -214 947 -160 q 938 -107 919 -68 q 899 -30 867 -9 q 834 12 785 12 l 785 12 q 742 12 711 -3 q 680 -19 660 -45 q 640 -72 629 -104 q 617 -137 612 -170 l 612 -170 l 692 -186 q 697 -159 707 -128 q 716 -97 734 -75 q 751 -54 780 -54 l 780 -54 q 814 -54 835 -79 q 855 -105 865 -155 q 874 -205 874 -278 l 874 -278 q 874 -350 865 -399 q 855 -449 835 -474 q 815 -500 783 -500 l 783 -500 q 757 -500 739 -481 q 721 -462 711 -432 q 700 -402 694 -370 l 694 -370 l 615 -386 q 623 -420 636 -452 q 648 -484 668 -510 q 688 -536 718 -551 q 748 -566 791 -566 l 791 -566 q 837 -566 869 -545 q 900 -524 919 -486 q 938 -448 947 -395 q 955 -342 955 -279 z"},"ഔ":{"ha":1173,"x_min":36,"x_max":1135,"o":"m 353 -566 l 353 -566 q 423 -566 467 -543 q 511 -520 532 -483 q 552 -446 552 -403 l 552 -403 q 552 -375 543 -351 q 534 -327 514 -307 q 493 -288 459 -275 l 459 -275 l 456 -280 q 502 -268 530 -228 q 557 -189 557 -141 l 557 -141 q 557 -70 519 -29 q 481 11 415 11 l 415 11 q 395 11 374 8 q 353 5 339 1 l 339 1 l 354 -62 q 366 -58 379 -56 q 391 -55 401 -55 l 401 -55 q 439 -55 458 -77 q 476 -100 476 -140 l 476 -140 q 476 -163 470 -182 q 463 -201 450 -214 l 450 -214 q 436 -229 414 -236 q 392 -244 363 -244 l 363 -244 l 361 -244 l 361 -310 l 363 -310 q 394 -310 415 -316 q 435 -322 450 -337 l 450 -337 q 461 -348 466 -363 q 471 -378 471 -398 l 471 -398 q 471 -447 439 -472 q 406 -498 349 -498 l 349 -498 q 298 -498 255 -479 q 211 -461 179 -427 q 147 -393 129 -344 q 111 -296 111 -236 l 111 -236 l 111 -214 q 111 -158 120 -122 q 129 -87 146 -71 q 163 -55 185 -55 l 185 -55 q 202 -55 215 -65 q 227 -75 234 -97 q 241 -120 241 -157 l 241 -157 q 241 -213 224 -236 q 207 -260 175 -260 l 175 -260 q 149 -260 128 -246 q 107 -233 84 -204 l 84 -204 l 63 -257 q 86 -283 120 -304 q 154 -326 193 -326 l 193 -326 q 233 -326 261 -308 q 289 -290 304 -253 q 319 -216 319 -159 l 319 -159 q 319 -101 304 -63 q 288 -25 259 -6 q 229 12 186 12 l 186 12 q 145 12 111 -12 q 77 -36 57 -88 q 36 -140 36 -225 l 36 -225 q 36 -304 58 -367 q 79 -430 120 -474 q 160 -519 219 -542 q 278 -566 353 -566 z m 978 -566 l 978 -566 q 1028 -566 1063 -537 q 1098 -509 1117 -451 q 1135 -394 1135 -305 l 1135 -305 q 1135 -192 1108 -122 q 1081 -52 1029 -20 q 977 12 903 12 l 903 12 q 866 12 822 4 q 778 -5 738 -28 l 738 -28 l 776 -92 q 801 -79 833 -69 q 864 -60 898 -60 l 898 -60 q 955 -60 989 -86 q 1023 -112 1038 -166 q 1053 -220 1053 -305 l 1053 -305 q 1053 -400 1031 -449 q 1009 -498 971 -498 l 971 -498 q 958 -498 950 -494 q 941 -490 934 -482 l 934 -482 q 921 -467 916 -440 q 911 -413 911 -354 l 911 -354 l 911 -260 l 832 -260 l 832 -355 q 832 -404 828 -431 q 824 -458 813 -474 l 813 -474 q 806 -486 795 -492 q 783 -498 769 -498 l 769 -498 q 735 -498 718 -468 q 700 -438 700 -393 l 700 -393 q 700 -359 704 -328 q 708 -298 714 -273 l 714 -273 l 640 -256 q 632 -288 626 -323 q 620 -359 620 -397 l 620 -397 q 620 -443 636 -481 q 651 -519 682 -542 q 713 -566 762 -566 l 762 -566 q 802 -566 830 -547 q 857 -528 875 -492 l 875 -492 l 863 -493 q 884 -534 912 -550 q 940 -566 978 -566 z"},"ക":{"ha":795,"x_min":30,"x_max":765,"o":"m 177 12 l 177 12 q 108 12 69 -32 q 30 -76 30 -152 l 30 -152 q 30 -205 50 -237 q 70 -269 102 -289 l 102 -289 q 123 -302 149 -310 q 175 -318 213 -322 q 250 -326 305 -326 l 305 -326 l 503 -326 q 587 -326 631 -316 q 675 -307 703 -286 l 703 -286 q 731 -266 748 -232 q 765 -198 765 -149 l 765 -149 q 765 -76 726 -32 q 686 12 621 12 l 621 12 q 603 12 589 10 q 575 8 558 4 l 558 4 l 573 -62 q 583 -59 592 -58 q 601 -57 612 -57 l 612 -57 q 648 -57 668 -80 q 687 -103 687 -149 l 687 -149 q 687 -174 680 -194 q 672 -215 656 -228 l 656 -228 q 637 -244 606 -252 q 575 -260 507 -260 l 507 -260 l 284 -260 q 229 -260 197 -254 q 165 -248 143 -232 l 143 -232 q 127 -219 117 -199 q 107 -180 107 -151 l 107 -151 q 107 -121 117 -99 q 126 -78 144 -67 q 161 -56 186 -56 l 186 -56 q 215 -56 236 -65 q 256 -75 281 -94 l 281 -94 l 319 -42 q 292 -20 269 -8 q 246 3 224 8 q 202 12 177 12 z m 398 -566 l 398 -566 q 460 -566 499 -532 q 538 -498 557 -434 q 576 -370 576 -279 l 576 -279 q 576 -178 555 -113 q 533 -49 493 -18 q 453 12 397 12 l 397 12 q 348 12 317 -8 q 285 -28 264 -61 l 264 -61 q 239 -102 229 -159 q 219 -217 219 -279 l 219 -279 q 219 -426 266 -496 q 313 -566 398 -566 z m 398 -500 l 398 -500 q 347 -500 322 -447 q 297 -394 297 -278 l 297 -278 q 297 -198 308 -148 q 319 -99 342 -76 q 364 -54 397 -54 l 397 -54 q 430 -54 453 -76 q 475 -98 487 -147 q 498 -197 498 -278 l 498 -278 q 498 -357 487 -406 q 475 -455 453 -477 q 431 -500 398 -500 z"},"ഖ":{"ha":765,"x_min":37,"x_max":706,"o":"m 289 -566 l 289 -566 q 348 -566 391 -545 q 433 -525 461 -487 q 488 -450 502 -399 q 515 -349 515 -289 l 515 -289 q 515 -236 506 -192 q 496 -149 480 -114 q 463 -80 441 -52 l 441 -52 l 435 0 l 392 0 l 354 -55 q 374 -75 392 -106 q 410 -138 422 -181 q 433 -225 433 -281 l 433 -281 q 433 -352 416 -400 q 398 -448 366 -473 q 333 -498 287 -498 l 287 -498 q 234 -498 195 -464 q 155 -431 134 -373 q 112 -316 112 -243 l 112 -243 l 112 -218 q 112 -159 122 -123 q 131 -87 148 -71 q 164 -55 186 -55 l 186 -55 q 203 -55 216 -65 q 228 -76 235 -98 q 242 -120 242 -157 l 242 -157 q 242 -213 225 -236 q 208 -260 176 -260 l 176 -260 q 150 -260 129 -246 q 108 -233 85 -204 l 85 -204 l 64 -257 q 87 -283 121 -304 q 155 -326 194 -326 l 194 -326 q 234 -326 262 -308 q 290 -290 305 -253 q 320 -216 320 -160 l 320 -160 q 320 -101 305 -63 q 289 -25 260 -6 q 231 12 188 12 l 188 12 q 147 12 113 -12 q 78 -36 58 -91 q 37 -146 37 -237 l 37 -237 q 37 -348 70 -421 q 103 -494 161 -530 q 218 -566 289 -566 z m 627 -554 l 706 -554 l 706 0 l 412 0 l 435 -66 l 627 -66 l 627 -554 z"},"ഗ":{"ha":682,"x_min":36,"x_max":646,"o":"m 464 -566 l 464 -566 q 521 -566 562 -536 q 603 -506 625 -447 q 646 -389 646 -305 l 646 -305 q 646 -229 632 -171 q 617 -114 593 -70 q 569 -26 540 10 l 540 10 l 478 -42 q 500 -69 520 -104 q 539 -140 552 -188 q 564 -237 564 -301 l 564 -301 q 564 -363 552 -407 q 539 -451 517 -474 q 494 -498 463 -498 l 463 -498 q 442 -498 428 -491 q 414 -485 405 -473 l 405 -473 q 390 -452 386 -420 q 381 -389 381 -334 l 381 -334 l 381 -194 q 381 -157 377 -127 q 373 -97 364 -73 q 354 -50 335 -31 l 335 -31 q 314 -10 286 1 q 258 12 218 12 l 218 12 q 161 12 120 -18 q 79 -49 58 -107 q 36 -165 36 -249 l 36 -249 q 36 -326 51 -383 q 65 -441 90 -485 q 114 -530 143 -566 l 143 -566 l 205 -514 q 183 -488 163 -451 q 143 -415 131 -366 q 118 -317 118 -253 l 118 -253 q 118 -192 131 -147 q 143 -103 166 -79 q 189 -56 219 -56 l 219 -56 q 240 -56 254 -62 q 268 -69 277 -81 l 277 -81 q 292 -102 297 -137 q 301 -172 301 -237 l 301 -237 l 301 -360 q 301 -416 310 -455 q 319 -495 347 -523 l 347 -523 q 368 -544 396 -555 q 424 -566 464 -566 z"},"ഘ":{"ha":1009,"x_min":31,"x_max":950,"o":"m 183 -566 l 183 -566 q 236 -566 270 -542 q 303 -519 319 -481 q 335 -443 335 -400 l 335 -400 q 335 -357 323 -326 q 311 -295 300 -281 l 300 -281 l 288 -290 l 442 -290 l 448 -224 l 255 -224 l 223 -276 q 237 -297 248 -324 q 258 -352 258 -392 l 258 -392 q 258 -442 239 -471 q 220 -500 184 -500 l 184 -500 q 161 -500 144 -487 q 126 -474 117 -451 q 108 -428 108 -396 l 108 -396 q 108 -354 120 -323 q 132 -292 154 -261 l 154 -261 l 98 -217 q 70 -252 51 -296 q 31 -340 31 -395 l 31 -395 q 31 -448 50 -486 q 69 -525 104 -545 q 138 -566 183 -566 z m 871 -554 l 950 -554 l 950 0 l 406 0 l 406 -331 q 406 -402 418 -441 q 430 -481 452 -508 l 452 -508 q 475 -537 509 -551 q 542 -566 587 -566 l 587 -566 q 632 -566 666 -552 q 699 -539 721 -512 l 721 -512 q 746 -483 757 -442 q 767 -402 767 -341 l 767 -341 l 767 -224 l 485 -224 l 485 -66 l 871 -66 l 871 -554 z m 586 -500 l 586 -500 q 533 -500 509 -459 q 485 -418 485 -330 l 485 -330 l 485 -290 l 688 -290 l 688 -331 q 688 -420 664 -460 q 639 -500 586 -500 z"},"ങ":{"ha":808,"x_min":38,"x_max":775,"o":"m 277 -566 l 277 -566 q 339 -566 378 -541 q 416 -517 445 -467 l 445 -467 l 460 -417 l 472 -264 l 472 0 l 393 0 l 393 -326 q 393 -380 387 -412 q 380 -444 362 -465 l 362 -465 q 349 -480 329 -489 q 308 -498 279 -498 l 279 -498 q 228 -498 191 -466 q 154 -434 134 -378 q 113 -322 113 -251 l 113 -251 l 113 -222 q 113 -161 123 -124 q 132 -87 149 -71 q 165 -55 187 -55 l 187 -55 q 204 -55 217 -65 q 229 -76 236 -98 q 243 -120 243 -157 l 243 -157 q 243 -213 226 -236 q 209 -260 177 -260 l 177 -260 q 151 -260 130 -246 q 109 -233 86 -204 l 86 -204 l 65 -257 q 88 -283 122 -304 q 156 -326 195 -326 l 195 -326 q 235 -326 263 -308 q 291 -290 306 -253 q 321 -216 321 -160 l 321 -160 q 321 -101 306 -63 q 290 -25 261 -6 q 231 12 188 12 l 188 12 q 147 12 113 -12 q 79 -37 59 -92 q 38 -148 38 -241 l 38 -241 q 38 -352 70 -424 q 101 -496 155 -531 q 209 -566 277 -566 z m 610 -566 l 610 -566 q 663 -566 699 -545 q 734 -525 752 -490 q 770 -455 770 -413 l 770 -413 q 770 -381 761 -355 q 752 -329 732 -309 q 711 -289 677 -275 l 677 -275 l 674 -280 q 720 -268 748 -229 q 775 -190 775 -141 l 775 -141 q 775 -69 737 -29 q 698 11 633 11 l 633 11 q 613 11 592 8 q 571 5 557 1 l 557 1 l 572 -62 q 584 -58 597 -56 q 609 -55 619 -55 l 619 -55 q 651 -55 673 -73 q 694 -92 694 -140 l 694 -140 q 694 -163 688 -182 q 681 -201 668 -214 l 668 -214 q 654 -229 632 -236 q 610 -244 581 -244 l 581 -244 l 576 -244 l 576 -310 l 584 -310 q 613 -310 633 -316 q 653 -323 667 -338 l 667 -338 q 678 -349 684 -366 q 689 -383 689 -406 l 689 -406 q 689 -453 665 -475 q 640 -498 605 -498 l 605 -498 q 582 -498 562 -491 q 542 -485 525 -470 l 525 -470 q 508 -455 496 -433 q 484 -411 478 -379 q 472 -347 472 -301 l 472 -301 l 472 -204 l 427 -205 l 414 -296 l 418 -428 q 433 -466 459 -497 q 484 -528 522 -547 q 560 -566 610 -566 z"},"ച":{"ha":710,"x_min":16,"x_max":651,"o":"m 572 -554 l 651 -554 l 651 0 l 16 0 l 16 -66 l 317 -66 l 272 -50 q 296 -73 315 -110 q 334 -147 334 -198 l 334 -198 q 334 -244 316 -271 q 298 -299 264 -299 l 264 -299 q 231 -299 212 -274 q 193 -249 193 -200 l 193 -200 q 193 -190 195 -177 q 196 -164 197 -157 l 197 -157 l 121 -147 q 119 -157 117 -172 q 114 -188 114 -206 l 114 -206 q 114 -281 155 -323 q 196 -365 263 -365 l 263 -365 q 305 -365 333 -351 q 361 -338 379 -314 q 396 -291 404 -261 q 411 -232 411 -201 l 411 -201 q 411 -166 404 -138 q 396 -110 383 -87 q 370 -65 355 -46 l 355 -46 l 337 -66 l 572 -66 l 572 -554 z"},"ഛ":{"ha":1018,"x_min":16,"x_max":982,"o":"m 263 -365 l 263 -365 q 305 -365 333 -351 q 361 -338 379 -314 q 396 -291 404 -261 q 411 -232 411 -201 l 411 -201 q 411 -166 404 -138 q 396 -110 383 -87 q 370 -65 355 -46 l 355 -46 l 337 -66 l 572 -66 l 599 0 l 16 0 l 16 -66 l 317 -66 l 272 -50 q 296 -73 315 -110 q 334 -147 334 -198 l 334 -198 q 334 -244 316 -271 q 298 -299 264 -299 l 264 -299 q 231 -299 212 -274 q 193 -249 193 -200 l 193 -200 q 193 -190 195 -177 q 196 -164 197 -157 l 197 -157 l 121 -147 q 119 -157 117 -172 q 114 -188 114 -206 l 114 -206 q 114 -281 155 -323 q 196 -365 263 -365 z m 728 -566 l 728 -566 q 792 -566 840 -543 q 887 -520 919 -477 q 950 -434 966 -374 q 982 -315 982 -242 l 982 -242 q 982 -147 962 -91 q 941 -35 905 -11 q 869 12 822 12 l 822 12 q 771 12 739 -15 q 706 -43 690 -91 q 674 -139 674 -199 l 674 -199 q 674 -298 711 -350 q 748 -402 813 -402 l 813 -402 q 848 -402 872 -387 q 896 -372 916 -342 q 935 -312 954 -266 l 954 -266 l 927 -249 q 921 -266 909 -286 q 896 -307 877 -322 q 857 -337 831 -337 l 831 -337 q 790 -337 771 -300 q 752 -263 752 -198 l 752 -198 q 752 -152 760 -119 q 767 -87 783 -70 q 799 -53 823 -53 l 823 -53 q 849 -53 868 -72 q 886 -92 896 -135 q 906 -178 906 -248 l 906 -248 q 906 -250 905 -270 q 903 -290 901 -310 l 901 -310 q 900 -315 901 -323 q 901 -331 899 -335 l 899 -335 q 893 -378 873 -415 q 852 -452 817 -475 q 782 -498 733 -498 l 733 -498 q 681 -498 644 -471 q 607 -445 588 -396 q 568 -348 568 -281 l 568 -281 q 568 -233 578 -191 q 587 -150 605 -116 q 623 -82 647 -55 l 647 -55 l 607 0 l 568 0 l 559 -54 q 537 -82 521 -117 q 504 -152 495 -195 q 486 -238 486 -288 l 486 -288 q 486 -345 501 -395 q 516 -446 546 -484 q 576 -522 622 -544 q 667 -566 728 -566 z"},"ജ":{"ha":712,"x_min":31,"x_max":674,"o":"m 230 -566 l 230 -566 q 273 -566 303 -555 q 333 -544 355 -524 q 377 -504 397 -475 l 397 -475 l 366 -466 q 395 -522 432 -544 q 468 -566 514 -566 l 514 -566 q 570 -566 605 -539 q 640 -513 657 -470 q 674 -427 674 -378 l 674 -378 q 674 -332 661 -298 q 648 -265 625 -242 q 601 -219 570 -204 l 570 -204 l 515 -192 l 460 -179 q 437 -175 402 -171 q 366 -168 325 -168 l 325 -168 l 226 -168 q 183 -168 165 -164 q 147 -161 136 -155 l 136 -155 q 123 -148 117 -137 q 110 -126 110 -111 l 110 -111 q 110 -93 118 -80 q 125 -67 139 -60 q 153 -53 170 -53 l 170 -53 q 192 -53 211 -57 q 229 -62 255 -76 q 281 -91 324 -120 l 324 -120 q 342 -132 357 -141 q 371 -150 383 -157 q 394 -164 405 -169 q 416 -175 427 -180 l 427 -180 q 438 -185 454 -193 q 470 -201 488 -209 q 506 -217 523 -222 q 539 -228 550 -228 l 550 -228 q 578 -228 602 -217 q 626 -207 642 -181 q 657 -156 657 -110 l 657 -110 q 657 -55 627 -21 q 596 12 542 12 l 542 12 q 499 12 474 -6 q 449 -25 439 -53 q 428 -82 428 -113 l 428 -113 q 428 -148 439 -173 q 449 -198 476 -217 l 476 -217 l 526 -215 q 517 -204 509 -189 q 501 -175 496 -157 q 491 -140 491 -116 l 491 -116 q 491 -79 504 -63 q 517 -47 538 -47 l 538 -47 q 566 -47 577 -66 q 587 -86 587 -114 l 587 -114 q 587 -135 582 -149 q 576 -164 565 -171 q 554 -179 537 -179 l 537 -179 q 520 -179 505 -169 q 489 -159 469 -142 l 469 -142 l 456 -148 q 446 -138 432 -125 q 418 -113 402 -99 q 385 -86 365 -71 l 365 -71 q 324 -41 292 -22 q 259 -4 230 4 q 200 12 167 12 l 167 12 q 130 12 99 0 q 68 -13 50 -39 q 31 -66 31 -108 l 31 -108 q 31 -142 44 -167 q 57 -192 84 -208 l 84 -208 q 104 -219 131 -225 q 157 -231 213 -231 l 213 -231 l 402 -231 q 434 -231 461 -233 q 488 -236 510 -243 q 532 -250 549 -263 l 549 -263 q 570 -280 582 -307 q 594 -334 594 -374 l 594 -374 q 594 -405 586 -434 q 578 -463 559 -482 q 540 -501 507 -501 l 507 -501 q 487 -501 475 -495 q 462 -490 453 -481 l 453 -481 q 433 -460 427 -422 q 421 -384 421 -337 l 421 -337 l 421 -261 l 346 -261 l 346 -332 q 346 -377 341 -411 q 335 -445 315 -469 l 315 -469 q 302 -485 281 -493 q 259 -502 227 -502 l 227 -502 q 192 -502 163 -490 q 134 -479 117 -456 l 117 -456 q 114 -452 114 -445 q 114 -439 112 -434 l 112 -434 q 107 -423 105 -408 q 103 -394 103 -377 l 103 -377 q 103 -333 117 -315 q 131 -297 153 -297 l 153 -297 q 171 -297 181 -307 q 191 -318 195 -334 q 199 -351 199 -368 l 199 -368 q 199 -402 187 -417 q 175 -432 150 -432 l 150 -432 q 128 -432 109 -420 q 89 -408 77 -393 l 77 -393 l 64 -424 q 84 -450 112 -464 q 139 -479 171 -479 l 171 -479 q 203 -479 225 -465 q 246 -452 258 -426 q 269 -401 269 -365 l 269 -365 q 269 -328 257 -299 q 245 -271 220 -255 q 195 -240 155 -240 l 155 -240 q 101 -240 70 -276 q 39 -313 39 -383 l 39 -383 q 39 -436 62 -477 q 84 -518 127 -542 q 169 -566 230 -566 z"},"ഝ":{"ha":1252,"x_min":36,"x_max":1216,"o":"m 516 -566 l 516 -566 q 558 -566 589 -554 q 620 -543 642 -523 l 642 -523 q 681 -488 694 -436 q 706 -384 706 -311 l 706 -311 l 706 -202 q 706 -159 711 -129 q 715 -100 730 -80 l 730 -80 q 739 -69 753 -62 q 767 -56 787 -56 l 787 -56 q 807 -56 822 -64 q 837 -72 846 -87 l 846 -87 q 858 -107 862 -137 q 866 -167 866 -223 l 866 -223 l 866 -554 l 945 -554 l 945 -221 q 945 -163 953 -129 q 960 -96 976 -79 l 976 -79 q 987 -67 1001 -61 q 1014 -56 1030 -56 l 1030 -56 q 1061 -56 1085 -81 q 1108 -107 1121 -151 q 1134 -196 1134 -253 l 1134 -253 q 1134 -316 1122 -364 q 1109 -412 1089 -448 q 1069 -484 1047 -510 l 1047 -510 l 1109 -562 q 1138 -526 1163 -482 q 1187 -439 1202 -382 q 1216 -326 1216 -249 l 1216 -249 q 1216 -173 1195 -114 q 1173 -55 1132 -21 q 1091 12 1032 12 l 1032 12 q 988 12 957 -8 q 926 -29 900 -75 l 900 -75 l 911 -74 q 898 -48 881 -28 q 863 -9 839 2 q 815 12 781 12 l 781 12 q 745 12 719 2 q 693 -9 674 -28 l 674 -28 q 658 -45 648 -65 q 637 -86 632 -117 q 627 -148 627 -194 l 627 -194 l 627 -307 q 627 -349 624 -378 q 620 -408 612 -429 q 604 -450 592 -464 l 592 -464 q 578 -481 556 -491 q 534 -501 502 -501 l 502 -501 q 485 -501 468 -497 q 450 -493 433 -483 l 433 -483 l 414 -468 q 383 -450 361 -412 q 338 -375 326 -323 q 313 -272 313 -211 l 313 -211 q 313 -147 324 -113 q 334 -79 351 -66 q 368 -54 388 -54 l 388 -54 q 409 -54 426 -66 q 443 -79 453 -113 q 463 -147 463 -211 l 463 -211 q 463 -273 450 -325 q 437 -377 414 -415 q 391 -453 360 -473 l 360 -473 l 345 -483 q 330 -493 314 -497 q 297 -501 280 -501 l 280 -501 q 229 -501 193 -473 q 156 -446 137 -397 q 118 -348 118 -281 l 118 -281 q 118 -224 129 -180 q 140 -137 160 -104 q 180 -72 206 -47 l 206 -47 l 150 8 q 119 -21 93 -62 q 67 -104 52 -160 q 36 -216 36 -288 l 36 -288 q 36 -345 51 -395 q 65 -446 94 -484 q 123 -523 167 -544 q 211 -566 271 -566 l 271 -566 q 309 -566 340 -556 q 371 -546 400 -523 l 400 -523 l 420 -505 q 475 -465 510 -393 q 544 -321 544 -212 l 544 -212 q 544 -139 526 -89 q 508 -39 473 -13 q 438 12 387 12 l 387 12 q 337 12 303 -14 q 268 -41 250 -91 q 232 -142 232 -212 l 232 -212 q 232 -283 247 -338 q 262 -394 290 -435 q 318 -477 356 -505 l 356 -505 l 374 -522 q 402 -544 439 -555 q 475 -566 516 -566 z"},"ഞ":{"ha":1100,"x_min":38,"x_max":1064,"o":"m 277 -566 l 277 -566 q 339 -566 378 -541 q 416 -517 445 -467 l 445 -467 l 460 -417 l 472 -264 l 472 0 l 393 0 l 393 -326 q 393 -380 387 -412 q 380 -444 362 -465 l 362 -465 q 349 -480 329 -489 q 308 -498 279 -498 l 279 -498 q 228 -498 191 -466 q 154 -434 134 -378 q 113 -322 113 -251 l 113 -251 l 113 -222 q 113 -161 123 -124 q 132 -87 149 -71 q 165 -55 187 -55 l 187 -55 q 204 -55 217 -65 q 229 -76 236 -98 q 243 -120 243 -157 l 243 -157 q 243 -213 226 -236 q 209 -260 177 -260 l 177 -260 q 151 -260 130 -246 q 109 -233 86 -204 l 86 -204 l 65 -257 q 88 -283 122 -304 q 156 -326 195 -326 l 195 -326 q 235 -326 263 -308 q 291 -290 306 -253 q 321 -216 321 -160 l 321 -160 q 321 -101 306 -63 q 290 -25 261 -6 q 231 12 188 12 l 188 12 q 147 12 113 -12 q 79 -37 59 -92 q 38 -148 38 -241 l 38 -241 q 38 -352 70 -424 q 101 -496 155 -531 q 209 -566 277 -566 z m 589 -566 l 589 -566 q 628 -566 661 -555 q 694 -545 723 -523 l 723 -523 l 743 -505 q 798 -465 833 -393 q 867 -321 867 -212 l 867 -212 q 867 -139 849 -89 q 831 -39 796 -13 q 761 12 710 12 l 710 12 q 660 12 626 -14 q 591 -41 573 -91 q 555 -142 555 -212 l 555 -212 q 555 -283 571 -338 q 586 -393 614 -434 q 642 -476 680 -504 l 680 -504 l 698 -521 q 727 -544 762 -555 q 797 -566 837 -566 l 837 -566 q 895 -566 938 -544 q 980 -523 1008 -484 q 1036 -445 1050 -393 q 1064 -341 1064 -281 l 1064 -281 q 1064 -214 1050 -161 q 1035 -108 1010 -67 q 984 -26 950 8 l 950 8 l 894 -47 q 917 -69 937 -100 q 957 -132 970 -176 q 982 -220 982 -276 l 982 -276 q 982 -340 965 -390 q 948 -441 914 -471 q 880 -501 830 -501 l 830 -501 q 809 -501 792 -496 q 774 -492 757 -482 l 757 -482 l 738 -467 q 707 -449 684 -411 q 661 -374 649 -323 q 636 -272 636 -211 l 636 -211 q 636 -147 647 -113 q 657 -79 674 -66 q 691 -54 711 -54 l 711 -54 q 732 -54 749 -66 q 766 -79 776 -113 q 786 -147 786 -211 l 786 -211 q 786 -273 773 -325 q 760 -377 737 -415 q 714 -453 683 -473 l 683 -473 l 668 -482 q 658 -489 647 -493 q 636 -497 623 -499 q 610 -501 593 -501 l 593 -501 q 562 -501 541 -491 q 519 -482 505 -465 l 505 -465 q 486 -441 479 -407 q 472 -373 472 -319 l 472 -319 l 472 -32 l 400 -32 l 400 -240 l 416 -451 q 433 -486 456 -512 q 478 -538 511 -552 q 543 -566 589 -566 z"},"ട":{"ha":426,"x_min":16,"x_max":404,"o":"m 223 -566 l 223 -566 q 273 -566 315 -556 q 357 -546 404 -525 l 404 -525 l 365 -462 q 327 -480 295 -489 q 263 -498 225 -498 l 225 -498 q 179 -498 153 -483 q 127 -469 117 -447 q 107 -425 107 -404 l 107 -404 q 107 -379 113 -363 q 119 -347 131 -336 l 131 -336 q 145 -324 166 -319 q 186 -315 212 -315 l 212 -315 l 217 -315 q 261 -315 297 -304 q 332 -293 357 -268 l 357 -268 q 376 -249 387 -222 q 397 -196 397 -159 l 397 -159 q 397 -108 374 -69 q 351 -31 307 -9 q 263 12 200 12 l 200 12 q 154 12 104 1 q 53 -11 16 -30 l 16 -30 l 55 -93 q 79 -80 102 -72 q 124 -64 148 -60 q 171 -56 199 -56 l 199 -56 q 244 -56 270 -70 q 296 -85 307 -107 q 317 -130 317 -154 l 317 -154 q 317 -177 311 -195 q 305 -213 292 -224 l 292 -224 q 278 -236 262 -241 q 245 -246 220 -246 l 220 -246 l 214 -246 q 170 -246 134 -255 q 98 -265 74 -285 l 74 -285 q 51 -304 39 -333 q 27 -362 27 -402 l 27 -402 q 27 -448 51 -485 q 74 -522 118 -544 q 162 -566 223 -566 z"},"ഠ":{"ha":508,"x_min":36,"x_max":472,"o":"m 257 -566 l 257 -566 q 325 -566 373 -532 q 421 -499 447 -434 q 472 -370 472 -277 l 472 -277 q 472 -185 447 -120 q 421 -55 372 -21 q 322 12 251 12 l 251 12 q 177 12 130 -25 q 82 -63 59 -129 q 36 -195 36 -279 l 36 -279 q 36 -371 62 -435 q 88 -499 138 -532 q 187 -566 257 -566 z m 253 -56 l 253 -56 q 298 -56 329 -83 q 359 -110 375 -160 q 390 -210 390 -279 l 390 -279 q 390 -349 374 -398 q 358 -447 328 -472 q 298 -498 255 -498 l 255 -498 q 192 -498 155 -442 q 118 -387 118 -279 l 118 -279 q 118 -167 154 -111 q 190 -56 253 -56 z"},"ഡ":{"ha":926,"x_min":36,"x_max":890,"o":"m 455 12 l 455 12 q 419 12 393 2 q 367 -9 348 -28 l 348 -28 q 332 -45 322 -65 q 311 -86 306 -117 q 301 -148 301 -194 l 301 -194 l 301 -317 q 301 -382 297 -417 q 292 -452 277 -473 l 277 -473 q 268 -485 255 -491 q 242 -498 219 -498 l 219 -498 q 189 -498 166 -474 q 143 -451 131 -407 q 118 -363 118 -301 l 118 -301 q 118 -237 131 -188 q 143 -139 163 -103 q 183 -67 205 -40 l 205 -40 l 143 12 q 114 -24 90 -68 q 65 -113 51 -171 q 36 -229 36 -305 l 36 -305 q 36 -386 58 -444 q 79 -503 121 -534 q 163 -566 223 -566 l 223 -566 q 259 -566 286 -555 q 313 -545 332 -526 l 332 -526 q 353 -505 363 -481 q 373 -457 377 -427 q 380 -398 380 -360 l 380 -360 l 380 -202 q 380 -159 385 -129 q 389 -100 404 -80 l 404 -80 q 413 -69 427 -62 q 441 -56 461 -56 l 461 -56 q 481 -56 496 -64 q 511 -72 520 -87 l 520 -87 q 532 -107 536 -137 q 540 -167 540 -223 l 540 -223 l 540 -554 l 619 -554 l 619 -221 q 619 -163 627 -129 q 634 -96 650 -79 l 650 -79 q 661 -67 675 -61 q 688 -56 704 -56 l 704 -56 q 735 -56 759 -81 q 782 -107 795 -151 q 808 -196 808 -253 l 808 -253 q 808 -316 796 -364 q 783 -412 763 -448 q 743 -484 721 -510 l 721 -510 l 783 -562 q 812 -526 837 -482 q 861 -439 876 -382 q 890 -326 890 -249 l 890 -249 q 890 -173 869 -114 q 847 -55 806 -21 q 765 12 706 12 l 706 12 q 662 12 631 -8 q 600 -29 574 -75 l 574 -75 l 585 -74 q 565 -34 535 -11 q 505 12 455 12 z"},"ഢ":{"ha":1012,"x_min":36,"x_max":974,"o":"m 455 12 l 455 12 q 419 12 393 2 q 367 -9 348 -28 l 348 -28 q 332 -45 322 -65 q 311 -86 306 -117 q 301 -148 301 -194 l 301 -194 l 301 -317 q 301 -382 297 -417 q 292 -452 277 -473 l 277 -473 q 268 -485 255 -491 q 242 -498 219 -498 l 219 -498 q 189 -498 166 -474 q 143 -451 131 -407 q 118 -363 118 -301 l 118 -301 q 118 -237 131 -188 q 143 -139 163 -103 q 183 -67 205 -40 l 205 -40 l 143 12 q 114 -24 90 -68 q 65 -113 51 -171 q 36 -229 36 -305 l 36 -305 q 36 -386 58 -444 q 79 -503 121 -534 q 163 -566 223 -566 l 223 -566 q 259 -566 286 -555 q 313 -545 332 -526 l 332 -526 q 353 -505 363 -481 q 373 -457 377 -427 q 380 -398 380 -360 l 380 -360 l 380 -202 q 380 -159 385 -129 q 389 -100 404 -80 l 404 -80 q 413 -69 427 -62 q 441 -56 461 -56 l 461 -56 q 481 -56 496 -64 q 511 -72 520 -87 l 520 -87 q 532 -107 536 -137 q 540 -167 540 -223 l 540 -223 l 540 -554 l 619 -554 l 619 -260 l 585 -74 q 565 -34 535 -11 q 505 12 455 12 z m 824 -566 l 824 -566 q 865 -566 899 -541 q 933 -517 954 -462 q 974 -407 974 -313 l 974 -313 q 974 -203 943 -130 q 911 -58 857 -23 q 803 12 735 12 l 735 12 q 674 12 637 -12 q 600 -36 568 -81 l 568 -81 l 560 -290 l 560 -524 l 619 -524 l 619 -228 q 619 -174 626 -142 q 632 -110 650 -89 l 650 -89 q 663 -74 684 -65 q 704 -56 733 -56 l 733 -56 q 784 -56 822 -88 q 859 -120 879 -176 q 899 -232 899 -303 l 899 -303 l 899 -332 q 899 -394 890 -430 q 880 -467 864 -483 q 847 -499 825 -499 l 825 -499 q 808 -499 796 -488 q 783 -478 776 -456 q 769 -434 769 -397 l 769 -397 q 769 -342 786 -318 q 803 -294 835 -294 l 835 -294 q 861 -294 882 -308 q 903 -322 926 -350 l 926 -350 l 947 -297 q 924 -272 890 -250 q 856 -228 817 -228 l 817 -228 q 778 -228 750 -246 q 721 -264 706 -301 q 691 -338 691 -394 l 691 -394 q 691 -453 707 -491 q 722 -529 752 -547 q 781 -566 824 -566 z"},"ണ":{"ha":1030,"x_min":38,"x_max":994,"o":"m 277 -566 l 277 -566 q 339 -566 376 -542 q 413 -518 444 -473 l 444 -473 l 421 -472 q 447 -521 479 -543 q 511 -566 558 -566 l 558 -566 q 609 -566 640 -543 q 670 -521 690 -481 l 690 -481 l 678 -479 q 704 -526 735 -546 q 766 -566 810 -566 l 810 -566 q 869 -566 910 -532 q 951 -499 973 -440 q 994 -382 994 -305 l 994 -305 q 994 -229 980 -172 q 965 -115 941 -71 q 916 -28 887 8 l 887 8 l 825 -44 q 847 -71 867 -106 q 887 -142 900 -190 q 912 -238 912 -301 l 912 -301 q 912 -358 899 -402 q 886 -447 863 -472 q 839 -498 808 -498 l 808 -498 q 792 -498 779 -492 q 765 -487 754 -475 l 754 -475 q 738 -458 731 -425 q 723 -392 723 -333 l 723 -333 l 723 0 l 644 0 l 644 -330 q 644 -389 640 -418 q 636 -447 624 -466 l 624 -466 q 615 -481 600 -489 q 584 -498 558 -498 l 558 -498 q 533 -498 519 -489 q 505 -480 495 -466 l 495 -466 q 479 -442 476 -411 q 472 -381 472 -328 l 472 -328 l 472 0 l 393 0 l 393 -326 q 393 -380 387 -412 q 380 -444 362 -465 l 362 -465 q 349 -480 329 -489 q 308 -498 279 -498 l 279 -498 q 228 -498 191 -466 q 154 -435 134 -379 q 113 -323 113 -251 l 113 -251 l 113 -222 q 113 -161 123 -124 q 132 -87 149 -71 q 165 -55 187 -55 l 187 -55 q 204 -55 217 -65 q 229 -76 236 -98 q 243 -120 243 -157 l 243 -157 q 243 -213 226 -236 q 209 -260 177 -260 l 177 -260 q 151 -260 130 -246 q 109 -233 86 -204 l 86 -204 l 65 -257 q 88 -283 122 -304 q 156 -326 195 -326 l 195 -326 q 235 -326 263 -308 q 291 -290 306 -253 q 321 -216 321 -160 l 321 -160 q 321 -101 306 -63 q 290 -25 261 -6 q 231 12 188 12 l 188 12 q 147 12 113 -12 q 79 -37 59 -92 q 38 -148 38 -241 l 38 -241 q 38 -352 70 -424 q 101 -496 155 -531 q 209 -566 277 -566 z"},"ത":{"ha":777,"x_min":36,"x_max":741,"o":"m 387 12 l 387 12 q 337 12 303 -14 q 268 -41 250 -91 q 232 -142 232 -212 l 232 -212 q 232 -283 248 -338 q 263 -393 291 -434 q 319 -476 357 -504 l 357 -504 l 375 -521 q 404 -544 439 -555 q 474 -566 514 -566 l 514 -566 q 572 -566 615 -544 q 657 -523 685 -484 q 713 -445 727 -393 q 741 -341 741 -281 l 741 -281 q 741 -214 727 -161 q 712 -108 687 -67 q 661 -26 627 8 l 627 8 l 571 -47 q 594 -69 614 -100 q 634 -132 647 -176 q 659 -220 659 -276 l 659 -276 q 659 -340 642 -390 q 625 -441 591 -471 q 557 -501 507 -501 l 507 -501 q 486 -501 469 -496 q 451 -492 434 -482 l 434 -482 l 415 -467 q 384 -449 361 -411 q 338 -374 326 -323 q 313 -272 313 -211 l 313 -211 q 313 -147 324 -113 q 334 -79 351 -66 q 368 -54 388 -54 l 388 -54 q 409 -54 426 -66 q 443 -79 453 -113 q 463 -147 463 -211 l 463 -211 q 463 -273 450 -325 q 437 -377 414 -415 q 391 -453 360 -473 l 360 -473 l 345 -483 q 330 -493 314 -497 q 297 -501 280 -501 l 280 -501 q 229 -501 193 -473 q 156 -446 137 -397 q 118 -348 118 -281 l 118 -281 q 118 -224 129 -180 q 140 -137 160 -104 q 180 -72 206 -47 l 206 -47 l 150 8 q 119 -21 93 -62 q 67 -104 52 -160 q 36 -216 36 -288 l 36 -288 q 36 -345 51 -395 q 65 -446 94 -484 q 123 -523 167 -544 q 211 -566 271 -566 l 271 -566 q 309 -566 340 -556 q 371 -546 400 -523 l 400 -523 l 420 -505 q 475 -465 510 -393 q 544 -321 544 -212 l 544 -212 q 544 -139 526 -89 q 508 -39 473 -13 q 438 12 387 12 z"},"ഥ":{"ha":688,"x_min":59,"x_max":634,"o":"m 59 -554 l 138 -554 l 138 -66 l 300 -66 l 300 0 l 59 0 l 59 -554 z m 448 -566 l 448 -566 q 494 -566 526 -553 q 558 -541 580 -519 l 580 -519 q 613 -486 624 -438 q 634 -391 634 -328 l 634 -328 l 634 0 l 261 0 l 261 -329 q 261 -371 266 -405 q 270 -440 282 -468 q 293 -497 315 -519 l 315 -519 q 337 -541 370 -553 q 402 -566 448 -566 z m 448 -498 l 448 -498 q 420 -498 401 -489 q 382 -481 370 -466 l 370 -466 q 353 -444 347 -408 q 340 -373 340 -317 l 340 -317 l 340 -66 l 555 -66 l 555 -317 q 555 -373 549 -408 q 542 -444 525 -466 l 525 -466 q 513 -481 494 -489 q 475 -498 448 -498 z"},"ദ":{"ha":495,"x_min":44,"x_max":462,"o":"m 295 -566 l 295 -566 q 348 -566 384 -546 q 420 -526 439 -491 q 457 -457 457 -413 l 457 -413 q 457 -365 436 -330 q 415 -296 364 -275 l 364 -275 l 362 -280 q 407 -268 435 -229 q 462 -191 462 -141 l 462 -141 q 462 -70 423 -29 q 384 11 313 11 l 313 11 q 287 11 265 8 q 242 5 227 1 l 227 1 l 244 -63 q 258 -59 272 -57 q 286 -55 299 -55 l 299 -55 q 343 -55 362 -77 q 381 -99 381 -140 l 381 -140 q 381 -163 375 -182 q 368 -201 355 -214 l 355 -214 q 341 -229 319 -236 q 296 -244 255 -244 l 255 -244 l 247 -244 l 247 -310 l 255 -310 q 298 -310 319 -316 q 340 -323 354 -338 l 354 -338 q 365 -349 371 -366 q 376 -383 376 -406 l 376 -406 q 376 -451 353 -474 q 330 -498 291 -498 l 291 -498 q 242 -498 205 -466 q 167 -434 146 -373 q 124 -313 124 -229 l 124 -229 q 124 -173 131 -115 q 137 -57 147 -10 l 147 -10 l 70 4 q 59 -45 52 -106 q 44 -168 44 -225 l 44 -225 q 44 -332 74 -408 q 104 -484 161 -525 q 217 -566 295 -566 z"},"ധ":{"ha":693,"x_min":36,"x_max":657,"o":"m 470 12 l 470 12 q 437 12 413 0 q 388 -13 371 -33 q 353 -54 339 -77 l 339 -77 l 352 -75 q 326 -29 295 -8 q 264 12 220 12 l 220 12 q 161 12 120 -21 q 79 -55 58 -114 q 36 -173 36 -249 l 36 -249 q 36 -326 51 -382 q 65 -439 90 -482 q 114 -526 143 -562 l 143 -562 l 205 -510 q 183 -484 163 -448 q 143 -413 131 -365 q 118 -317 118 -253 l 118 -253 q 118 -196 131 -151 q 144 -107 168 -81 q 191 -56 222 -56 l 222 -56 q 239 -56 253 -61 q 266 -67 276 -79 l 276 -79 q 292 -96 300 -129 q 307 -163 307 -221 l 307 -221 l 307 -554 l 386 -554 l 386 -228 q 386 -164 393 -131 q 400 -99 416 -80 l 416 -80 q 426 -69 439 -62 q 452 -56 468 -56 l 468 -56 q 498 -56 523 -80 q 547 -104 561 -149 q 575 -195 575 -257 l 575 -257 q 575 -320 563 -367 q 550 -414 531 -449 q 511 -484 489 -510 l 489 -510 l 551 -562 q 580 -526 604 -483 q 628 -440 643 -384 q 657 -328 657 -253 l 657 -253 q 657 -173 635 -113 q 613 -54 571 -21 q 529 12 470 12 z"},"ന":{"ha":693,"x_min":36,"x_max":657,"o":"m 223 -566 l 223 -566 q 257 -566 281 -553 q 305 -541 323 -521 q 341 -501 354 -477 l 354 -477 l 341 -479 q 367 -526 398 -546 q 429 -566 473 -566 l 473 -566 q 532 -566 573 -532 q 614 -499 636 -440 q 657 -382 657 -305 l 657 -305 q 657 -229 643 -172 q 628 -115 604 -71 q 579 -28 550 8 l 550 8 l 488 -44 q 510 -71 530 -106 q 550 -141 563 -189 q 575 -237 575 -301 l 575 -301 q 575 -358 562 -402 q 549 -447 526 -472 q 502 -498 471 -498 l 471 -498 q 455 -498 442 -492 q 428 -487 417 -475 l 417 -475 q 401 -458 394 -425 q 386 -392 386 -333 l 386 -333 l 386 0 l 307 0 l 307 -326 q 307 -390 300 -422 q 293 -455 277 -474 l 277 -474 q 267 -485 255 -491 q 242 -498 225 -498 l 225 -498 q 195 -498 171 -474 q 147 -450 133 -405 q 118 -360 118 -297 l 118 -297 q 118 -235 131 -188 q 143 -141 163 -106 q 182 -71 204 -44 l 204 -44 l 142 8 q 113 -28 89 -71 q 65 -114 51 -170 q 36 -227 36 -301 l 36 -301 q 36 -381 58 -440 q 80 -500 122 -533 q 164 -566 223 -566 z"},"ഩ":{"ha":779,"x_min":38,"x_max":743,"o":"m 277 -566 l 277 -566 q 339 -566 376 -542 q 413 -518 444 -473 l 444 -473 l 424 -478 q 450 -525 483 -545 q 515 -566 559 -566 l 559 -566 q 618 -566 659 -532 q 700 -499 722 -440 q 743 -382 743 -305 l 743 -305 q 743 -229 729 -172 q 714 -115 690 -71 q 665 -28 636 8 l 636 8 l 574 -44 q 596 -71 616 -106 q 636 -141 649 -189 q 661 -237 661 -301 l 661 -301 q 661 -358 648 -402 q 635 -447 612 -472 q 588 -498 557 -498 l 557 -498 q 541 -498 528 -492 q 514 -487 503 -475 l 503 -475 q 487 -458 480 -425 q 472 -392 472 -333 l 472 -333 l 472 0 l 393 0 l 393 -326 q 393 -380 387 -412 q 380 -444 362 -465 l 362 -465 q 349 -480 329 -489 q 308 -498 279 -498 l 279 -498 q 228 -498 191 -466 q 154 -434 134 -378 q 113 -322 113 -251 l 113 -251 l 113 -222 q 113 -161 123 -124 q 132 -87 149 -71 q 165 -55 187 -55 l 187 -55 q 204 -55 217 -65 q 229 -76 236 -98 q 243 -120 243 -157 l 243 -157 q 243 -213 226 -236 q 209 -260 177 -260 l 177 -260 q 151 -260 130 -246 q 109 -233 86 -204 l 86 -204 l 65 -257 q 88 -283 122 -304 q 156 -326 195 -326 l 195 -326 q 235 -326 263 -308 q 291 -290 306 -253 q 321 -216 321 -160 l 321 -160 q 321 -101 306 -63 q 290 -25 261 -6 q 231 12 188 12 l 188 12 q 147 12 113 -12 q 79 -37 59 -92 q 38 -148 38 -241 l 38 -241 q 38 -352 70 -424 q 101 -496 155 -531 q 209 -566 277 -566 z"},"പ":{"ha":682,"x_min":31,"x_max":623,"o":"m 183 -346 l 183 -346 q 236 -346 270 -322 q 303 -298 319 -260 q 335 -222 335 -178 l 335 -178 q 335 -134 322 -102 q 309 -71 298 -57 l 298 -57 l 286 -66 l 544 -66 l 544 -554 l 623 -554 l 623 0 l 253 0 l 221 -52 q 235 -74 247 -102 q 258 -130 258 -170 l 258 -170 q 258 -221 239 -250 q 220 -280 184 -280 l 184 -280 q 161 -280 144 -267 q 126 -254 117 -230 q 108 -206 108 -174 l 108 -174 q 108 -131 122 -100 q 135 -69 157 -37 l 157 -37 l 101 7 q 73 -28 52 -72 q 31 -117 31 -173 l 31 -173 q 31 -227 50 -265 q 69 -304 104 -325 q 138 -346 183 -346 z"},"ഫ":{"ha":860,"x_min":31,"x_max":806,"o":"m 183 -346 l 183 -346 q 236 -346 270 -322 q 303 -298 319 -260 q 335 -222 335 -178 l 335 -178 q 335 -134 322 -102 q 309 -71 298 -57 l 298 -57 l 286 -66 l 468 -66 l 468 0 l 253 0 l 221 -52 q 235 -74 247 -102 q 258 -130 258 -170 l 258 -170 q 258 -221 239 -250 q 220 -280 184 -280 l 184 -280 q 161 -280 144 -267 q 126 -254 117 -230 q 108 -206 108 -174 l 108 -174 q 108 -131 122 -100 q 135 -69 157 -37 l 157 -37 l 101 7 q 73 -28 52 -72 q 31 -117 31 -173 l 31 -173 q 31 -227 50 -265 q 69 -304 104 -325 q 138 -346 183 -346 z m 620 -566 l 620 -566 q 666 -566 698 -553 q 730 -541 752 -519 l 752 -519 q 785 -486 796 -438 q 806 -391 806 -328 l 806 -328 l 806 0 l 433 0 l 433 -329 q 433 -371 438 -405 q 442 -440 454 -468 q 465 -497 487 -519 l 487 -519 q 509 -541 542 -553 q 574 -566 620 -566 z m 620 -498 l 620 -498 q 592 -498 573 -489 q 554 -481 542 -466 l 542 -466 q 525 -444 519 -408 q 512 -373 512 -317 l 512 -317 l 512 -66 l 727 -66 l 727 -317 q 727 -373 721 -408 q 714 -444 697 -466 l 697 -466 q 685 -481 666 -489 q 647 -498 620 -498 z"},"ബ":{"ha":993,"x_min":38,"x_max":934,"o":"m 277 -566 l 277 -566 q 339 -566 376 -542 q 413 -518 444 -473 l 444 -473 l 460 -417 l 472 -264 l 472 0 l 393 0 l 393 -326 q 393 -380 387 -412 q 380 -444 362 -465 l 362 -465 q 349 -480 329 -489 q 308 -498 279 -498 l 279 -498 q 228 -498 191 -466 q 154 -434 134 -378 q 113 -322 113 -251 l 113 -251 l 113 -222 q 113 -161 123 -124 q 132 -87 149 -71 q 165 -55 187 -55 l 187 -55 q 204 -55 217 -65 q 229 -76 236 -98 q 243 -120 243 -157 l 243 -157 q 243 -213 226 -236 q 209 -260 177 -260 l 177 -260 q 151 -260 130 -246 q 109 -233 86 -204 l 86 -204 l 65 -257 q 88 -283 122 -304 q 156 -326 195 -326 l 195 -326 q 235 -326 263 -308 q 291 -290 306 -253 q 321 -216 321 -160 l 321 -160 q 321 -101 306 -63 q 290 -25 261 -6 q 231 12 188 12 l 188 12 q 147 12 113 -12 q 79 -37 59 -92 q 38 -148 38 -241 l 38 -241 q 38 -352 70 -424 q 101 -496 155 -531 q 209 -566 277 -566 z m 855 -554 l 934 -554 l 934 0 l 616 0 l 581 -44 q 602 -75 620 -110 q 638 -145 650 -191 q 661 -237 661 -301 l 661 -301 q 661 -358 648 -402 q 635 -447 612 -472 q 588 -498 557 -498 l 557 -498 q 541 -498 528 -492 q 514 -487 503 -475 l 503 -475 q 487 -458 480 -425 q 472 -392 472 -334 l 472 -334 l 472 -10 l 403 -10 l 403 -251 l 430 -422 l 424 -478 q 450 -525 483 -545 q 515 -566 559 -566 l 559 -566 q 618 -566 659 -532 q 700 -499 722 -440 q 743 -382 743 -305 l 743 -305 q 743 -246 734 -200 q 725 -154 708 -117 q 691 -80 668 -47 l 668 -47 l 669 -66 l 855 -66 l 855 -554 z"},"ഭ":{"ha":506,"x_min":44,"x_max":478,"o":"m 314 -566 l 314 -566 q 362 -566 399 -550 q 436 -534 457 -502 q 478 -471 478 -425 l 478 -425 q 478 -394 469 -372 q 459 -351 443 -338 l 443 -338 q 427 -325 404 -319 q 381 -314 349 -313 l 349 -313 l 347 -313 q 331 -313 318 -310 q 305 -307 297 -301 l 297 -301 q 291 -297 287 -289 q 283 -282 283 -271 l 283 -271 q 283 -248 299 -237 q 314 -227 348 -227 l 348 -227 l 351 -227 q 382 -227 406 -219 q 430 -211 446 -196 l 446 -196 q 461 -182 470 -161 q 478 -141 478 -115 l 478 -115 q 478 -79 463 -50 q 448 -21 414 -4 q 380 12 321 12 l 321 12 q 305 12 285 11 q 264 9 242 5 q 220 0 199 -8 l 199 -8 l 227 -74 q 254 -64 278 -60 q 302 -57 322 -57 l 322 -57 q 369 -57 386 -72 q 403 -88 403 -113 l 403 -113 q 403 -133 389 -147 q 374 -161 336 -161 l 336 -161 l 333 -161 q 301 -162 278 -169 q 255 -177 239 -193 l 239 -193 q 225 -207 217 -227 q 209 -248 209 -270 l 209 -270 q 209 -297 219 -318 q 229 -340 248 -354 l 248 -354 q 264 -365 286 -371 q 308 -378 344 -379 l 344 -379 l 345 -379 q 375 -379 389 -391 q 402 -403 402 -427 l 402 -427 q 402 -464 377 -481 q 351 -498 311 -498 l 311 -498 q 250 -498 209 -466 q 167 -434 146 -373 q 124 -313 124 -229 l 124 -229 q 124 -173 131 -115 q 137 -57 147 -10 l 147 -10 l 70 4 q 59 -45 52 -106 q 44 -168 44 -225 l 44 -225 q 44 -331 74 -407 q 104 -483 164 -524 q 224 -566 314 -566 z"},"മ":{"ha":561,"x_min":51,"x_max":510,"o":"m 275 -566 l 275 -566 q 335 -566 379 -549 q 422 -532 450 -499 l 450 -499 q 471 -475 485 -444 q 498 -414 504 -373 q 510 -333 510 -278 l 510 -278 l 510 0 l 51 0 l 51 -281 q 51 -334 58 -374 q 64 -414 77 -445 q 90 -476 110 -499 l 110 -499 q 139 -532 178 -549 q 217 -566 275 -566 z m 233 -499 l 233 -499 q 208 -499 187 -479 q 165 -460 152 -425 l 152 -425 q 141 -397 136 -358 q 130 -319 130 -260 l 130 -260 l 130 -60 l 129 -62 q 176 -113 211 -171 q 245 -229 264 -289 q 283 -350 283 -408 l 283 -408 q 283 -436 278 -456 q 273 -477 263 -488 q 252 -499 233 -499 z m 363 -397 l 363 -397 q 363 -333 344 -274 q 325 -215 290 -158 q 255 -102 208 -45 l 208 -45 l 195 -61 q 215 -63 245 -64 q 274 -66 290 -66 l 290 -66 l 431 -66 l 431 -279 q 431 -345 420 -389 q 409 -434 386 -461 q 363 -488 325 -499 l 325 -499 l 325 -505 q 343 -484 353 -457 q 363 -430 363 -397 z"},"യ":{"ha":800,"x_min":36,"x_max":761,"o":"m 514 12 l 514 12 q 477 12 444 3 q 410 -6 382 -25 l 382 -25 q 375 -30 370 -36 q 364 -43 358 -48 l 358 -48 q 321 -83 296 -130 q 271 -177 259 -233 q 246 -289 246 -351 l 246 -351 q 246 -385 255 -422 q 263 -459 279 -490 l 279 -490 l 292 -507 q 305 -525 322 -538 q 339 -552 361 -559 q 382 -566 409 -566 l 409 -566 q 484 -566 527 -509 q 569 -453 569 -346 l 569 -346 q 569 -246 538 -169 q 506 -93 448 -42 l 448 -42 q 444 -38 437 -32 q 429 -27 424 -23 l 424 -23 q 396 -5 363 4 q 329 12 290 12 l 290 12 q 229 12 182 -13 q 134 -38 102 -83 q 69 -129 53 -191 q 36 -253 36 -328 l 36 -328 q 36 -403 57 -456 q 78 -509 117 -537 q 156 -566 209 -566 l 209 -566 q 251 -566 281 -550 q 311 -534 346 -499 l 346 -499 l 288 -455 q 271 -480 253 -489 q 235 -499 215 -499 l 215 -499 q 187 -499 165 -481 q 142 -463 130 -425 q 117 -387 117 -327 l 117 -327 q 117 -242 139 -180 q 160 -119 199 -86 q 238 -53 292 -53 l 292 -53 q 318 -53 337 -56 q 355 -59 371 -68 l 371 -68 q 377 -71 383 -74 q 389 -78 394 -82 l 394 -82 q 427 -109 448 -151 q 469 -194 479 -244 q 488 -295 488 -344 l 488 -344 q 488 -404 477 -438 q 465 -472 447 -486 q 429 -500 408 -500 l 408 -500 q 383 -500 365 -483 q 346 -466 337 -431 q 327 -397 327 -346 l 327 -346 q 327 -304 336 -254 q 344 -204 364 -159 q 384 -114 416 -86 l 416 -86 q 421 -82 427 -78 q 432 -75 437 -72 l 437 -72 q 452 -63 471 -58 q 490 -53 511 -53 l 511 -53 q 571 -53 609 -83 q 646 -114 663 -169 q 680 -225 680 -298 l 680 -298 q 680 -358 665 -418 q 649 -479 619 -531 l 619 -531 l 693 -565 q 725 -510 743 -441 q 761 -373 761 -308 l 761 -308 q 761 -236 747 -177 q 733 -118 703 -75 q 673 -33 626 -10 q 579 12 514 12 z"},"ര":{"ha":568,"x_min":36,"x_max":532,"o":"m 278 -566 l 278 -566 q 342 -566 390 -543 q 437 -520 469 -477 q 500 -434 516 -374 q 532 -315 532 -242 l 532 -242 q 532 -147 512 -91 q 491 -35 455 -11 q 419 12 372 12 l 372 12 q 321 12 289 -15 q 256 -43 240 -91 q 224 -139 224 -199 l 224 -199 q 224 -298 261 -350 q 298 -402 363 -402 l 363 -402 q 398 -402 422 -387 q 446 -372 466 -342 q 485 -312 504 -266 l 504 -266 l 477 -249 q 471 -266 459 -286 q 446 -307 427 -322 q 407 -337 381 -337 l 381 -337 q 340 -337 321 -300 q 302 -263 302 -198 l 302 -198 q 302 -152 310 -119 q 317 -87 333 -70 q 349 -53 373 -53 l 373 -53 q 399 -53 418 -72 q 436 -92 446 -135 q 456 -178 456 -248 l 456 -248 q 456 -250 455 -270 q 453 -290 451 -310 l 451 -310 q 450 -315 451 -323 q 451 -331 449 -335 l 449 -335 q 443 -378 423 -415 q 402 -452 367 -475 q 332 -498 283 -498 l 283 -498 q 231 -498 194 -471 q 157 -445 138 -396 q 118 -348 118 -281 l 118 -281 q 118 -225 129 -181 q 140 -138 160 -105 q 180 -72 206 -47 l 206 -47 l 150 8 q 119 -21 93 -63 q 67 -106 52 -162 q 36 -218 36 -288 l 36 -288 q 36 -345 51 -395 q 66 -446 96 -484 q 126 -522 172 -544 q 217 -566 278 -566 z"},"റ":{"ha":519,"x_min":36,"x_max":483,"o":"m 262 -566 l 262 -566 q 319 -566 361 -545 q 402 -524 430 -486 q 457 -449 470 -398 q 483 -348 483 -289 l 483 -289 q 483 -217 469 -162 q 454 -108 429 -67 q 403 -26 369 8 l 369 8 l 313 -47 q 336 -69 356 -101 q 376 -133 389 -177 q 401 -222 401 -281 l 401 -281 q 401 -352 384 -400 q 366 -448 335 -473 q 304 -498 261 -498 l 261 -498 q 218 -498 186 -472 q 154 -446 136 -398 q 118 -350 118 -282 l 118 -282 q 118 -228 129 -184 q 140 -140 160 -106 q 180 -72 206 -47 l 206 -47 l 150 8 q 119 -20 93 -62 q 67 -105 52 -161 q 36 -218 36 -288 l 36 -288 q 36 -347 50 -398 q 64 -449 93 -486 q 121 -524 163 -545 q 205 -566 262 -566 z"},"ല":{"ha":658,"x_min":55,"x_max":599,"o":"m 520 -554 l 599 -554 l 599 0 l 55 0 l 55 -331 q 55 -402 67 -441 q 79 -481 101 -508 l 101 -508 q 124 -537 158 -551 q 191 -566 236 -566 l 236 -566 q 281 -566 315 -552 q 348 -539 370 -512 l 370 -512 q 395 -483 406 -442 q 416 -402 416 -341 l 416 -341 l 416 -224 l 134 -224 l 134 -66 l 520 -66 l 520 -554 z m 235 -500 l 235 -500 q 182 -500 158 -459 q 134 -418 134 -330 l 134 -330 l 134 -290 l 337 -290 l 337 -331 q 337 -420 313 -460 q 288 -500 235 -500 z"},"ള":{"ha":557,"x_min":34,"x_max":524,"o":"m 307 -500 l 307 -500 q 268 -500 236 -491 q 204 -482 179 -464 q 153 -447 135 -424 q 117 -401 106 -372 l 106 -372 q 105 -367 106 -360 q 107 -354 107 -347 l 107 -347 q 106 -340 105 -328 q 103 -317 103 -306 l 103 -306 q 103 -243 118 -211 q 132 -180 165 -180 l 165 -180 q 191 -180 202 -205 q 213 -230 213 -266 l 213 -266 q 213 -293 208 -312 q 203 -331 191 -341 q 179 -352 159 -352 l 159 -352 q 131 -352 112 -335 q 93 -318 77 -298 l 77 -298 l 52 -341 q 68 -360 87 -377 q 105 -394 127 -405 q 149 -416 175 -416 l 175 -416 q 216 -416 242 -396 q 267 -376 279 -342 q 291 -309 291 -267 l 291 -267 q 291 -222 278 -188 q 264 -154 236 -135 q 208 -116 164 -116 l 164 -116 q 126 -116 97 -136 q 67 -157 51 -199 q 34 -241 34 -306 l 34 -306 q 34 -363 52 -410 q 69 -458 104 -493 q 139 -528 191 -547 q 243 -566 312 -566 l 312 -566 q 378 -566 425 -546 q 471 -527 495 -490 q 519 -454 519 -402 l 519 -402 q 519 -366 505 -338 q 490 -311 462 -293 q 434 -275 392 -265 l 392 -265 l 336 -291 l 336 -310 l 342 -310 q 362 -310 382 -316 q 402 -322 417 -337 l 417 -337 q 428 -348 433 -363 q 438 -378 438 -398 l 438 -398 q 438 -429 424 -451 q 410 -474 381 -487 q 352 -500 307 -500 z m 524 -152 l 524 -152 q 524 -113 511 -84 q 498 -55 474 -35 l 474 -35 q 459 -24 441 -16 q 423 -8 398 -4 q 373 0 335 0 l 335 0 l 241 0 q 202 0 184 3 q 166 5 152 12 l 152 12 q 136 19 128 33 q 120 46 120 64 l 120 64 q 120 81 127 94 q 133 106 144 114 l 144 114 q 158 124 182 129 q 206 133 244 133 l 244 133 l 499 133 l 499 201 l 240 201 q 191 201 156 194 q 120 187 94 171 l 94 171 q 69 155 55 130 q 40 104 40 69 l 40 69 q 40 34 53 7 q 66 -20 92 -37 l 92 -37 q 106 -47 124 -53 q 142 -59 168 -62 q 193 -66 228 -66 l 228 -66 l 325 -66 q 360 -66 382 -71 q 404 -76 418 -88 l 418 -88 q 430 -99 437 -115 q 443 -131 443 -154 l 443 -154 q 443 -177 436 -193 q 429 -210 415 -221 l 415 -221 q 402 -232 384 -238 q 365 -244 338 -244 l 338 -244 l 336 -244 l 336 -295 l 394 -289 q 452 -281 488 -244 q 524 -207 524 -152 z"},"ഴ":{"ha":513,"x_min":34,"x_max":479,"o":"m 201 -419 l 201 -419 q 201 -485 238 -525 q 275 -566 338 -566 l 338 -566 q 388 -566 419 -542 q 450 -518 465 -480 q 479 -442 479 -400 l 479 -400 q 479 -328 455 -272 q 430 -216 385 -184 q 339 -152 276 -152 l 276 -152 l 262 -152 q 186 -152 135 -183 q 84 -215 59 -270 q 34 -325 34 -393 l 34 -393 q 34 -439 46 -480 q 57 -522 83 -565 l 83 -565 l 147 -530 q 129 -495 121 -462 q 113 -430 113 -394 l 113 -394 q 113 -336 132 -296 q 150 -257 184 -237 q 217 -217 262 -217 l 262 -217 l 274 -217 q 315 -217 343 -239 q 371 -261 386 -302 q 400 -343 400 -399 l 400 -399 q 400 -440 386 -470 q 372 -501 340 -501 l 340 -501 q 320 -501 306 -489 q 292 -478 285 -458 q 278 -439 278 -414 l 278 -414 q 278 -371 289 -334 q 299 -298 313 -264 q 327 -231 338 -196 q 348 -162 348 -122 l 348 -122 q 348 -92 336 -61 q 324 -30 296 -9 q 267 12 217 12 l 217 12 q 183 12 151 7 q 119 1 90 -12 l 90 -12 l 118 -75 q 140 -65 162 -60 q 184 -55 209 -55 l 209 -55 q 247 -55 260 -77 q 272 -99 272 -127 l 272 -127 q 272 -163 262 -197 q 251 -231 237 -266 q 222 -301 212 -338 q 201 -376 201 -419 z"},"വ":{"ha":733,"x_min":36,"x_max":674,"o":"m 262 -566 l 262 -566 q 319 -566 361 -545 q 402 -524 430 -486 q 457 -449 470 -398 q 483 -348 483 -289 l 483 -289 q 483 -236 474 -192 q 464 -149 448 -114 q 431 -80 409 -52 l 409 -52 l 405 -66 l 595 -66 l 595 -554 l 674 -554 l 674 0 l 360 0 l 322 -55 q 342 -75 360 -106 q 378 -138 390 -181 q 401 -225 401 -281 l 401 -281 q 401 -352 384 -400 q 366 -448 335 -473 q 304 -498 261 -498 l 261 -498 q 218 -498 186 -472 q 154 -446 136 -398 q 118 -350 118 -282 l 118 -282 q 118 -228 129 -184 q 140 -140 160 -106 q 180 -72 206 -47 l 206 -47 l 150 8 q 119 -20 93 -62 q 67 -105 52 -161 q 36 -218 36 -288 l 36 -288 q 36 -347 50 -398 q 64 -449 93 -486 q 121 -524 163 -545 q 205 -566 262 -566 z"},"ശ":{"ha":793,"x_min":36,"x_max":757,"o":"m 513 -566 l 513 -566 q 573 -566 619 -543 q 664 -520 695 -477 q 726 -434 742 -374 q 757 -315 757 -242 l 757 -242 q 757 -147 737 -91 q 716 -35 680 -11 q 644 12 597 12 l 597 12 q 546 12 514 -15 q 481 -43 465 -91 q 449 -139 449 -199 l 449 -199 q 449 -298 486 -350 q 523 -402 588 -402 l 588 -402 q 623 -402 647 -387 q 671 -372 691 -342 q 710 -312 729 -266 l 729 -266 l 702 -249 q 696 -266 684 -286 q 671 -307 652 -322 q 632 -337 606 -337 l 606 -337 q 565 -337 546 -300 q 527 -263 527 -198 l 527 -198 q 527 -152 535 -119 q 542 -87 558 -70 q 574 -53 598 -53 l 598 -53 q 624 -53 643 -72 q 661 -92 671 -135 q 681 -178 681 -248 l 681 -248 q 681 -250 680 -270 q 678 -290 676 -310 l 676 -310 q 675 -315 676 -323 q 676 -331 674 -335 l 674 -335 q 667 -381 647 -418 q 626 -455 593 -476 q 559 -498 512 -498 l 512 -498 q 484 -498 464 -491 q 443 -484 428 -470 l 428 -470 q 397 -442 390 -392 q 382 -342 382 -254 l 382 -254 l 382 -194 q 382 -138 373 -98 q 363 -59 335 -31 l 335 -31 q 314 -10 286 1 q 258 12 218 12 l 218 12 q 161 12 120 -18 q 79 -49 58 -107 q 36 -165 36 -249 l 36 -249 q 36 -326 51 -383 q 65 -441 90 -485 q 114 -530 143 -566 l 143 -566 l 205 -514 q 183 -488 163 -451 q 143 -415 131 -366 q 118 -317 118 -253 l 118 -253 q 118 -192 131 -147 q 143 -103 166 -79 q 189 -56 219 -56 l 219 -56 q 239 -56 253 -62 q 267 -69 276 -81 l 276 -81 q 291 -102 296 -137 q 300 -172 300 -237 l 300 -237 l 300 -303 q 300 -368 311 -419 q 321 -470 359 -510 l 359 -510 q 382 -534 422 -550 q 461 -566 513 -566 z"},"ഷ":{"ha":884,"x_min":31,"x_max":825,"o":"m 183 -346 l 183 -346 q 235 -346 269 -322 q 302 -298 319 -260 q 335 -222 335 -178 l 335 -178 q 335 -134 322 -102 q 309 -71 298 -57 l 298 -57 l 284 -66 l 525 -66 l 538 0 l 253 0 l 222 -52 q 236 -74 247 -101 q 258 -129 258 -168 l 258 -168 q 258 -221 239 -250 q 220 -280 184 -280 l 184 -280 q 161 -280 144 -267 q 126 -254 117 -230 q 108 -206 108 -174 l 108 -174 q 108 -131 122 -100 q 135 -69 157 -37 l 157 -37 l 101 7 q 73 -28 52 -72 q 31 -117 31 -174 l 31 -174 q 31 -227 50 -265 q 69 -304 104 -325 q 138 -346 183 -346 z m 825 0 l 502 0 l 502 -403 q 502 -433 499 -454 q 495 -476 487 -487 l 487 -487 q 483 -493 477 -496 q 470 -500 462 -500 l 462 -500 q 438 -500 425 -476 q 412 -452 412 -411 l 412 -411 q 412 -380 420 -355 q 427 -330 447 -316 q 466 -302 501 -302 l 501 -302 l 544 -302 q 580 -302 609 -319 q 638 -337 662 -370 q 686 -403 708 -449 q 730 -496 751 -554 l 751 -554 l 825 -554 l 825 0 z m 465 -566 l 465 -566 q 494 -566 515 -557 q 536 -548 549 -531 l 549 -531 q 566 -510 573 -481 q 580 -452 580 -406 l 580 -406 l 580 -66 l 747 -66 l 747 -300 q 747 -331 748 -357 q 749 -384 751 -403 q 753 -423 754 -434 l 754 -434 l 755 -430 q 732 -359 698 -316 q 664 -274 625 -255 q 586 -237 546 -237 l 546 -237 l 511 -237 q 450 -237 411 -260 q 372 -283 354 -322 q 336 -362 336 -412 l 336 -412 q 336 -450 350 -485 q 363 -521 392 -543 q 421 -566 465 -566 z"},"സ":{"ha":926,"x_min":36,"x_max":890,"o":"m 475 -566 l 475 -566 q 507 -566 533 -556 q 559 -546 578 -527 l 578 -527 q 595 -510 605 -489 q 615 -468 620 -437 q 625 -407 625 -360 l 625 -360 l 625 -237 q 625 -172 630 -137 q 634 -102 649 -81 l 649 -81 q 658 -69 672 -62 q 685 -56 707 -56 l 707 -56 q 738 -56 761 -79 q 783 -103 796 -147 q 808 -192 808 -253 l 808 -253 q 808 -317 796 -366 q 783 -415 763 -451 q 743 -488 721 -514 l 721 -514 l 783 -566 q 812 -530 837 -485 q 861 -441 876 -383 q 890 -326 890 -249 l 890 -249 q 890 -165 868 -107 q 845 -49 805 -18 q 764 12 708 12 l 708 12 q 668 12 640 1 q 612 -10 591 -31 l 591 -31 q 573 -50 563 -73 q 553 -97 550 -127 q 546 -157 546 -194 l 546 -194 l 546 -352 q 546 -395 542 -425 q 537 -455 522 -474 l 522 -474 q 513 -485 499 -491 q 485 -498 465 -498 l 465 -498 q 445 -498 430 -490 q 415 -482 406 -467 l 406 -467 q 394 -448 390 -417 q 386 -387 386 -331 l 386 -331 l 386 0 l 307 0 l 307 -333 q 307 -392 300 -425 q 292 -458 276 -475 l 276 -475 q 266 -487 253 -492 q 239 -498 222 -498 l 222 -498 q 191 -498 168 -472 q 144 -447 131 -402 q 118 -358 118 -301 l 118 -301 q 118 -238 131 -190 q 143 -142 163 -106 q 183 -71 205 -44 l 205 -44 l 143 8 q 114 -28 90 -71 q 65 -115 51 -172 q 36 -229 36 -305 l 36 -305 q 36 -382 58 -440 q 79 -499 120 -532 q 161 -566 220 -566 l 220 -566 q 264 -566 295 -546 q 326 -526 352 -479 l 352 -479 l 341 -480 q 361 -520 392 -543 q 423 -566 475 -566 z"},"ഹ":{"ha":905,"x_min":31,"x_max":869,"o":"m 183 -346 l 183 -346 q 235 -346 269 -322 q 302 -298 319 -260 q 335 -222 335 -178 l 335 -178 q 335 -134 322 -102 q 309 -71 298 -57 l 298 -57 l 284 -66 l 525 -66 l 538 0 l 253 0 l 222 -52 q 236 -74 247 -101 q 258 -129 258 -168 l 258 -168 q 258 -221 239 -250 q 220 -280 184 -280 l 184 -280 q 161 -280 144 -267 q 126 -254 117 -230 q 108 -206 108 -174 l 108 -174 q 108 -131 122 -100 q 135 -69 157 -37 l 157 -37 l 101 7 q 73 -28 52 -72 q 31 -117 31 -174 l 31 -174 q 31 -227 50 -265 q 69 -304 104 -325 q 138 -346 183 -346 z m 648 -566 l 648 -566 q 705 -566 747 -545 q 788 -524 816 -486 q 843 -449 856 -398 q 869 -348 869 -289 l 869 -289 q 869 -217 855 -162 q 840 -108 815 -67 q 789 -26 755 8 l 755 8 l 699 -47 q 722 -69 742 -100 q 762 -132 775 -176 q 787 -221 787 -281 l 787 -281 q 787 -352 770 -400 q 752 -448 721 -473 q 690 -498 647 -498 l 647 -498 q 604 -498 572 -472 q 540 -446 522 -398 q 504 -350 504 -282 l 504 -282 q 504 -233 514 -191 q 523 -150 541 -116 q 559 -82 583 -55 l 583 -55 l 543 0 l 524 0 l 495 -54 q 474 -82 458 -118 q 441 -154 432 -197 q 422 -240 422 -288 l 422 -288 q 422 -347 436 -398 q 450 -449 479 -486 q 507 -524 549 -545 q 591 -566 648 -566 z"},"ഺ":{"ha":576,"x_min":19,"x_max":560,"o":"m 109 -66 l 560 -66 l 560 0 l 359 0 l 359 202 l 280 202 l 280 0 l 63 0 l 19 -51 l 212 -559 l 287 -535 l 109 -66 z"},"഻":{"ha":0,"x_min":-312,"x_max":-245,"o":"m -312 -585 l -312 -864 l -245 -864 l -245 -585 l -312 -585 z"},"഼":{"ha":0,"x_min":-204,"x_max":14,"o":"m -204 -721 l -204 -721 q -204 -783 -173 -817 q -143 -851 -96 -851 l -96 -851 q -48 -851 -17 -817 q 14 -784 14 -721 l 14 -721 q 14 -659 -16 -625 q -47 -591 -96 -591 l -96 -591 q -144 -591 -174 -625 q -204 -659 -204 -721 z m -140 -722 l -140 -722 q -140 -690 -129 -671 q -118 -652 -96 -652 l -96 -652 q -73 -652 -61 -671 q -50 -690 -50 -722 l -50 -722 q -50 -754 -62 -772 q -74 -790 -96 -790 l -96 -790 q -117 -790 -128 -772 q -140 -754 -140 -722 z"},"ഽ":{"ha":369,"x_min":-54,"x_max":423,"o":"m 288 -792 l 288 -792 q 327 -792 354 -774 q 381 -756 398 -724 q 415 -692 423 -650 l 423 -650 l 345 -634 q 340 -660 333 -681 q 325 -702 314 -714 q 303 -726 285 -726 l 285 -726 q 272 -726 263 -721 q 253 -717 246 -709 l 246 -709 q 235 -696 230 -669 q 225 -643 225 -596 l 225 -596 l 225 42 q 225 115 213 154 q 201 192 175 214 l 175 214 q 157 230 135 237 q 112 244 80 244 l 80 244 q 42 244 15 226 q -12 208 -29 176 q -46 144 -54 102 l -54 102 l 24 86 q 29 112 37 133 q 44 154 56 166 q 67 178 84 178 l 84 178 q 98 178 107 174 q 116 169 123 161 l 123 161 q 134 147 139 121 q 144 95 144 48 l 144 48 l 144 -590 q 144 -664 156 -702 q 168 -740 194 -762 l 194 -762 q 212 -778 235 -785 q 257 -792 288 -792 z"},"ാ":{"ha":395,"x_min":14,"x_max":357,"o":"m 357 -279 l 357 -279 q 357 -214 349 -160 q 340 -107 321 -68 q 301 -30 269 -9 q 236 12 187 12 l 187 12 q 144 12 113 -3 q 82 -19 62 -45 q 42 -72 31 -104 q 19 -137 14 -170 l 14 -170 l 94 -186 q 99 -159 109 -128 q 118 -97 136 -75 q 153 -54 182 -54 l 182 -54 q 216 -54 237 -79 q 257 -105 267 -155 q 276 -205 276 -278 l 276 -278 q 276 -350 267 -399 q 257 -449 237 -474 q 217 -500 185 -500 l 185 -500 q 159 -500 141 -481 q 123 -462 113 -432 q 102 -402 96 -370 l 96 -370 l 17 -386 q 25 -420 38 -452 q 50 -484 70 -510 q 90 -536 120 -551 q 150 -566 193 -566 l 193 -566 q 239 -566 271 -545 q 302 -524 321 -486 q 340 -448 349 -395 q 357 -342 357 -279 z"},"ി":{"ha":197,"x_min":-174,"x_max":138,"o":"m -22 -843 l -22 -843 q 10 -843 39 -832 q 67 -822 87 -802 l 87 -802 q 106 -783 117 -756 q 128 -729 133 -692 q 138 -656 138 -606 l 138 -606 l 138 0 l 59 0 l 59 -561 q 59 -617 57 -655 q 54 -693 48 -717 q 41 -741 29 -755 l 29 -755 q 20 -766 8 -771 q -5 -777 -22 -777 l -22 -777 q -39 -777 -56 -768 q -73 -759 -84 -739 q -95 -720 -95 -687 l -95 -687 q -95 -676 -93 -662 q -92 -648 -90 -638 l -90 -638 l -167 -626 q -170 -637 -172 -653 q -174 -670 -174 -688 l -174 -688 q -174 -738 -152 -772 q -131 -807 -96 -825 q -62 -843 -22 -843 z"},"ീ":{"ha":197,"x_min":-218,"x_max":138,"o":"m -69 -843 l -69 -843 q -21 -843 15 -828 q 50 -813 74 -789 l 74 -789 q 110 -753 124 -700 q 138 -648 138 -568 l 138 -568 l 138 0 l 59 0 l 59 -546 q 59 -595 57 -631 q 54 -668 47 -694 q 40 -721 27 -740 l 27 -740 q 12 -763 -12 -773 q -36 -783 -78 -783 l -78 -783 q -93 -783 -110 -776 q -128 -769 -140 -752 q -153 -735 -153 -706 l -153 -706 q -153 -671 -139 -656 q -126 -642 -104 -642 l -104 -642 q -80 -642 -68 -658 q -56 -675 -56 -703 l -56 -703 q -56 -728 -64 -751 q -72 -775 -89 -790 l -89 -790 l -21 -781 q -12 -771 -4 -750 q 4 -729 4 -701 l 4 -701 q 4 -666 -7 -638 q -18 -610 -42 -594 q -67 -578 -106 -578 l -106 -578 q -137 -578 -162 -592 q -188 -606 -203 -635 q -218 -664 -218 -708 l -218 -708 q -218 -747 -200 -777 q -182 -808 -148 -825 q -115 -843 -69 -843 z"},"ു":{"ha":265,"x_min":-15,"x_max":268,"o":"m 127 227 l 127 227 q 62 227 24 182 q -15 137 -15 53 l -15 53 q -15 -3 3 -41 q 21 -80 53 -100 q 85 -120 126 -120 l 126 -120 q 168 -120 200 -100 q 232 -81 250 -42 q 268 -4 268 53 l 268 53 q 268 109 250 148 q 232 187 201 207 q 169 227 127 227 z m 127 165 l 127 165 q 159 165 177 137 q 194 108 194 53 l 194 53 q 194 -1 177 -29 q 160 -58 126 -58 l 126 -58 q 94 -58 77 -30 q 59 -2 59 54 l 59 54 q 59 110 77 138 q 95 165 127 165 z m 91 -566 l 91 -566 q 139 -566 167 -543 q 194 -521 206 -485 q 218 -450 218 -410 l 218 -410 q 218 -346 203 -258 q 188 -171 167 -84 l 167 -84 l 94 -99 q 113 -185 125 -261 q 137 -337 137 -402 l 137 -402 q 137 -446 124 -472 q 111 -498 74 -498 l 74 -498 q 62 -498 50 -496 q 37 -494 26 -490 l 26 -490 l 12 -555 q 26 -560 45 -563 q 63 -566 91 -566 z"},"ൂ":{"ha":265,"x_min":-15,"x_max":268,"o":"m 127 227 l 127 227 q 62 227 24 182 q -15 137 -15 53 l -15 53 q -15 -3 3 -41 q 21 -80 53 -100 q 85 -120 126 -120 l 126 -120 q 168 -120 200 -100 q 232 -81 250 -42 q 268 -4 268 53 l 268 53 q 268 109 250 148 q 232 187 201 207 q 169 227 127 227 z m 126 -62 l 126 -62 q 91 -62 69 -34 q 46 -6 46 54 l 46 54 q 46 112 68 139 q 90 166 127 166 l 127 166 q 164 166 186 138 q 207 110 207 55 l 207 55 q 207 -5 185 -33 q 163 -62 126 -62 z m 125 96 l 125 96 q 77 96 59 65 q 40 34 40 -9 l 40 -9 q 40 -34 49 -54 q 57 -75 74 -97 l 74 -97 l 110 -68 q 93 -58 84 -45 q 75 -32 75 -14 l 75 -14 q 75 -1 80 10 q 85 20 97 26 q 108 32 126 32 l 126 32 q 142 32 154 27 q 165 21 171 11 q 177 0 177 -14 l 177 -14 q 177 -34 169 -46 q 160 -59 145 -67 l 145 -67 l 184 -97 q 201 -72 207 -52 q 213 -33 213 -13 l 213 -13 q 213 13 206 38 q 199 63 180 80 q 161 96 125 96 z m 93 -566 l 93 -566 q 140 -566 167 -543 q 194 -521 206 -485 q 218 -450 218 -410 l 218 -410 q 218 -346 203 -258 q 188 -171 167 -84 l 167 -84 l 94 -99 q 113 -185 125 -261 q 137 -337 137 -402 l 137 -402 q 137 -446 124 -472 q 111 -498 74 -498 l 74 -498 q 63 -498 50 -496 q 37 -494 26 -490 l 26 -490 l 12 -555 q 26 -560 45 -563 q 64 -566 93 -566 z"},"ൃ":{"ha":205,"x_min":-121,"x_max":201,"o":"m 29 316 l 29 316 q -16 316 -49 300 q -83 283 -102 250 q -121 217 -121 168 l -121 168 q -121 107 -84 68 q -47 29 23 29 l 23 29 q 52 29 90 41 q 127 53 164 92 l 164 92 l 150 154 q 116 122 87 109 q 57 95 26 95 l 26 95 q -5 95 -25 113 q -45 131 -45 171 l -45 171 q -45 210 -25 230 q -5 250 29 250 l 29 250 q 59 250 81 237 q 102 224 113 196 q 124 168 124 123 l 124 123 q 124 91 120 63 q 115 35 106 0 q 96 -35 79 -88 l 79 -88 q 65 -135 52 -187 q 39 -240 39 -303 l 39 -303 q 39 -366 55 -429 q 71 -493 96 -554 l 96 -554 l 178 -554 q 157 -504 144 -463 q 131 -422 125 -384 q 119 -347 119 -305 l 119 -305 q 119 -249 129 -205 q 138 -162 155 -107 l 155 -107 q 172 -55 182 -16 q 192 22 197 55 q 201 87 201 122 l 201 122 q 201 194 178 237 q 154 279 115 298 q 76 316 29 316 z"},"ൄ":{"ha":205,"x_min":-213,"x_max":201,"o":"m -18 316 l -18 316 q -80 316 -124 296 q -168 276 -190 239 q -213 201 -213 149 l -213 149 q -213 96 -186 67 q -159 37 -116 37 l -116 37 q -93 37 -74 50 q -56 62 -46 85 l -46 85 l -54 84 q -43 61 -24 49 q -6 37 18 37 l 18 37 q 42 37 58 47 q 74 56 83 71 q 91 86 95 105 q 98 124 98 144 l 98 144 l 98 176 l 41 176 l 41 161 q 41 132 34 116 q 27 99 11 99 l 11 99 q -8 99 -14 115 q -21 131 -21 157 l -21 157 l -21 176 l -78 176 l -78 157 q -78 130 -86 115 q -94 99 -110 99 l -110 99 q -125 99 -134 112 q -144 124 -144 148 l -144 148 q -144 194 -113 222 q -83 250 -19 250 l -19 250 q 49 250 86 217 q 122 184 122 121 l 122 121 q 122 89 118 62 q 114 35 105 1 q 95 -34 79 -86 l 79 -86 q 65 -133 52 -186 q 39 -240 39 -303 l 39 -303 q 39 -366 55 -429 q 71 -493 96 -554 l 96 -554 l 178 -554 q 157 -504 144 -463 q 131 -422 125 -384 q 119 -347 119 -305 l 119 -305 q 119 -249 129 -205 q 138 -162 155 -107 l 155 -107 q 172 -55 182 -17 q 192 21 197 54 q 201 87 201 125 l 201 125 q 201 191 171 233 q 141 275 91 296 q 41 316 -18 316 z"},"െ":{"ha":549,"x_min":36,"x_max":513,"o":"m 186 12 l 186 12 q 145 12 111 -12 q 77 -36 57 -90 q 36 -144 36 -234 l 36 -234 q 36 -315 55 -376 q 73 -438 107 -480 q 140 -523 186 -544 q 231 -566 286 -566 l 286 -566 q 344 -566 387 -545 q 430 -525 458 -487 q 486 -450 500 -399 q 513 -349 513 -289 l 513 -289 q 513 -217 499 -162 q 484 -108 459 -67 q 433 -26 399 8 l 399 8 l 343 -47 q 366 -69 386 -101 q 406 -133 419 -177 q 431 -221 431 -279 l 431 -279 q 431 -351 414 -399 q 396 -448 363 -473 q 330 -498 284 -498 l 284 -498 q 234 -498 195 -465 q 155 -432 133 -372 q 111 -313 111 -231 l 111 -231 q 111 -165 121 -126 q 130 -88 147 -71 q 163 -55 185 -55 l 185 -55 q 202 -55 215 -65 q 227 -76 234 -98 q 241 -120 241 -157 l 241 -157 q 241 -213 224 -236 q 207 -260 175 -260 l 175 -260 q 149 -260 128 -246 q 107 -233 84 -204 l 84 -204 l 63 -257 q 86 -283 120 -304 q 154 -326 193 -326 l 193 -326 q 233 -326 261 -308 q 289 -290 304 -253 q 319 -216 319 -160 l 319 -160 q 319 -101 304 -63 q 288 -25 259 -6 q 229 12 186 12 z"},"േ":{"ha":463,"x_min":36,"x_max":433,"o":"m 272 12 l 272 12 q 223 12 180 -5 q 137 -23 105 -59 q 72 -95 54 -150 q 36 -206 36 -281 l 36 -281 q 36 -355 56 -409 q 76 -463 110 -497 q 144 -532 189 -549 q 233 -566 282 -566 l 282 -566 q 336 -566 370 -547 q 403 -528 418 -496 q 433 -465 433 -427 l 433 -427 q 433 -386 419 -357 q 404 -329 379 -314 q 354 -300 320 -300 l 320 -300 q 278 -300 253 -316 q 227 -332 216 -360 q 204 -389 204 -424 l 204 -424 q 204 -447 212 -470 q 220 -493 232 -507 l 232 -507 l 302 -515 q 289 -501 280 -477 q 271 -453 271 -426 l 271 -426 q 271 -402 280 -383 q 289 -364 317 -364 l 317 -364 q 341 -364 352 -379 q 362 -395 362 -426 l 362 -426 q 362 -466 343 -485 q 324 -505 297 -505 l 297 -505 q 287 -505 273 -505 q 258 -505 250 -504 l 250 -504 q 213 -500 183 -471 q 152 -443 134 -394 q 116 -346 116 -280 l 116 -280 q 116 -216 132 -167 q 147 -118 175 -88 q 202 -59 237 -51 l 237 -51 q 249 -50 265 -49 q 281 -49 288 -49 l 288 -49 q 310 -49 325 -58 q 340 -68 349 -86 q 357 -104 357 -129 l 357 -129 q 357 -157 347 -174 q 337 -191 312 -191 l 312 -191 q 286 -191 276 -172 q 266 -153 266 -128 l 266 -128 q 266 -100 275 -76 q 284 -53 297 -39 l 297 -39 l 228 -45 q 215 -62 207 -85 q 199 -109 199 -135 l 199 -135 q 199 -167 211 -194 q 222 -222 247 -238 q 272 -255 311 -255 l 311 -255 q 345 -255 372 -241 q 398 -228 413 -200 q 428 -172 428 -128 l 428 -128 q 428 -89 413 -57 q 397 -25 363 -6 q 328 12 272 12 z"},"ൈ":{"ha":1096,"x_min":36,"x_max":1060,"o":"m 186 12 l 186 12 q 145 12 111 -12 q 77 -36 57 -90 q 36 -144 36 -234 l 36 -234 q 36 -315 55 -376 q 73 -438 107 -480 q 140 -523 186 -544 q 231 -566 286 -566 l 286 -566 q 344 -566 387 -545 q 430 -525 458 -487 q 486 -450 500 -399 q 513 -349 513 -289 l 513 -289 q 513 -217 499 -162 q 484 -108 459 -67 q 433 -26 399 8 l 399 8 l 343 -47 q 366 -69 386 -101 q 406 -133 419 -177 q 431 -221 431 -279 l 431 -279 q 431 -351 414 -399 q 396 -448 363 -473 q 330 -498 284 -498 l 284 -498 q 234 -498 195 -465 q 155 -432 133 -372 q 111 -313 111 -231 l 111 -231 q 111 -165 121 -126 q 130 -88 147 -71 q 163 -55 185 -55 l 185 -55 q 202 -55 215 -65 q 227 -76 234 -98 q 241 -120 241 -157 l 241 -157 q 241 -213 224 -236 q 207 -260 175 -260 l 175 -260 q 149 -260 128 -246 q 107 -233 84 -204 l 84 -204 l 63 -257 q 86 -283 120 -304 q 154 -326 193 -326 l 193 -326 q 233 -326 261 -308 q 289 -290 304 -253 q 319 -216 319 -160 l 319 -160 q 319 -101 304 -63 q 288 -25 259 -6 q 229 12 186 12 z m 733 12 l 733 12 q 692 12 658 -12 q 624 -36 604 -90 q 583 -144 583 -234 l 583 -234 q 583 -315 602 -376 q 620 -438 654 -480 q 687 -523 733 -544 q 778 -566 833 -566 l 833 -566 q 891 -566 934 -545 q 977 -525 1005 -487 q 1033 -450 1047 -399 q 1060 -349 1060 -289 l 1060 -289 q 1060 -217 1046 -162 q 1031 -108 1006 -67 q 980 -26 946 8 l 946 8 l 890 -47 q 913 -69 933 -101 q 953 -133 966 -177 q 978 -221 978 -279 l 978 -279 q 978 -351 961 -399 q 943 -448 910 -473 q 877 -498 831 -498 l 831 -498 q 781 -498 742 -465 q 702 -432 680 -372 q 658 -313 658 -231 l 658 -231 q 658 -165 668 -126 q 677 -88 694 -71 q 710 -55 732 -55 l 732 -55 q 749 -55 762 -65 q 774 -76 781 -98 q 788 -120 788 -157 l 788 -157 q 788 -213 771 -236 q 754 -260 722 -260 l 722 -260 q 696 -260 675 -246 q 654 -233 631 -204 l 631 -204 l 610 -257 q 633 -283 667 -304 q 701 -326 740 -326 l 740 -326 q 780 -326 808 -308 q 836 -290 851 -253 q 866 -216 866 -160 l 866 -160 q 866 -101 851 -63 q 835 -25 806 -6 q 776 12 733 12 z"},"ൊ":{"ha":1088,"x_min":36,"x_max":1050,"o":"m 186 12 l 186 12 q 145 12 111 -12 q 77 -36 57 -90 q 36 -144 36 -234 l 36 -234 q 36 -315 55 -376 q 73 -438 107 -480 q 140 -523 186 -544 q 231 -566 286 -566 l 286 -566 q 344 -566 387 -545 q 430 -525 458 -487 q 486 -450 500 -399 q 513 -349 513 -289 l 513 -289 q 513 -217 499 -162 q 484 -108 459 -67 q 433 -26 399 8 l 399 8 l 343 -47 q 366 -69 386 -101 q 406 -133 419 -177 q 431 -221 431 -279 l 431 -279 q 431 -351 414 -399 q 396 -448 363 -473 q 330 -498 284 -498 l 284 -498 q 234 -498 195 -465 q 155 -432 133 -372 q 111 -313 111 -231 l 111 -231 q 111 -165 121 -126 q 130 -88 147 -71 q 163 -55 185 -55 l 185 -55 q 202 -55 215 -65 q 227 -76 234 -98 q 241 -120 241 -157 l 241 -157 q 241 -213 224 -236 q 207 -260 175 -260 l 175 -260 q 149 -260 128 -246 q 107 -233 84 -204 l 84 -204 l 63 -257 q 86 -283 120 -304 q 154 -326 193 -326 l 193 -326 q 233 -326 261 -308 q 289 -290 304 -253 q 319 -216 319 -160 l 319 -160 q 319 -101 304 -63 q 288 -25 259 -6 q 229 12 186 12 z m 627 -236 l 627 -236 q 602 -236 588 -252 q 573 -269 573 -300 l 573 -300 q 573 -332 587 -348 q 601 -364 627 -364 l 627 -364 q 652 -364 667 -349 q 681 -334 681 -300 l 681 -300 q 681 -267 666 -251 q 651 -236 627 -236 z m 1050 -279 l 1050 -279 q 1050 -214 1042 -160 q 1033 -107 1014 -68 q 994 -30 962 -9 q 929 12 880 12 l 880 12 q 837 12 806 -3 q 775 -19 755 -45 q 735 -72 724 -104 q 712 -137 707 -170 l 707 -170 l 787 -186 q 792 -159 802 -128 q 811 -97 829 -75 q 846 -54 875 -54 l 875 -54 q 909 -54 930 -79 q 950 -105 960 -155 q 969 -205 969 -278 l 969 -278 q 969 -350 960 -399 q 950 -449 930 -474 q 910 -500 878 -500 l 878 -500 q 852 -500 834 -481 q 816 -462 806 -432 q 795 -402 789 -370 l 789 -370 l 710 -386 q 718 -420 731 -452 q 743 -484 763 -510 q 783 -536 813 -551 q 843 -566 886 -566 l 886 -566 q 932 -566 964 -545 q 995 -524 1014 -486 q 1033 -448 1042 -395 q 1050 -342 1050 -279 z"},"ോ":{"ha":991,"x_min":36,"x_max":953,"o":"m 272 12 l 272 12 q 223 12 180 -5 q 137 -23 105 -59 q 72 -95 54 -150 q 36 -206 36 -281 l 36 -281 q 36 -355 56 -409 q 76 -463 110 -497 q 144 -532 189 -549 q 233 -566 282 -566 l 282 -566 q 336 -566 370 -547 q 403 -528 418 -496 q 433 -465 433 -427 l 433 -427 q 433 -386 419 -357 q 404 -329 379 -314 q 354 -300 320 -300 l 320 -300 q 278 -300 253 -316 q 227 -332 216 -360 q 204 -389 204 -424 l 204 -424 q 204 -447 212 -470 q 220 -493 232 -507 l 232 -507 l 302 -515 q 289 -501 280 -477 q 271 -453 271 -426 l 271 -426 q 271 -402 280 -383 q 289 -364 317 -364 l 317 -364 q 341 -364 352 -379 q 362 -395 362 -426 l 362 -426 q 362 -466 343 -485 q 324 -505 297 -505 l 297 -505 q 287 -505 273 -505 q 258 -505 250 -504 l 250 -504 q 213 -500 183 -471 q 152 -443 134 -394 q 116 -346 116 -280 l 116 -280 q 116 -216 132 -167 q 147 -118 175 -88 q 202 -59 237 -51 l 237 -51 q 249 -50 265 -49 q 281 -49 288 -49 l 288 -49 q 310 -49 325 -58 q 340 -68 349 -86 q 357 -104 357 -129 l 357 -129 q 357 -157 347 -174 q 337 -191 312 -191 l 312 -191 q 286 -191 276 -172 q 266 -153 266 -128 l 266 -128 q 266 -100 275 -76 q 284 -53 297 -39 l 297 -39 l 228 -45 q 215 -62 207 -85 q 199 -109 199 -135 l 199 -135 q 199 -167 211 -194 q 222 -222 247 -238 q 272 -255 311 -255 l 311 -255 q 345 -255 372 -241 q 398 -228 413 -200 q 428 -172 428 -128 l 428 -128 q 428 -89 413 -57 q 397 -25 363 -6 q 328 12 272 12 z m 530 -236 l 530 -236 q 505 -236 491 -252 q 476 -269 476 -300 l 476 -300 q 476 -332 490 -348 q 504 -364 530 -364 l 530 -364 q 555 -364 570 -349 q 584 -334 584 -300 l 584 -300 q 584 -267 569 -251 q 554 -236 530 -236 z m 953 -279 l 953 -279 q 953 -214 945 -160 q 936 -107 917 -68 q 897 -30 865 -9 q 832 12 783 12 l 783 12 q 740 12 709 -3 q 678 -19 658 -45 q 638 -72 627 -104 q 615 -137 610 -170 l 610 -170 l 690 -186 q 695 -159 705 -128 q 714 -97 732 -75 q 749 -54 778 -54 l 778 -54 q 812 -54 833 -79 q 853 -105 863 -155 q 872 -205 872 -278 l 872 -278 q 872 -350 863 -399 q 853 -449 833 -474 q 813 -500 781 -500 l 781 -500 q 755 -500 737 -481 q 719 -462 709 -432 q 698 -402 692 -370 l 692 -370 l 613 -386 q 621 -420 634 -452 q 646 -484 666 -510 q 686 -536 716 -551 q 746 -566 789 -566 l 789 -566 q 835 -566 867 -545 q 898 -524 917 -486 q 936 -448 945 -395 q 953 -342 953 -279 z"},"ൌ":{"ha":1286,"x_min":36,"x_max":1248,"o":"m 186 12 l 186 12 q 145 12 111 -12 q 77 -36 57 -90 q 36 -144 36 -234 l 36 -234 q 36 -315 55 -376 q 73 -438 107 -480 q 140 -523 186 -544 q 231 -566 286 -566 l 286 -566 q 344 -566 387 -545 q 430 -525 458 -487 q 486 -450 500 -399 q 513 -349 513 -289 l 513 -289 q 513 -217 499 -162 q 484 -108 459 -67 q 433 -26 399 8 l 399 8 l 343 -47 q 366 -69 386 -101 q 406 -133 419 -177 q 431 -221 431 -279 l 431 -279 q 431 -351 414 -399 q 396 -448 363 -473 q 330 -498 284 -498 l 284 -498 q 234 -498 195 -465 q 155 -432 133 -372 q 111 -313 111 -231 l 111 -231 q 111 -165 121 -126 q 130 -88 147 -71 q 163 -55 185 -55 l 185 -55 q 202 -55 215 -65 q 227 -76 234 -98 q 241 -120 241 -157 l 241 -157 q 241 -213 224 -236 q 207 -260 175 -260 l 175 -260 q 149 -260 128 -246 q 107 -233 84 -204 l 84 -204 l 63 -257 q 86 -283 120 -304 q 154 -326 193 -326 l 193 -326 q 233 -326 261 -308 q 289 -290 304 -253 q 319 -216 319 -160 l 319 -160 q 319 -101 304 -63 q 288 -25 259 -6 q 229 12 186 12 z m 627 -236 l 627 -236 q 602 -236 588 -252 q 573 -269 573 -300 l 573 -300 q 573 -332 587 -348 q 601 -364 627 -364 l 627 -364 q 652 -364 667 -349 q 681 -334 681 -300 l 681 -300 q 681 -267 666 -251 q 651 -236 627 -236 z m 1091 -566 l 1091 -566 q 1141 -566 1176 -537 q 1211 -509 1230 -451 q 1248 -394 1248 -305 l 1248 -305 q 1248 -192 1221 -122 q 1194 -52 1142 -20 q 1090 12 1016 12 l 1016 12 q 979 12 935 4 q 891 -5 851 -28 l 851 -28 l 889 -92 q 914 -79 946 -69 q 977 -60 1011 -60 l 1011 -60 q 1068 -60 1102 -86 q 1136 -112 1151 -166 q 1166 -220 1166 -305 l 1166 -305 q 1166 -400 1144 -449 q 1122 -498 1084 -498 l 1084 -498 q 1071 -498 1063 -494 q 1054 -490 1047 -482 l 1047 -482 q 1034 -467 1029 -440 q 1024 -413 1024 -354 l 1024 -354 l 1024 -260 l 945 -260 l 945 -355 q 945 -404 941 -431 q 937 -458 926 -474 l 926 -474 q 919 -486 908 -492 q 896 -498 882 -498 l 882 -498 q 848 -498 831 -468 q 813 -438 813 -393 l 813 -393 q 813 -359 817 -328 q 821 -298 827 -273 l 827 -273 l 753 -256 q 745 -288 739 -323 q 733 -359 733 -397 l 733 -397 q 733 -443 749 -481 q 764 -519 795 -542 q 826 -566 875 -566 l 875 -566 q 915 -566 943 -547 q 970 -528 988 -492 l 988 -492 l 976 -493 q 997 -534 1025 -550 q 1053 -566 1091 -566 z"},"്":{"ha":0,"x_min":-227,"x_max":48,"o":"m -90 -591 l -90 -591 q -136 -591 -166 -611 q -197 -631 -212 -666 q -227 -702 -227 -748 l -227 -748 q -227 -769 -224 -787 q -221 -806 -217 -818 l -217 -818 l -149 -807 q -153 -794 -154 -779 q -156 -765 -156 -748 l -156 -748 q -156 -713 -147 -692 q -138 -672 -123 -663 q -108 -655 -90 -655 l -90 -655 q -70 -655 -55 -663 q -40 -672 -31 -692 q -23 -713 -23 -749 l -23 -749 q -23 -765 -25 -780 q -27 -795 -30 -807 l -30 -807 l 38 -818 q 42 -806 45 -788 q 48 -770 48 -749 l 48 -749 q 48 -703 33 -667 q 18 -631 -12 -611 q -43 -591 -90 -591 z"},"ൎ":{"ha":0,"x_min":-324,"x_max":-233,"o":"m -324 -809 l -233 -809 l -240 -627 l -317 -627 l -324 -809 z"},"൏":{"ha":964,"x_min":44,"x_max":923,"o":"m 459 -566 l 459 -566 q 521 -566 558 -542 q 595 -518 626 -473 l 626 -473 l 606 -478 q 632 -525 664 -545 q 696 -566 739 -566 l 739 -566 q 797 -566 838 -530 q 879 -495 901 -422 q 923 -350 923 -238 l 923 -238 q 923 -85 879 20 q 835 124 740 177 q 644 230 489 230 l 489 230 q 389 230 315 206 q 240 181 189 138 q 137 94 105 36 q 73 -23 59 -91 q 44 -160 44 -234 l 44 -234 q 44 -300 58 -376 q 71 -453 101 -539 l 101 -539 l 175 -514 q 147 -445 135 -371 q 122 -297 122 -236 l 122 -236 q 122 -178 132 -121 q 141 -65 164 -14 q 187 36 229 75 q 270 113 334 135 q 398 157 489 157 l 489 157 q 589 157 657 132 q 724 107 765 58 q 805 8 823 -66 q 841 -140 841 -238 l 841 -238 q 841 -323 829 -381 q 817 -439 794 -468 q 771 -498 736 -498 l 736 -498 q 722 -498 709 -492 q 696 -487 685 -475 l 685 -475 q 669 -458 662 -425 q 654 -392 654 -333 l 654 -333 l 654 0 l 575 0 l 575 -326 q 575 -380 569 -412 q 562 -444 544 -465 l 544 -465 q 531 -480 511 -489 q 490 -498 461 -498 l 461 -498 q 410 -498 373 -466 q 336 -434 316 -378 q 295 -322 295 -251 l 295 -251 l 295 -222 q 295 -161 305 -124 q 314 -87 331 -71 q 347 -55 369 -55 l 369 -55 q 386 -55 399 -65 q 411 -76 418 -98 q 425 -120 425 -157 l 425 -157 q 425 -213 408 -236 q 391 -260 359 -260 l 359 -260 q 333 -260 312 -246 q 291 -233 268 -204 l 268 -204 l 247 -257 q 270 -283 304 -304 q 338 -326 377 -326 l 377 -326 q 417 -326 445 -308 q 473 -290 488 -253 q 503 -216 503 -160 l 503 -160 q 503 -101 488 -63 q 472 -25 443 -6 q 413 12 370 12 l 370 12 q 329 12 295 -12 q 261 -37 241 -92 q 220 -148 220 -241 l 220 -241 q 220 -352 252 -424 q 283 -496 337 -531 q 391 -566 459 -566 z"},"ൔ":{"ha":493,"x_min":40,"x_max":485,"o":"m 128 -792 l 128 -792 q 156 -792 178 -784 q 199 -777 213 -764 l 213 -764 q 234 -745 242 -717 q 250 -690 250 -648 l 250 -648 l 250 -524 q 250 -479 255 -440 q 260 -401 276 -361 q 292 -321 323 -271 l 323 -271 l 341 -249 q 367 -212 403 -166 q 438 -120 485 -63 l 485 -63 l 454 0 l 52 0 l 52 -281 q 52 -336 59 -376 q 65 -416 78 -446 q 91 -476 111 -499 l 111 -499 q 140 -532 176 -549 q 211 -566 259 -566 l 259 -566 q 304 -566 338 -542 q 371 -519 390 -478 q 408 -438 408 -385 l 408 -385 q 408 -336 391 -292 q 374 -249 348 -210 l 348 -210 l 334 -192 q 316 -166 296 -141 q 275 -117 254 -93 q 233 -70 212 -47 l 212 -47 l 208 -63 q 229 -65 250 -65 q 271 -66 286 -66 l 286 -66 l 342 -66 q 352 -66 366 -65 q 380 -65 396 -65 q 411 -65 423 -64 l 423 -64 l 398 -62 q 368 -99 343 -131 q 317 -164 296 -193 l 296 -193 l 273 -220 q 231 -280 210 -329 q 189 -378 182 -429 q 174 -480 174 -545 l 174 -545 l 174 -635 q 174 -664 169 -681 q 164 -698 154 -706 l 154 -706 q 147 -713 137 -716 q 127 -720 113 -720 l 113 -720 q 100 -720 84 -717 q 68 -715 55 -711 l 55 -711 l 40 -779 q 54 -784 79 -788 q 103 -792 128 -792 z m 131 -260 l 131 -60 l 130 -62 q 153 -84 181 -114 q 209 -145 237 -181 q 264 -217 285 -255 l 285 -255 l 302 -282 q 315 -308 321 -335 q 327 -362 327 -386 l 327 -386 q 327 -418 317 -444 q 306 -470 286 -485 q 266 -500 236 -500 l 236 -500 q 207 -500 187 -480 q 166 -460 153 -425 l 153 -425 q 146 -406 141 -383 q 136 -360 134 -330 q 131 -300 131 -260 l 131 -260 z"},"ൕ":{"ha":794,"x_min":36,"x_max":760,"o":"m 519 12 l 519 12 q 492 12 468 8 q 444 4 424 -4 q 403 -13 384 -25 l 384 -25 q 377 -30 372 -36 q 366 -43 360 -48 l 360 -48 q 323 -83 298 -130 q 272 -177 259 -233 q 246 -289 246 -351 l 246 -351 q 246 -385 255 -422 q 263 -459 279 -490 l 279 -490 l 292 -507 q 306 -525 323 -538 q 339 -551 361 -558 q 382 -566 409 -566 l 409 -566 q 484 -566 527 -509 q 569 -453 569 -346 l 569 -346 q 569 -280 555 -223 q 541 -167 514 -121 q 487 -76 448 -42 l 448 -42 q 444 -38 437 -32 q 429 -27 424 -23 l 424 -23 q 396 -5 363 4 q 329 12 290 12 l 290 12 q 229 12 182 -13 q 134 -38 102 -83 q 69 -129 53 -191 q 36 -253 36 -328 l 36 -328 q 36 -403 57 -456 q 78 -509 117 -537 q 156 -566 209 -566 l 209 -566 q 251 -566 281 -550 q 311 -534 346 -499 l 346 -499 l 288 -455 q 271 -480 253 -489 q 235 -499 215 -499 l 215 -499 q 187 -499 165 -481 q 142 -463 130 -425 q 117 -387 117 -327 l 117 -327 q 117 -242 139 -180 q 160 -119 199 -86 q 238 -53 292 -53 l 292 -53 q 318 -53 337 -56 q 355 -59 371 -68 l 371 -68 q 377 -71 383 -74 q 389 -78 394 -82 l 394 -82 q 427 -109 448 -151 q 469 -194 479 -244 q 488 -295 488 -344 l 488 -344 q 488 -404 477 -438 q 465 -472 447 -486 q 429 -500 408 -500 l 408 -500 q 383 -500 365 -483 q 346 -466 337 -431 q 327 -397 327 -346 l 327 -346 q 327 -304 336 -254 q 345 -204 366 -159 q 386 -114 418 -86 l 418 -86 q 423 -82 429 -78 q 434 -75 439 -72 l 439 -72 q 454 -63 472 -58 q 490 -53 515 -53 l 515 -53 q 570 -53 606 -74 q 642 -96 661 -133 q 679 -171 679 -220 l 679 -220 q 679 -263 672 -298 q 665 -333 651 -369 q 637 -405 614 -450 l 614 -450 q 592 -495 576 -529 q 559 -564 551 -596 q 542 -628 542 -662 l 542 -662 q 542 -691 554 -721 q 565 -751 593 -771 q 621 -792 670 -792 l 670 -792 q 691 -792 713 -788 q 734 -784 747 -779 l 747 -779 l 732 -711 q 720 -716 708 -718 q 696 -720 681 -720 l 681 -720 q 649 -720 635 -700 q 621 -681 621 -658 l 621 -658 q 621 -634 627 -612 q 632 -590 646 -561 q 659 -532 682 -485 l 682 -485 q 705 -441 723 -397 q 740 -354 750 -311 q 760 -269 760 -227 l 760 -227 q 760 -189 751 -153 q 742 -118 724 -88 q 705 -58 677 -35 q 648 -13 609 0 q 569 12 519 12 z"},"ൖ":{"ha":578,"x_min":34,"x_max":544,"o":"m 176 -161 l 176 -161 q 176 -133 184 -108 q 192 -84 212 -69 q 232 -55 267 -55 l 267 -55 q 311 -55 324 -77 q 337 -99 337 -127 l 337 -127 q 337 -163 327 -197 q 317 -231 304 -265 q 290 -299 280 -337 q 270 -375 270 -418 l 270 -418 q 270 -461 286 -494 q 302 -528 332 -547 q 361 -566 403 -566 l 403 -566 q 453 -566 484 -542 q 515 -518 530 -480 q 544 -442 544 -400 l 544 -400 q 544 -328 518 -272 q 492 -216 440 -184 q 388 -152 309 -152 l 309 -152 l 295 -152 q 250 -152 215 -160 q 180 -168 147 -186 l 147 -186 l 124 -197 q 94 -218 74 -247 q 54 -277 44 -313 q 34 -350 34 -393 l 34 -393 q 34 -439 46 -481 q 57 -523 83 -566 l 83 -566 l 147 -530 q 129 -495 121 -462 q 113 -430 113 -394 l 113 -394 q 113 -354 120 -324 q 127 -294 142 -270 l 142 -270 l 160 -257 q 183 -236 218 -226 q 252 -217 295 -217 l 295 -217 l 310 -217 q 365 -217 399 -239 q 433 -262 449 -303 q 465 -344 465 -399 l 465 -399 q 465 -440 451 -470 q 437 -501 405 -501 l 405 -501 q 385 -501 371 -489 q 357 -478 350 -458 q 343 -439 343 -414 l 343 -414 q 343 -371 354 -334 q 364 -298 378 -264 q 392 -231 403 -196 q 413 -162 413 -122 l 413 -122 q 413 -99 406 -75 q 399 -52 383 -32 q 367 -12 339 0 q 310 12 266 12 l 266 12 q 217 12 181 -7 q 144 -26 124 -66 q 103 -106 103 -169 l 103 -169 q 103 -204 112 -243 q 120 -282 138 -331 q 156 -380 182 -444 l 182 -444 q 203 -494 217 -531 q 230 -569 237 -598 q 243 -628 243 -653 l 243 -653 q 243 -685 228 -702 q 212 -720 183 -720 l 183 -720 q 169 -720 154 -718 q 138 -716 127 -712 l 127 -712 l 112 -780 q 126 -785 149 -788 q 172 -792 197 -792 l 197 -792 q 247 -792 274 -772 q 301 -753 312 -726 q 322 -699 322 -674 l 322 -674 q 322 -649 318 -624 q 314 -599 306 -571 q 297 -543 284 -507 q 270 -471 252 -423 l 252 -423 q 229 -363 214 -323 q 199 -283 191 -255 q 182 -227 179 -205 q 176 -184 176 -161 z"},"ൗ":{"ha":586,"x_min":33,"x_max":548,"o":"m 391 -566 l 391 -566 q 441 -566 476 -537 q 511 -509 530 -451 q 548 -394 548 -305 l 548 -305 q 548 -192 521 -122 q 494 -52 442 -20 q 390 12 316 12 l 316 12 q 279 12 235 4 q 191 -5 151 -28 l 151 -28 l 189 -92 q 214 -79 246 -69 q 277 -60 311 -60 l 311 -60 q 368 -60 402 -86 q 436 -112 451 -166 q 466 -220 466 -305 l 466 -305 q 466 -400 444 -449 q 422 -498 384 -498 l 384 -498 q 371 -498 363 -494 q 354 -490 347 -482 l 347 -482 q 334 -467 329 -440 q 324 -413 324 -354 l 324 -354 l 324 -260 l 245 -260 l 245 -355 q 245 -404 241 -431 q 237 -458 226 -474 l 226 -474 q 219 -486 208 -492 q 196 -498 182 -498 l 182 -498 q 148 -498 131 -468 q 113 -438 113 -393 l 113 -393 q 113 -359 117 -328 q 121 -298 127 -273 l 127 -273 l 53 -256 q 45 -288 39 -323 q 33 -359 33 -397 l 33 -397 q 33 -443 49 -481 q 64 -519 95 -542 q 126 -566 175 -566 l 175 -566 q 215 -566 243 -547 q 270 -528 288 -492 l 288 -492 l 276 -493 q 297 -534 325 -550 q 353 -566 391 -566 z"},"൘":{"ha":922,"x_min":35,"x_max":880,"o":"m 457 12 l 457 12 q 415 12 384 -7 q 352 -27 329 -73 l 329 -73 l 343 -74 q 321 -33 291 -10 q 261 12 212 12 l 212 12 q 156 12 116 -21 q 76 -55 56 -114 q 35 -174 35 -253 l 35 -253 q 35 -328 49 -383 q 63 -439 88 -482 q 112 -526 141 -562 l 141 -562 l 203 -510 q 181 -484 162 -449 q 142 -414 130 -367 q 117 -320 117 -257 l 117 -257 q 117 -195 130 -149 q 143 -104 166 -80 q 189 -56 218 -56 l 218 -56 q 235 -56 248 -63 q 260 -70 269 -82 l 269 -82 q 286 -105 291 -138 q 296 -172 296 -224 l 296 -224 l 296 -554 l 375 -554 l 375 -221 q 375 -175 380 -143 q 384 -112 397 -89 l 397 -89 q 407 -73 422 -64 q 436 -56 458 -56 l 458 -56 q 482 -56 497 -64 q 512 -73 522 -89 l 522 -89 q 534 -109 537 -139 q 540 -169 540 -218 l 540 -218 l 540 -554 l 619 -554 l 619 -250 l 586 -72 q 564 -31 534 -9 q 504 12 457 12 z m 703 12 l 703 12 q 660 12 628 -8 q 596 -29 573 -75 l 573 -75 l 547 -216 l 547 -544 l 619 -544 l 619 -225 q 619 -172 626 -136 q 632 -101 649 -79 l 649 -79 q 658 -68 670 -62 q 682 -56 698 -56 l 698 -56 q 730 -56 753 -84 q 775 -112 787 -169 q 799 -227 799 -315 l 799 -315 q 799 -421 783 -498 q 766 -576 737 -629 q 707 -682 667 -714 q 626 -746 578 -760 q 529 -774 475 -774 l 475 -774 q 434 -774 388 -769 q 342 -764 297 -751 l 297 -751 l 286 -820 q 319 -829 349 -834 q 379 -839 410 -841 q 441 -843 477 -843 l 477 -843 q 554 -843 618 -823 q 681 -803 730 -762 q 778 -721 812 -658 q 845 -595 863 -509 q 880 -424 880 -315 l 880 -315 q 880 -201 860 -128 q 839 -56 800 -22 q 760 12 703 12 z"},"൙":{"ha":857,"x_min":36,"x_max":837,"o":"m 278 -566 l 278 -566 q 342 -566 390 -542 q 437 -519 469 -475 q 500 -432 516 -371 q 532 -310 532 -234 l 532 -234 q 532 -139 512 -85 q 491 -31 456 -9 q 420 12 374 12 l 374 12 q 323 12 292 -10 q 260 -32 246 -66 q 231 -101 231 -140 l 231 -140 q 231 -196 249 -230 q 267 -264 295 -285 l 295 -285 q 317 -301 343 -309 q 369 -318 405 -322 q 440 -326 490 -326 l 490 -326 l 549 -326 l 549 -260 l 488 -260 q 431 -260 400 -253 q 368 -246 346 -229 l 346 -229 q 329 -216 319 -194 q 309 -173 309 -141 l 309 -141 q 309 -101 326 -77 q 343 -54 374 -54 l 374 -54 q 400 -54 418 -72 q 435 -90 445 -130 q 454 -170 454 -236 l 454 -236 q 454 -258 453 -274 q 452 -290 450 -303 l 450 -303 l 448 -323 q 442 -372 422 -411 q 401 -451 367 -474 q 332 -498 283 -498 l 283 -498 q 231 -498 194 -471 q 157 -445 138 -396 q 118 -348 118 -281 l 118 -281 q 118 -225 129 -181 q 140 -138 160 -105 q 180 -72 206 -47 l 206 -47 l 150 8 q 119 -21 93 -63 q 67 -106 52 -162 q 36 -218 36 -288 l 36 -288 q 36 -344 51 -394 q 66 -445 96 -483 q 126 -522 172 -544 q 217 -566 278 -566 z m 710 -554 l 710 -554 q 755 -554 783 -535 q 811 -516 824 -484 q 837 -453 837 -416 l 837 -416 q 837 -379 824 -347 q 811 -315 785 -295 l 785 -295 q 768 -282 748 -274 q 727 -267 699 -263 q 671 -260 633 -260 l 633 -260 l 501 -260 l 507 -326 l 651 -326 q 692 -326 711 -333 q 729 -340 741 -353 l 741 -353 q 752 -364 757 -380 q 761 -397 761 -418 l 761 -418 q 761 -451 748 -470 q 735 -489 709 -489 l 709 -489 q 681 -489 666 -467 q 651 -445 651 -409 l 651 -409 q 651 -369 663 -340 q 674 -312 688 -289 l 688 -289 l 617 -283 q 601 -309 589 -343 q 577 -377 577 -417 l 577 -417 q 577 -461 594 -491 q 611 -522 641 -538 q 671 -554 710 -554 z"},"൚":{"ha":814,"x_min":36,"x_max":763,"o":"m 528 -566 l 528 -566 q 588 -566 632 -549 q 675 -532 703 -499 l 703 -499 q 724 -475 738 -444 q 751 -414 757 -373 q 763 -333 763 -278 l 763 -278 l 763 0 l 385 0 l 385 -64 q 429 -113 463 -171 q 497 -229 517 -289 q 536 -350 536 -408 l 536 -408 q 536 -436 532 -456 q 527 -477 516 -488 q 505 -499 486 -499 l 486 -499 q 461 -499 440 -479 q 418 -459 405 -424 l 405 -424 q 394 -393 390 -355 q 386 -317 386 -257 l 386 -257 l 386 -230 l 307 -230 l 307 -326 q 307 -390 300 -422 q 293 -455 277 -474 l 277 -474 q 267 -485 255 -491 q 242 -498 225 -498 l 225 -498 q 195 -498 171 -474 q 147 -450 133 -405 q 118 -360 118 -297 l 118 -297 q 118 -235 131 -188 q 143 -141 163 -106 q 182 -71 204 -44 l 204 -44 l 142 8 q 113 -28 89 -71 q 65 -114 51 -170 q 36 -227 36 -301 l 36 -301 q 36 -381 58 -440 q 80 -500 122 -533 q 164 -566 223 -566 l 223 -566 q 256 -566 281 -555 q 306 -545 327 -521 q 348 -498 368 -458 l 368 -458 l 335 -449 q 355 -492 383 -517 q 411 -543 447 -554 q 483 -566 528 -566 z m 616 -397 l 616 -397 q 616 -333 597 -274 q 578 -215 543 -158 q 508 -102 461 -45 l 461 -45 l 448 -61 q 468 -63 498 -64 q 527 -66 543 -66 l 543 -66 l 684 -66 l 684 -279 q 684 -345 673 -389 q 662 -434 639 -461 q 616 -488 578 -499 l 578 -499 l 578 -505 q 596 -484 606 -457 q 616 -430 616 -397 z"},"൛":{"ha":733,"x_min":59,"x_max":697,"o":"m 471 12 l 471 12 q 414 12 373 -9 q 331 -30 304 -67 q 276 -105 263 -155 q 250 -206 250 -265 l 250 -265 q 250 -318 260 -361 q 269 -405 286 -440 q 302 -475 324 -502 l 324 -502 l 328 -488 l 138 -488 l 138 0 l 59 0 l 59 -554 l 373 -554 l 411 -499 q 392 -479 374 -447 q 355 -416 344 -372 q 332 -329 332 -273 l 332 -273 q 332 -203 350 -154 q 367 -106 399 -81 q 430 -56 472 -56 l 472 -56 q 515 -56 547 -82 q 579 -108 597 -156 q 615 -205 615 -272 l 615 -272 q 615 -327 604 -370 q 593 -414 573 -448 q 553 -482 527 -507 l 527 -507 l 583 -562 q 615 -534 641 -491 q 666 -449 682 -392 q 697 -336 697 -266 l 697 -266 q 697 -208 683 -157 q 669 -106 641 -68 q 612 -31 570 -9 q 528 12 471 12 z"},"൜":{"ha":1143,"x_min":36,"x_max":1107,"o":"m 688 -566 l 688 -566 q 723 -566 750 -556 q 776 -546 795 -527 l 795 -527 q 812 -511 822 -488 q 832 -466 837 -434 q 842 -402 842 -354 l 842 -354 l 842 -237 q 842 -172 847 -137 q 851 -102 866 -81 l 866 -81 q 875 -69 889 -62 q 902 -56 924 -56 l 924 -56 q 955 -56 978 -79 q 1000 -103 1013 -147 q 1025 -192 1025 -253 l 1025 -253 q 1025 -317 1013 -366 q 1000 -415 980 -451 q 960 -488 938 -514 l 938 -514 l 1000 -566 q 1029 -530 1054 -485 q 1078 -441 1093 -383 q 1107 -326 1107 -249 l 1107 -249 q 1107 -165 1085 -107 q 1062 -49 1022 -18 q 981 12 926 12 l 926 12 q 886 12 858 1 q 829 -10 808 -31 l 808 -31 q 790 -49 780 -73 q 770 -98 767 -128 q 763 -159 763 -194 l 763 -194 l 763 -352 q 763 -395 759 -425 q 755 -456 740 -475 l 740 -475 q 732 -486 718 -492 q 704 -498 687 -498 l 687 -498 q 670 -498 656 -492 q 642 -486 634 -475 l 634 -475 q 619 -456 615 -425 q 611 -395 611 -352 l 611 -352 l 611 -202 q 611 -157 606 -123 q 601 -90 591 -67 q 581 -44 564 -27 l 564 -27 q 545 -8 520 2 q 494 12 455 12 l 455 12 q 418 12 393 2 q 367 -8 348 -27 l 348 -27 q 332 -44 322 -67 q 311 -91 306 -123 q 301 -156 301 -200 l 301 -200 l 301 -317 q 301 -382 297 -417 q 292 -452 277 -473 l 277 -473 q 268 -485 255 -491 q 242 -498 219 -498 l 219 -498 q 189 -498 166 -474 q 143 -451 131 -407 q 118 -363 118 -301 l 118 -301 q 118 -237 131 -188 q 143 -139 163 -103 q 183 -67 205 -40 l 205 -40 l 143 12 q 114 -24 90 -68 q 65 -113 51 -171 q 36 -229 36 -305 l 36 -305 q 36 -386 58 -444 q 79 -503 121 -534 q 163 -566 223 -566 l 223 -566 q 259 -566 286 -555 q 313 -545 332 -526 l 332 -526 q 353 -505 363 -478 q 373 -452 377 -419 q 380 -387 380 -346 l 380 -346 l 380 -202 q 380 -159 384 -129 q 388 -99 403 -79 l 403 -79 q 411 -68 425 -62 q 439 -56 456 -56 l 456 -56 q 473 -56 487 -62 q 501 -68 509 -79 l 509 -79 q 524 -99 528 -129 q 532 -159 532 -202 l 532 -202 l 532 -348 q 532 -396 537 -429 q 542 -463 553 -487 q 563 -511 579 -527 l 579 -527 q 598 -546 624 -556 q 649 -566 688 -566 z"},"൝":{"ha":1524,"x_min":10,"x_max":1488,"o":"m 607 -566 l 607 -566 q 642 -566 669 -556 q 695 -546 714 -527 l 714 -527 q 731 -511 741 -488 q 751 -466 756 -434 q 761 -402 761 -354 l 761 -354 l 761 -202 q 761 -159 765 -129 q 769 -99 784 -79 l 784 -79 q 792 -68 806 -62 q 820 -56 837 -56 l 837 -56 q 854 -56 868 -62 q 882 -68 890 -79 l 890 -79 q 905 -99 909 -129 q 913 -159 913 -202 l 913 -202 l 913 -348 q 913 -396 918 -429 q 923 -463 934 -487 q 944 -511 960 -527 l 960 -527 q 979 -546 1005 -556 q 1030 -566 1069 -566 l 1069 -566 q 1104 -566 1131 -556 q 1157 -546 1176 -527 l 1176 -527 q 1193 -511 1203 -488 q 1213 -466 1218 -434 q 1223 -402 1223 -354 l 1223 -354 l 1223 -237 q 1223 -172 1228 -137 q 1232 -102 1247 -81 l 1247 -81 q 1256 -69 1270 -62 q 1283 -56 1305 -56 l 1305 -56 q 1336 -56 1359 -79 q 1381 -103 1394 -147 q 1406 -192 1406 -253 l 1406 -253 q 1406 -317 1394 -366 q 1381 -415 1361 -451 q 1341 -488 1319 -514 l 1319 -514 l 1381 -566 q 1410 -530 1435 -485 q 1459 -441 1474 -383 q 1488 -326 1488 -249 l 1488 -249 q 1488 -165 1466 -107 q 1443 -49 1403 -18 q 1362 12 1307 12 l 1307 12 q 1267 12 1239 1 q 1210 -10 1189 -31 l 1189 -31 q 1171 -49 1161 -73 q 1151 -98 1148 -128 q 1144 -159 1144 -194 l 1144 -194 l 1144 -352 q 1144 -395 1140 -425 q 1136 -456 1121 -475 l 1121 -475 q 1113 -486 1099 -492 q 1085 -498 1068 -498 l 1068 -498 q 1051 -498 1037 -492 q 1023 -486 1015 -475 l 1015 -475 q 1000 -456 996 -425 q 992 -395 992 -352 l 992 -352 l 992 -202 q 992 -157 987 -123 q 982 -90 972 -67 q 962 -44 945 -27 l 945 -27 q 926 -8 901 2 q 875 12 836 12 l 836 12 q 799 12 774 2 q 748 -8 729 -27 l 729 -27 q 713 -44 703 -67 q 692 -91 687 -123 q 682 -156 682 -200 l 682 -200 l 682 -352 q 682 -395 678 -425 q 674 -456 659 -475 l 659 -475 q 651 -486 637 -492 q 623 -498 606 -498 l 606 -498 q 589 -498 575 -492 q 561 -486 553 -475 l 553 -475 q 538 -456 534 -425 q 530 -395 530 -352 l 530 -352 l 530 -194 q 530 -124 519 -88 q 508 -53 483 -27 l 483 -27 q 464 -8 438 2 q 412 12 380 12 l 380 12 q 328 12 297 -11 q 266 -34 246 -74 l 246 -74 l 257 -75 q 241 -47 223 -27 q 205 -8 182 2 q 158 12 123 12 l 123 12 q 88 12 61 5 q 33 -3 10 -15 l 10 -15 l 38 -79 q 55 -70 77 -63 q 99 -57 123 -57 l 123 -57 q 143 -57 157 -62 q 171 -67 181 -79 l 181 -79 q 197 -96 205 -129 q 212 -163 212 -221 l 212 -221 l 212 -554 l 291 -554 l 291 -223 q 291 -167 295 -137 q 299 -107 311 -87 l 311 -87 q 320 -72 335 -64 q 350 -56 370 -56 l 370 -56 q 390 -56 404 -62 q 418 -69 427 -80 l 427 -80 q 442 -100 447 -129 q 451 -159 451 -202 l 451 -202 l 451 -348 q 451 -396 456 -429 q 461 -463 472 -487 q 482 -511 498 -527 l 498 -527 q 517 -546 543 -556 q 568 -566 607 -566 z"},"൞":{"ha":1054,"x_min":36,"x_max":1027,"o":"m 278 -566 l 278 -566 q 342 -566 390 -542 q 437 -519 469 -475 q 500 -432 516 -371 q 532 -310 532 -234 l 532 -234 q 532 -139 512 -85 q 491 -31 456 -9 q 420 12 374 12 l 374 12 q 323 12 292 -10 q 260 -32 246 -66 q 231 -101 231 -140 l 231 -140 q 231 -196 249 -230 q 267 -264 295 -285 l 295 -285 q 317 -301 343 -309 q 369 -318 405 -322 q 440 -326 490 -326 l 490 -326 l 499 -326 l 499 -260 l 488 -260 q 431 -260 400 -253 q 368 -246 346 -229 l 346 -229 q 329 -216 319 -194 q 309 -173 309 -141 l 309 -141 q 309 -101 326 -77 q 343 -54 374 -54 l 374 -54 q 400 -54 418 -72 q 435 -90 445 -130 q 454 -170 454 -236 l 454 -236 q 454 -258 453 -274 q 452 -290 450 -303 l 450 -303 l 448 -323 q 442 -372 422 -411 q 401 -451 367 -474 q 332 -498 283 -498 l 283 -498 q 231 -498 194 -471 q 157 -445 138 -396 q 118 -348 118 -281 l 118 -281 q 118 -225 129 -181 q 140 -138 160 -105 q 180 -72 206 -47 l 206 -47 l 150 8 q 119 -21 93 -63 q 67 -106 52 -162 q 36 -218 36 -288 l 36 -288 q 36 -344 51 -394 q 66 -445 96 -483 q 126 -522 172 -544 q 217 -566 278 -566 z m 875 -208 l 875 -208 q 823 -208 790 -232 q 756 -256 740 -294 q 723 -333 723 -376 l 723 -376 q 723 -420 736 -452 q 749 -484 760 -497 l 760 -497 l 774 -488 l 602 -488 l 637 -496 q 650 -479 659 -454 q 667 -430 667 -401 l 667 -401 q 667 -346 645 -315 q 623 -284 587 -272 q 551 -260 509 -260 l 509 -260 l 497 -260 l 497 -326 l 511 -326 q 535 -326 553 -333 q 571 -340 581 -356 q 590 -373 590 -400 l 590 -400 q 590 -429 581 -450 q 572 -472 561 -488 l 561 -488 l 584 -554 l 805 -554 l 836 -502 q 822 -480 811 -452 q 800 -425 800 -386 l 800 -386 q 800 -334 819 -304 q 838 -274 874 -274 l 874 -274 q 898 -274 915 -287 q 932 -300 941 -324 q 950 -348 950 -380 l 950 -380 q 950 -423 937 -454 q 924 -486 901 -517 l 901 -517 l 957 -561 q 986 -527 1007 -482 q 1027 -437 1027 -380 l 1027 -380 q 1027 -327 1008 -288 q 989 -250 955 -229 q 921 -208 875 -208 z"},"ൟ":{"ha":1058,"x_min":23,"x_max":1035,"o":"m 23 -268 l 23 -268 q 23 -330 54 -364 q 84 -398 131 -398 l 131 -398 q 179 -398 210 -364 q 241 -331 241 -268 l 241 -268 q 241 -206 211 -172 q 180 -138 131 -138 l 131 -138 q 83 -138 53 -172 q 23 -206 23 -268 z m 87 -269 l 87 -269 q 87 -237 98 -218 q 109 -199 131 -199 l 131 -199 q 154 -199 166 -218 q 177 -237 177 -269 l 177 -269 q 177 -301 165 -319 q 153 -337 131 -337 l 131 -337 q 110 -337 99 -319 q 87 -301 87 -269 z m 817 -268 l 817 -268 q 817 -330 848 -364 q 878 -398 925 -398 l 925 -398 q 973 -398 1004 -364 q 1035 -331 1035 -268 l 1035 -268 q 1035 -206 1005 -172 q 974 -138 925 -138 l 925 -138 q 877 -138 847 -172 q 817 -206 817 -268 z m 881 -269 l 881 -269 q 881 -237 892 -218 q 903 -199 925 -199 l 925 -199 q 948 -199 960 -218 q 971 -237 971 -269 l 971 -269 q 971 -301 959 -319 q 947 -337 925 -337 l 925 -337 q 904 -337 893 -319 q 881 -301 881 -269 z m 522 -566 l 522 -566 q 586 -566 634 -543 q 681 -520 713 -477 q 744 -434 760 -374 q 776 -315 776 -242 l 776 -242 q 776 -147 756 -91 q 735 -35 699 -11 q 663 12 616 12 l 616 12 q 565 12 533 -15 q 500 -43 484 -91 q 468 -139 468 -199 l 468 -199 q 468 -298 505 -350 q 542 -402 607 -402 l 607 -402 q 642 -402 666 -387 q 690 -372 710 -342 q 729 -312 748 -266 l 748 -266 l 721 -249 q 715 -266 703 -286 q 690 -307 671 -322 q 651 -337 625 -337 l 625 -337 q 584 -337 565 -300 q 546 -263 546 -198 l 546 -198 q 546 -152 554 -119 q 561 -87 577 -70 q 593 -53 617 -53 l 617 -53 q 643 -53 662 -72 q 680 -92 690 -135 q 700 -178 700 -248 l 700 -248 q 700 -250 699 -270 q 697 -290 695 -310 l 695 -310 q 694 -315 695 -323 q 695 -331 693 -335 l 693 -335 q 687 -378 667 -415 q 646 -452 611 -475 q 576 -498 527 -498 l 527 -498 q 475 -498 438 -471 q 401 -445 382 -396 q 362 -348 362 -281 l 362 -281 q 362 -225 373 -181 q 384 -138 404 -105 q 424 -72 450 -47 l 450 -47 l 394 8 q 363 -21 337 -63 q 311 -106 296 -162 q 280 -218 280 -288 l 280 -288 q 280 -345 295 -395 q 310 -446 340 -484 q 370 -522 416 -544 q 461 -566 522 -566 z"},"ൠ":{"ha":679,"x_min":34,"x_max":645,"o":"m 506 -566 l 506 -566 q 571 -566 608 -512 q 645 -458 645 -364 l 645 -364 q 645 -301 631 -254 q 617 -208 586 -173 l 586 -173 q 561 -145 528 -127 q 495 -110 453 -102 l 453 -102 l 363 -99 l 320 -99 l 239 -100 q 191 -108 155 -125 q 119 -143 93 -172 l 93 -172 q 63 -207 49 -253 q 34 -299 34 -360 l 34 -360 q 34 -420 52 -466 q 69 -513 103 -539 q 137 -566 185 -566 l 185 -566 q 229 -566 257 -545 q 284 -524 297 -489 q 310 -454 310 -411 l 310 -411 q 310 -360 297 -325 q 283 -290 256 -271 q 228 -253 184 -253 l 184 -253 q 159 -253 138 -261 q 116 -270 97 -285 q 77 -300 57 -319 l 57 -319 l 81 -370 q 96 -353 109 -341 q 122 -329 136 -323 q 150 -318 167 -318 l 167 -318 q 204 -318 219 -342 q 234 -366 234 -412 l 234 -412 q 234 -450 222 -475 q 209 -500 180 -500 l 180 -500 q 156 -500 140 -484 q 124 -468 116 -437 q 107 -407 107 -365 l 107 -365 q 107 -350 109 -334 q 110 -319 113 -304 l 113 -304 l 111 -285 q 119 -252 138 -227 q 156 -202 184 -186 q 211 -170 246 -162 q 280 -154 321 -154 l 321 -154 l 358 -154 q 399 -154 434 -162 q 468 -170 496 -186 q 523 -203 542 -228 q 560 -253 568 -287 l 568 -287 l 566 -306 q 568 -318 570 -335 q 572 -352 572 -365 l 572 -365 q 572 -410 565 -440 q 558 -470 544 -485 q 529 -500 506 -500 l 506 -500 q 475 -500 460 -474 q 445 -449 445 -405 l 445 -405 q 445 -364 459 -341 q 473 -318 510 -318 l 510 -318 q 527 -318 541 -323 q 555 -329 569 -340 q 582 -352 597 -368 l 597 -368 l 621 -317 q 603 -300 584 -285 q 564 -270 542 -261 q 520 -253 495 -253 l 495 -253 q 451 -253 423 -272 q 395 -291 382 -325 q 369 -360 369 -408 l 369 -408 q 369 -452 383 -487 q 397 -523 428 -544 q 458 -566 506 -566 z m 340 213 l 340 213 q 250 213 188 193 q 126 173 94 133 q 62 93 62 33 l 62 33 q 62 -10 80 -41 q 98 -73 129 -93 q 160 -114 202 -124 q 243 -134 289 -134 l 289 -134 l 389 -134 q 436 -134 477 -124 q 518 -114 550 -93 q 581 -73 599 -41 q 617 -10 617 33 l 617 33 q 617 93 586 133 q 554 173 492 193 q 430 213 340 213 z m 340 147 l 340 147 q 410 147 453 133 q 496 119 516 93 q 536 66 536 29 l 536 29 q 536 -4 523 -26 q 509 -48 484 -62 q 459 -76 426 -82 q 392 -88 351 -88 l 351 -88 l 328 -88 q 274 -88 233 -76 q 191 -65 167 -39 q 143 -14 143 29 l 143 29 q 143 68 163 94 q 183 120 227 134 q 270 147 340 147 z m 401 -46 l 401 -46 q 426 -46 441 -36 q 456 -27 464 -11 q 472 5 475 25 q 477 44 477 63 l 477 63 l 477 93 l 421 93 l 421 74 q 421 46 416 31 q 411 16 394 16 l 394 16 q 378 16 373 32 q 367 47 367 72 l 367 72 l 367 93 l 311 93 l 311 73 q 311 47 306 32 q 301 16 285 16 l 285 16 q 268 16 263 32 q 258 48 258 74 l 258 74 l 258 93 l 202 93 l 202 63 q 202 45 205 26 q 207 6 215 -10 q 223 -26 239 -36 q 254 -46 279 -46 l 279 -46 q 302 -46 316 -36 q 329 -27 339 -12 l 339 -12 q 351 -29 366 -37 q 381 -46 401 -46 z"},"ൡ":{"ha":998,"x_min":38,"x_max":976,"o":"m 277 -566 l 277 -566 q 339 -566 376 -542 q 413 -518 444 -473 l 444 -473 l 460 -417 l 472 -264 l 472 0 l 393 0 l 393 -326 q 393 -380 387 -412 q 380 -444 362 -465 l 362 -465 q 349 -480 329 -489 q 308 -498 279 -498 l 279 -498 q 228 -498 191 -466 q 154 -434 134 -378 q 113 -322 113 -251 l 113 -251 l 113 -222 q 113 -161 123 -124 q 132 -87 149 -71 q 165 -55 187 -55 l 187 -55 q 204 -55 217 -65 q 229 -76 236 -98 q 243 -120 243 -157 l 243 -157 q 243 -213 226 -236 q 209 -260 177 -260 l 177 -260 q 151 -260 130 -246 q 109 -233 86 -204 l 86 -204 l 65 -257 q 88 -283 122 -304 q 156 -326 195 -326 l 195 -326 q 235 -326 263 -308 q 291 -290 306 -253 q 321 -216 321 -160 l 321 -160 q 321 -101 306 -63 q 290 -25 261 -6 q 231 12 188 12 l 188 12 q 147 12 113 -12 q 79 -37 59 -92 q 38 -148 38 -241 l 38 -241 q 38 -352 70 -424 q 101 -496 155 -531 q 209 -566 277 -566 z m 595 -566 l 595 -566 q 671 -566 720 -534 q 769 -503 796 -450 q 823 -397 831 -330 l 831 -330 q 835 -306 837 -280 q 838 -254 838 -228 l 838 -228 q 838 -138 820 -85 q 801 -33 767 -10 q 732 12 682 12 l 682 12 q 632 12 600 -12 q 568 -36 553 -76 q 537 -117 537 -168 l 537 -168 q 537 -273 595 -326 q 652 -380 742 -380 l 742 -380 q 751 -380 762 -379 q 773 -379 782 -377 l 782 -377 l 797 -377 q 853 -365 893 -326 q 933 -287 955 -226 q 976 -166 976 -88 l 976 -88 q 976 -23 962 31 q 947 84 917 122 q 886 160 839 181 q 791 201 726 201 l 726 201 q 696 201 671 197 q 646 192 621 184 l 621 184 l 643 120 q 665 127 686 130 q 707 132 728 132 l 728 132 q 778 132 812 114 q 845 96 864 65 q 883 34 891 -7 q 899 -49 899 -95 l 899 -95 q 899 -146 890 -185 q 881 -225 863 -253 q 845 -282 818 -299 l 818 -299 l 795 -304 q 782 -310 769 -312 q 755 -315 747 -315 l 747 -315 q 708 -315 679 -300 q 649 -285 633 -253 q 616 -222 616 -171 l 616 -171 q 616 -137 623 -110 q 629 -84 644 -69 q 658 -54 682 -54 l 682 -54 q 722 -54 742 -93 q 762 -132 762 -235 l 762 -235 q 762 -260 760 -288 q 758 -316 753 -344 l 753 -344 l 750 -367 q 741 -403 723 -433 q 704 -463 674 -480 q 644 -498 599 -498 l 599 -498 q 573 -498 551 -490 q 529 -483 512 -467 l 512 -467 q 496 -452 488 -430 q 479 -409 476 -380 q 472 -351 472 -311 l 472 -311 l 472 -207 l 419 -459 q 436 -488 459 -512 q 482 -537 516 -551 q 549 -566 595 -566 z"},"ൢ":{"ha":0,"x_min":-625,"x_max":-32,"o":"m -452 -17 l -452 -17 q -409 -17 -378 -1 q -347 14 -322 51 l -322 51 l -297 163 l -297 332 l -364 332 l -364 167 q -364 132 -369 105 q -374 78 -388 62 l -388 62 q -398 51 -412 45 q -427 39 -448 39 l -448 39 q -472 39 -494 47 q -516 55 -532 76 q -549 96 -560 134 l -560 134 q -561 144 -562 155 q -563 166 -563 176 l -563 176 q -563 240 -548 261 q -533 282 -515 282 l -515 282 q -494 282 -482 266 q -471 249 -471 215 l -471 215 q -471 180 -483 165 q -495 149 -515 149 l -515 149 q -536 149 -550 158 q -564 167 -582 187 l -582 187 l -596 142 q -570 118 -548 106 q -527 94 -502 94 l -502 94 q -456 94 -433 126 q -410 157 -410 214 l -410 214 q -410 273 -436 305 q -463 337 -513 337 l -513 337 q -564 337 -594 296 q -625 255 -625 178 l -625 178 q -625 115 -601 72 q -578 28 -539 6 q -500 -17 -452 -17 z m -202 -16 l -202 -16 q -147 -16 -109 8 q -71 32 -51 76 q -32 119 -32 178 l -32 178 q -32 261 -63 299 q -95 337 -142 337 l -142 337 q -178 337 -201 320 q -225 303 -236 275 q -248 247 -248 213 l -248 213 q -248 169 -236 141 q -224 113 -202 99 q -180 85 -151 85 l -151 85 q -126 85 -109 95 q -93 104 -79 125 q -66 146 -50 180 l -50 180 l -73 191 q -91 160 -104 151 q -117 141 -134 141 l -134 141 q -162 141 -174 162 q -187 183 -187 214 l -187 214 q -187 246 -175 264 q -164 281 -142 281 l -142 281 q -118 281 -106 255 q -95 228 -95 185 l -95 185 q -95 171 -95 158 q -96 144 -97 135 l -97 135 l -100 118 q -104 99 -116 81 q -129 63 -149 51 q -170 39 -200 39 l -200 39 q -222 39 -238 46 q -255 52 -266 63 l -266 63 q -282 80 -289 104 q -297 127 -297 174 l -297 174 l -350 96 q -342 60 -320 35 q -298 10 -267 -3 q -236 -16 -202 -16 z"},"ൣ":{"ha":0,"x_min":-625,"x_max":58,"o":"m -452 -17 l -452 -17 q -409 -17 -378 -1 q -347 14 -322 51 l -322 51 l -297 162 l -297 332 l -364 332 l -364 167 q -364 132 -369 105 q -374 78 -388 62 l -388 62 q -398 51 -412 45 q -427 39 -448 39 l -448 39 q -472 39 -494 47 q -516 55 -532 76 q -549 96 -560 134 l -560 134 q -561 144 -562 155 q -563 166 -563 176 l -563 176 q -563 240 -548 261 q -533 282 -515 282 l -515 282 q -494 282 -482 266 q -471 249 -471 215 l -471 215 q -471 180 -483 165 q -495 149 -515 149 l -515 149 q -536 149 -550 158 q -564 167 -582 187 l -582 187 l -596 142 q -570 118 -548 106 q -527 94 -502 94 l -502 94 q -456 94 -433 126 q -410 157 -410 214 l -410 214 q -410 273 -436 305 q -463 337 -513 337 l -513 337 q -564 337 -594 296 q -625 255 -625 178 l -625 178 q -625 115 -601 72 q -578 28 -539 6 q -500 -17 -452 -17 z m -202 -16 l -202 -16 q -155 -16 -117 5 q -80 25 -58 67 q -36 109 -36 174 l -36 174 q -36 231 -48 267 q -61 303 -85 320 q -109 337 -142 337 l -142 337 q -178 337 -201 322 q -225 306 -236 280 q -248 253 -248 221 l -248 221 q -248 162 -213 123 q -179 83 -106 83 l -106 83 q -98 83 -87 84 q -76 85 -65 87 l -65 87 q -29 97 -1 120 q 27 142 43 175 q 58 208 58 253 l 58 253 q 58 290 52 317 q 46 344 35 365 l 35 365 l -22 341 q -14 322 -9 301 q -4 280 -4 257 l -4 257 q -4 208 -18 186 q -33 163 -58 147 l -58 147 l -77 141 q -84 139 -93 138 q -102 136 -107 136 l -107 136 q -152 136 -169 162 q -187 187 -187 222 l -187 222 q -187 252 -176 267 q -166 281 -144 281 l -144 281 q -120 281 -109 254 q -98 227 -98 175 l -98 175 q -98 159 -99 144 q -101 128 -106 114 l -106 114 l -108 100 q -115 82 -128 69 q -141 55 -159 47 q -177 39 -200 39 l -200 39 q -222 39 -238 46 q -255 52 -266 63 l -266 63 q -282 80 -289 104 q -297 127 -297 174 l -297 174 l -350 96 q -344 69 -330 48 q -316 27 -296 13 q -276 -1 -252 -8 q -228 -16 -202 -16 z"},"൦":{"ha":444,"x_min":38,"x_max":406,"o":"m 222 -43 l 222 -43 q 166 -43 125 -70 q 83 -97 61 -150 q 38 -204 38 -283 l 38 -283 q 38 -361 62 -414 q 85 -467 126 -494 q 167 -521 221 -521 l 221 -521 q 278 -521 320 -494 q 361 -467 384 -414 q 406 -362 406 -283 l 406 -283 q 406 -204 383 -150 q 360 -97 319 -70 q 277 -43 222 -43 z m 222 -111 l 222 -111 q 251 -111 274 -128 q 297 -145 311 -183 q 325 -221 325 -283 l 325 -283 q 325 -375 295 -414 q 265 -453 221 -453 l 221 -453 q 178 -453 149 -414 q 119 -375 119 -280 l 119 -280 q 119 -190 149 -150 q 179 -111 222 -111 z"},"൧":{"ha":688,"x_min":11,"x_max":634,"o":"m 296 133 l 296 201 l 211 201 q 162 201 127 194 q 91 187 65 171 l 65 171 q 40 155 26 130 q 11 104 11 69 l 11 69 q 11 34 24 8 q 37 -19 63 -37 l 63 -37 q 77 -47 95 -53 q 113 -59 139 -62 q 164 -66 199 -66 l 199 -66 l 340 -66 l 343 0 l 212 0 q 173 0 155 3 q 137 5 123 12 l 123 12 q 107 19 99 33 q 91 46 91 64 l 91 64 q 91 96 115 114 l 115 114 q 129 124 153 129 q 177 133 215 133 l 215 133 l 296 133 z m 448 -566 l 448 -566 q 494 -566 526 -553 q 558 -541 580 -519 l 580 -519 q 613 -486 624 -438 q 634 -391 634 -328 l 634 -328 l 634 0 l 261 0 l 261 -329 q 261 -371 266 -405 q 270 -440 282 -468 q 293 -497 315 -519 l 315 -519 q 337 -541 370 -553 q 402 -566 448 -566 z m 448 -498 l 448 -498 q 420 -498 401 -489 q 382 -481 370 -466 l 370 -466 q 353 -444 347 -408 q 340 -373 340 -317 l 340 -317 l 340 -66 l 555 -66 l 555 -317 q 555 -373 549 -408 q 542 -444 525 -466 l 525 -466 q 513 -481 494 -489 q 475 -498 448 -498 z"},"൨":{"ha":651,"x_min":36,"x_max":635,"o":"m 262 -566 l 262 -566 q 319 -566 361 -545 q 402 -524 430 -486 q 457 -449 470 -398 q 483 -348 483 -289 l 483 -289 q 483 -236 474 -192 q 464 -149 448 -114 q 431 -80 409 -52 l 409 -52 l 405 -66 l 635 -66 l 635 0 l 360 0 l 322 -55 q 342 -75 360 -106 q 378 -138 390 -181 q 401 -225 401 -281 l 401 -281 q 401 -352 384 -400 q 366 -448 335 -473 q 304 -498 261 -498 l 261 -498 q 218 -498 186 -472 q 154 -446 136 -398 q 118 -350 118 -282 l 118 -282 q 118 -228 129 -184 q 140 -140 160 -106 q 180 -72 206 -47 l 206 -47 l 150 8 q 119 -20 93 -62 q 67 -105 52 -161 q 36 -218 36 -288 l 36 -288 q 36 -347 50 -398 q 64 -449 93 -486 q 121 -524 163 -545 q 205 -566 262 -566 z"},"൩":{"ha":814,"x_min":36,"x_max":798,"o":"m 223 -566 l 223 -566 q 257 -566 281 -553 q 305 -541 323 -521 q 341 -501 354 -477 l 354 -477 l 341 -479 q 367 -526 398 -546 q 429 -566 473 -566 l 473 -566 q 532 -566 573 -532 q 614 -499 636 -440 q 657 -382 657 -305 l 657 -305 q 657 -246 648 -200 q 639 -154 622 -117 q 605 -80 582 -47 l 582 -47 l 565 0 l 531 0 l 495 -44 q 516 -75 534 -110 q 552 -145 564 -191 q 575 -237 575 -301 l 575 -301 q 575 -358 562 -402 q 549 -447 526 -472 q 502 -498 471 -498 l 471 -498 q 455 -498 442 -492 q 428 -487 417 -475 l 417 -475 q 401 -458 394 -425 q 386 -392 386 -333 l 386 -333 l 386 0 l 307 0 l 307 -326 q 307 -390 300 -422 q 293 -455 277 -474 l 277 -474 q 267 -485 255 -491 q 242 -498 225 -498 l 225 -498 q 195 -498 171 -474 q 147 -450 133 -405 q 118 -360 118 -297 l 118 -297 q 118 -235 131 -188 q 143 -141 163 -106 q 182 -71 204 -44 l 204 -44 l 142 8 q 113 -28 89 -71 q 65 -114 51 -170 q 36 -227 36 -301 l 36 -301 q 36 -381 58 -440 q 80 -500 122 -533 q 164 -566 223 -566 z m 545 0 l 587 -66 l 798 -66 l 798 0 l 545 0 z"},"൪":{"ha":605,"x_min":36,"x_max":600,"o":"m 278 -566 l 278 -566 q 340 -566 383 -542 q 425 -518 458 -481 l 458 -481 q 500 -432 523 -364 q 545 -296 545 -216 l 545 -216 q 545 -133 526 -82 q 506 -32 470 -10 q 433 12 381 12 l 381 12 q 328 12 294 -12 q 259 -36 242 -78 q 225 -120 225 -173 l 225 -173 q 225 -230 243 -279 q 260 -328 300 -375 q 340 -423 406 -475 l 406 -475 q 451 -509 476 -531 q 500 -554 510 -574 q 519 -594 519 -619 l 519 -619 q 519 -642 511 -660 q 503 -679 492 -696 l 492 -696 l 566 -730 q 583 -707 592 -682 q 600 -657 600 -626 l 600 -626 q 600 -579 582 -546 q 564 -513 530 -484 q 496 -456 448 -420 l 448 -420 q 400 -381 369 -343 q 337 -306 321 -265 q 305 -224 305 -174 l 305 -174 q 305 -113 326 -83 q 346 -53 381 -53 l 381 -53 q 408 -53 427 -68 q 445 -83 454 -118 q 463 -153 463 -211 l 463 -211 q 463 -276 448 -335 q 432 -394 400 -436 l 400 -436 q 380 -464 350 -481 q 320 -498 283 -498 l 283 -498 q 231 -498 194 -471 q 157 -445 138 -396 q 118 -348 118 -281 l 118 -281 q 118 -225 129 -181 q 140 -138 160 -105 q 180 -72 206 -47 l 206 -47 l 150 8 q 119 -21 93 -63 q 67 -106 52 -162 q 36 -218 36 -288 l 36 -288 q 36 -345 51 -395 q 66 -446 96 -484 q 126 -522 172 -544 q 217 -566 278 -566 z"},"൫":{"ha":761,"x_min":42,"x_max":719,"o":"m 387 -723 l 387 -723 q 470 -723 533 -690 q 595 -658 637 -599 q 678 -540 699 -459 q 719 -379 719 -283 l 719 -283 q 719 -208 706 -134 q 693 -61 664 9 l 664 9 l 588 -17 q 606 -59 617 -104 q 628 -149 634 -195 q 639 -241 639 -286 l 639 -286 q 639 -364 624 -431 q 609 -498 579 -547 q 548 -597 501 -625 q 454 -653 389 -653 l 389 -653 q 306 -653 246 -604 q 186 -555 154 -466 q 122 -377 122 -255 l 122 -255 q 122 -181 133 -115 q 144 -49 169 1 q 193 51 234 80 q 274 108 332 108 l 332 108 q 406 108 443 65 q 480 22 480 -60 l 480 -60 q 480 -102 469 -138 q 458 -174 433 -196 q 408 -218 367 -218 l 367 -218 l 358 -218 l 358 -284 l 366 -284 q 395 -284 414 -290 q 433 -296 447 -310 l 447 -310 q 460 -323 466 -339 q 471 -356 471 -381 l 471 -381 q 471 -425 450 -449 q 429 -474 394 -474 l 394 -474 q 354 -474 329 -447 q 304 -421 292 -377 q 280 -333 280 -278 l 280 -278 q 280 -216 296 -148 q 311 -80 344 -25 l 344 -25 l 271 9 q 238 -56 220 -126 q 201 -197 201 -278 l 201 -278 q 201 -356 225 -415 q 248 -475 292 -509 q 335 -543 395 -543 l 395 -543 q 449 -543 484 -522 q 518 -501 535 -466 q 551 -432 551 -391 l 551 -391 q 551 -357 542 -329 q 533 -301 512 -280 q 490 -260 452 -246 l 452 -246 l 451 -253 q 504 -232 532 -179 q 560 -127 560 -59 l 560 -59 q 560 18 533 71 q 505 124 455 151 q 405 178 335 178 l 335 178 q 244 178 179 129 q 113 79 78 -17 q 42 -113 42 -252 l 42 -252 q 42 -370 70 -458 q 97 -546 145 -605 q 193 -664 256 -693 q 318 -723 387 -723 z"},"൬":{"ha":922,"x_min":35,"x_max":880,"o":"m 457 -566 l 457 -566 q 504 -566 534 -544 q 564 -523 586 -482 l 586 -482 l 619 -304 l 619 0 l 540 0 l 540 -336 q 540 -385 537 -415 q 534 -446 522 -465 l 522 -465 q 512 -481 497 -489 q 482 -498 458 -498 l 458 -498 q 436 -498 422 -489 q 407 -481 397 -465 l 397 -465 q 384 -443 380 -411 q 375 -379 375 -333 l 375 -333 l 375 0 l 296 0 l 296 -330 q 296 -382 291 -415 q 286 -449 269 -472 l 269 -472 q 260 -484 248 -491 q 235 -498 218 -498 l 218 -498 q 189 -498 166 -474 q 143 -450 130 -405 q 117 -360 117 -297 l 117 -297 q 117 -235 130 -188 q 142 -141 162 -106 q 181 -71 203 -44 l 203 -44 l 141 8 q 112 -29 88 -72 q 63 -115 49 -171 q 35 -227 35 -301 l 35 -301 q 35 -380 56 -439 q 76 -499 116 -532 q 156 -566 212 -566 l 212 -566 q 261 -566 291 -543 q 321 -521 343 -480 l 343 -480 l 329 -481 q 352 -527 384 -546 q 415 -566 457 -566 z m 703 -566 l 703 -566 q 789 -566 835 -487 q 880 -408 880 -228 l 880 -228 q 880 -77 850 18 q 820 112 759 157 q 697 201 600 201 l 600 201 q 584 201 562 200 q 539 198 523 194 l 523 194 l 529 126 q 545 130 562 131 q 578 132 596 132 l 596 132 q 654 132 693 110 q 732 87 755 42 q 778 -3 788 -70 q 798 -137 798 -227 l 798 -227 q 798 -322 787 -381 q 775 -441 753 -469 q 730 -498 698 -498 l 698 -498 q 682 -498 670 -492 q 658 -486 649 -475 l 649 -475 q 632 -453 626 -417 q 619 -382 619 -329 l 619 -329 l 619 -10 l 547 -10 l 547 -338 l 573 -479 q 596 -526 628 -546 q 660 -566 703 -566 z"},"൭":{"ha":574,"x_min":37,"x_max":533,"o":"m 289 -566 l 289 -566 q 351 -566 397 -542 q 443 -518 473 -472 q 503 -426 518 -359 q 533 -293 533 -207 l 533 -207 q 533 -101 516 -24 q 499 53 464 103 q 429 153 377 177 q 324 201 252 201 l 252 201 q 230 201 208 200 q 186 198 163 194 l 163 194 l 170 126 q 187 128 206 130 q 225 132 250 132 l 250 132 q 307 132 346 110 q 384 88 407 45 q 430 1 441 -62 q 451 -126 451 -208 l 451 -208 q 451 -350 409 -424 q 367 -498 287 -498 l 287 -498 q 234 -498 195 -464 q 155 -431 134 -373 q 112 -316 112 -243 l 112 -243 l 112 -218 q 112 -159 122 -123 q 131 -87 148 -71 q 164 -55 186 -55 l 186 -55 q 203 -55 216 -65 q 228 -76 235 -98 q 242 -120 242 -157 l 242 -157 q 242 -213 225 -236 q 208 -260 176 -260 l 176 -260 q 150 -260 129 -246 q 108 -233 85 -204 l 85 -204 l 64 -257 q 87 -283 121 -304 q 155 -326 194 -326 l 194 -326 q 234 -326 262 -308 q 290 -290 305 -253 q 320 -216 320 -160 l 320 -160 q 320 -101 305 -63 q 289 -25 260 -6 q 231 12 188 12 l 188 12 q 147 12 113 -12 q 78 -36 58 -91 q 37 -146 37 -237 l 37 -237 q 37 -348 70 -421 q 103 -494 161 -530 q 218 -566 289 -566 z"},"൮":{"ha":733,"x_min":36,"x_max":674,"o":"m 262 -566 l 262 -566 q 319 -566 361 -545 q 402 -524 430 -486 q 457 -449 470 -398 q 483 -348 483 -289 l 483 -289 q 483 -236 474 -192 q 464 -149 448 -114 q 431 -80 409 -52 l 409 -52 l 405 -66 l 595 -66 l 595 -554 l 674 -554 l 674 -154 l 617 0 l 360 0 l 322 -55 q 342 -75 360 -106 q 378 -138 390 -181 q 401 -225 401 -281 l 401 -281 q 401 -352 384 -400 q 366 -448 335 -473 q 304 -498 261 -498 l 261 -498 q 218 -498 186 -472 q 154 -446 136 -398 q 118 -350 118 -282 l 118 -282 q 118 -228 129 -184 q 140 -140 160 -106 q 180 -72 206 -47 l 206 -47 l 150 8 q 119 -20 93 -62 q 67 -105 52 -161 q 36 -218 36 -288 l 36 -288 q 36 -347 50 -398 q 64 -449 93 -486 q 121 -524 163 -545 q 205 -566 262 -566 z m 424 201 l 424 201 q 399 201 375 199 q 351 196 331 190 l 331 190 l 340 122 q 355 126 378 129 q 401 132 423 132 l 423 132 q 475 132 508 120 q 540 108 559 85 q 577 61 585 27 q 593 -8 595 -53 l 595 -53 l 674 -201 l 674 -113 q 674 -42 668 8 q 661 57 646 91 q 631 124 603 149 l 603 149 q 575 174 529 188 q 483 201 424 201 z"},"൯":{"ha":844,"x_min":36,"x_max":839,"o":"m 223 -566 l 223 -566 q 257 -566 283 -554 q 309 -542 328 -521 q 347 -501 359 -477 l 359 -477 l 386 -243 l 386 0 l 307 0 l 307 -326 q 307 -390 300 -422 q 293 -455 277 -474 l 277 -474 q 267 -485 255 -491 q 242 -498 225 -498 l 225 -498 q 195 -498 171 -473 q 147 -449 133 -404 q 118 -359 118 -297 l 118 -297 q 118 -235 131 -188 q 143 -141 163 -106 q 182 -71 204 -44 l 204 -44 l 142 8 q 113 -28 89 -71 q 65 -114 51 -170 q 36 -227 36 -301 l 36 -301 q 36 -380 58 -439 q 80 -499 122 -532 q 164 -566 223 -566 z m 507 -566 l 507 -566 q 567 -566 615 -542 q 662 -519 696 -479 l 696 -479 q 738 -430 761 -361 q 784 -292 784 -216 l 784 -216 q 784 -133 765 -82 q 745 -32 709 -10 q 672 12 620 12 l 620 12 q 567 12 533 -12 q 498 -36 481 -78 q 464 -120 464 -173 l 464 -173 q 464 -230 482 -279 q 500 -328 540 -375 q 579 -423 645 -475 l 645 -475 q 690 -509 715 -531 q 739 -554 749 -574 q 758 -594 758 -619 l 758 -619 q 758 -642 750 -660 q 742 -679 731 -696 l 731 -696 l 805 -730 q 822 -707 831 -682 q 839 -657 839 -626 l 839 -626 q 839 -579 821 -546 q 803 -513 769 -484 q 735 -456 687 -420 l 687 -420 q 639 -381 608 -343 q 576 -306 560 -265 q 544 -224 544 -174 l 544 -174 q 544 -113 565 -83 q 585 -53 620 -53 l 620 -53 q 647 -53 666 -68 q 684 -83 693 -118 q 702 -153 702 -211 l 702 -211 q 702 -276 686 -334 q 670 -392 638 -434 l 638 -434 q 615 -464 581 -481 q 547 -498 509 -498 l 509 -498 q 475 -498 454 -488 q 433 -479 419 -462 l 419 -462 q 406 -446 399 -426 q 391 -406 389 -380 q 386 -354 386 -319 l 386 -319 l 386 -67 l 315 -67 l 315 -297 l 330 -449 q 347 -484 370 -510 q 392 -537 426 -551 q 459 -566 507 -566 z"},"൰":{"ha":805,"x_min":-20,"x_max":769,"o":"m 168 -554 l 247 -554 l 247 -143 l 243 -91 q 243 -16 237 35 q 230 85 207 123 l 207 123 q 185 159 146 180 q 106 201 47 201 l 47 201 q 31 201 14 200 q -3 198 -20 194 l -20 194 l -14 126 q -2 129 11 131 q 23 132 38 132 l 38 132 q 74 132 98 120 q 122 108 136 89 l 136 89 q 158 60 163 16 q 168 -28 168 -94 l 168 -94 l 168 -554 z m 585 12 l 585 12 q 541 12 510 -8 q 479 -29 453 -75 l 453 -75 l 464 -74 q 443 -31 412 -9 q 380 12 333 12 l 333 12 q 299 12 275 1 q 251 -11 235 -33 q 218 -55 204 -86 l 204 -86 l 188 -258 l 188 -540 l 247 -540 l 247 -224 q 247 -165 251 -136 q 255 -108 267 -88 l 267 -88 q 276 -73 292 -64 q 308 -56 333 -56 l 333 -56 q 358 -56 372 -65 q 386 -74 396 -88 l 396 -88 q 412 -112 416 -143 q 419 -174 419 -226 l 419 -226 l 419 -554 l 498 -554 l 498 -221 q 498 -163 506 -129 q 513 -96 529 -79 l 529 -79 q 540 -67 554 -61 q 567 -56 583 -56 l 583 -56 q 614 -56 638 -81 q 661 -107 674 -151 q 687 -196 687 -253 l 687 -253 q 687 -316 675 -364 q 662 -412 642 -448 q 622 -484 600 -510 l 600 -510 l 662 -562 q 691 -526 716 -482 q 740 -439 755 -382 q 769 -326 769 -249 l 769 -249 q 769 -173 748 -114 q 726 -55 685 -21 q 644 12 585 12 z"},"൱":{"ha":696,"x_min":36,"x_max":654,"o":"m 223 -566 l 223 -566 q 257 -566 281 -553 q 305 -541 323 -521 q 341 -501 354 -477 l 354 -477 l 386 -243 l 386 0 l 307 0 l 307 -326 q 307 -390 300 -422 q 293 -455 277 -474 l 277 -474 q 267 -485 255 -491 q 242 -498 225 -498 l 225 -498 q 195 -498 171 -474 q 147 -450 133 -405 q 118 -360 118 -297 l 118 -297 q 118 -235 131 -188 q 143 -141 163 -106 q 182 -71 204 -44 l 204 -44 l 142 8 q 113 -28 89 -71 q 65 -114 51 -170 q 36 -227 36 -301 l 36 -301 q 36 -381 58 -440 q 80 -500 122 -533 q 164 -566 223 -566 z m 471 -566 l 471 -566 q 529 -566 570 -533 q 611 -500 633 -425 q 654 -351 654 -227 l 654 -227 q 654 -76 624 19 q 593 113 531 157 q 469 201 373 201 l 373 201 q 352 201 330 200 q 307 198 284 194 l 284 194 l 291 126 q 308 128 327 130 q 346 132 371 132 l 371 132 q 428 132 467 110 q 505 87 528 42 q 551 -3 562 -70 q 572 -138 572 -228 l 572 -228 q 572 -325 560 -384 q 547 -444 524 -471 q 501 -498 469 -498 l 469 -498 q 454 -498 441 -492 q 428 -487 417 -475 l 417 -475 q 401 -458 394 -425 q 386 -392 386 -333 l 386 -333 l 386 -10 l 314 -10 l 314 -315 l 341 -479 q 365 -523 397 -544 q 428 -566 471 -566 z"},"൲":{"ha":1072,"x_min":36,"x_max":1052,"o":"m 925 -554 l 925 -554 q 970 -554 998 -535 q 1026 -516 1039 -484 q 1052 -453 1052 -416 l 1052 -416 q 1052 -379 1039 -347 q 1026 -315 1000 -295 l 1000 -295 q 983 -282 963 -274 q 942 -267 914 -263 q 886 -260 848 -260 l 848 -260 l 716 -260 l 722 -326 l 866 -326 q 907 -326 926 -333 q 944 -340 956 -353 l 956 -353 q 967 -364 972 -380 q 976 -397 976 -418 l 976 -418 q 976 -451 963 -470 q 950 -489 924 -489 l 924 -489 q 896 -489 881 -467 q 866 -445 866 -409 l 866 -409 q 866 -369 878 -340 q 889 -312 903 -289 l 903 -289 l 832 -283 q 816 -309 804 -343 q 792 -377 792 -417 l 792 -417 q 792 -461 809 -491 q 826 -522 856 -538 q 886 -554 925 -554 z m 223 -566 l 223 -566 q 258 -566 283 -554 q 308 -542 327 -521 q 346 -500 363 -471 l 363 -471 l 386 -243 l 386 0 l 307 0 l 307 -326 q 307 -390 300 -422 q 293 -455 277 -474 l 277 -474 q 267 -485 255 -491 q 242 -498 225 -498 l 225 -498 q 195 -498 171 -474 q 147 -450 133 -405 q 118 -360 118 -297 l 118 -297 q 118 -235 131 -188 q 143 -141 163 -106 q 182 -71 204 -44 l 204 -44 l 142 8 q 113 -28 89 -71 q 65 -114 51 -170 q 36 -227 36 -301 l 36 -301 q 36 -381 58 -440 q 80 -500 122 -533 q 164 -566 223 -566 z m 508 -566 l 508 -566 q 561 -566 605 -546 q 649 -527 681 -487 q 713 -447 730 -384 q 747 -321 747 -234 l 747 -234 q 747 -139 727 -85 q 706 -31 671 -9 q 635 12 589 12 l 589 12 q 538 12 507 -10 q 475 -32 461 -66 q 446 -101 446 -140 l 446 -140 q 446 -196 464 -230 q 482 -264 510 -285 l 510 -285 q 532 -301 558 -309 q 584 -318 620 -322 q 655 -326 705 -326 l 705 -326 l 857 -326 l 857 -260 l 703 -260 q 646 -260 615 -253 q 583 -246 561 -229 l 561 -229 q 544 -216 534 -194 q 524 -173 524 -141 l 524 -141 q 524 -101 541 -77 q 558 -54 589 -54 l 589 -54 q 615 -54 633 -72 q 650 -90 660 -130 q 669 -170 669 -236 l 669 -236 q 669 -254 669 -267 q 668 -281 667 -293 l 667 -293 l 665 -313 q 660 -361 642 -403 q 624 -445 592 -471 q 559 -498 510 -498 l 510 -498 q 484 -498 463 -491 q 442 -484 425 -467 l 425 -467 q 411 -454 402 -433 q 393 -413 390 -386 q 386 -359 386 -325 l 386 -325 l 386 -207 l 337 -214 l 331 -459 q 349 -491 373 -515 q 396 -539 429 -552 q 462 -566 508 -566 z"},"൳":{"ha":583,"x_min":36,"x_max":561,"o":"m 185 12 l 185 12 q 144 12 110 -11 q 76 -35 56 -86 q 36 -137 36 -219 l 36 -219 q 36 -293 58 -350 q 79 -408 126 -447 l 126 -447 q 155 -471 192 -487 q 228 -503 280 -511 q 331 -519 403 -519 l 403 -519 l 561 -519 l 561 -449 l 416 -449 q 348 -449 304 -443 q 260 -437 232 -426 q 204 -415 183 -399 l 183 -399 q 148 -373 134 -336 q 119 -300 112 -259 l 112 -259 l 112 -246 q 111 -238 111 -229 q 111 -220 111 -206 l 111 -206 q 111 -154 120 -120 q 129 -87 146 -71 q 163 -55 185 -55 l 185 -55 q 202 -55 215 -65 q 227 -75 234 -97 q 241 -120 241 -157 l 241 -157 q 241 -213 224 -236 q 207 -260 175 -260 l 175 -260 q 149 -260 128 -246 q 107 -233 84 -204 l 84 -204 l 63 -257 q 86 -283 120 -304 q 154 -326 193 -326 l 193 -326 q 233 -326 261 -308 q 289 -290 304 -253 q 319 -216 319 -159 l 319 -159 q 319 -101 304 -63 q 288 -25 259 -6 q 229 12 185 12 z"},"൴":{"ha":705,"x_min":36,"x_max":669,"o":"m 367 -792 l 446 -792 l 446 -187 q 446 -164 448 -143 q 449 -123 453 -107 q 456 -91 463 -79 l 463 -79 q 471 -66 484 -60 q 496 -54 514 -54 l 514 -54 q 540 -54 557 -71 q 573 -89 581 -124 q 588 -160 588 -214 l 588 -214 q 588 -269 579 -316 q 569 -363 549 -400 q 528 -437 496 -461 q 464 -486 419 -496 l 419 -496 l 391 -497 q 384 -498 376 -498 q 367 -499 359 -499 l 359 -499 q 304 -499 259 -480 q 213 -462 180 -427 q 147 -393 129 -344 q 111 -296 111 -236 l 111 -236 l 111 -214 q 111 -158 120 -122 q 129 -87 146 -71 q 163 -55 185 -55 l 185 -55 q 202 -55 215 -65 q 227 -75 234 -97 q 241 -120 241 -157 l 241 -157 q 241 -213 224 -236 q 207 -260 175 -260 l 175 -260 q 149 -260 128 -246 q 107 -233 84 -204 l 84 -204 l 63 -257 q 86 -283 120 -304 q 154 -326 193 -326 l 193 -326 q 233 -326 261 -308 q 289 -290 304 -253 q 319 -216 319 -159 l 319 -159 q 319 -101 304 -63 q 288 -25 259 -6 q 229 12 186 12 l 186 12 q 145 12 111 -12 q 77 -36 57 -88 q 36 -140 36 -225 l 36 -225 q 36 -304 58 -367 q 79 -430 121 -474 q 163 -519 224 -542 q 284 -566 363 -566 l 363 -566 q 371 -566 378 -566 q 385 -566 392 -565 l 392 -565 l 425 -563 q 479 -554 524 -527 q 569 -501 602 -456 q 634 -412 652 -350 q 669 -289 669 -211 l 669 -211 q 669 -142 652 -92 q 635 -42 601 -15 q 567 12 516 12 l 516 12 q 475 12 450 1 q 424 -11 407 -31 l 407 -31 q 390 -52 381 -77 q 372 -103 370 -137 q 367 -171 367 -217 l 367 -217 l 367 -792 z"},"൵":{"ha":930,"x_min":38,"x_max":925,"o":"m 277 -566 l 277 -566 q 339 -566 378 -541 q 416 -517 445 -467 l 445 -467 l 460 -417 l 472 -264 l 472 0 l 393 0 l 393 -326 q 393 -380 387 -412 q 380 -444 362 -465 l 362 -465 q 349 -480 329 -489 q 308 -498 279 -498 l 279 -498 q 228 -498 191 -466 q 154 -434 134 -378 q 113 -322 113 -251 l 113 -251 l 113 -222 q 113 -161 123 -124 q 132 -87 149 -71 q 165 -55 187 -55 l 187 -55 q 204 -55 217 -65 q 229 -76 236 -98 q 243 -120 243 -157 l 243 -157 q 243 -213 226 -236 q 209 -260 177 -260 l 177 -260 q 151 -260 130 -246 q 109 -233 86 -204 l 86 -204 l 65 -257 q 88 -283 122 -304 q 156 -326 195 -326 l 195 -326 q 235 -326 263 -308 q 291 -290 306 -253 q 321 -216 321 -160 l 321 -160 q 321 -101 306 -63 q 290 -25 261 -6 q 231 12 188 12 l 188 12 q 147 12 113 -12 q 79 -37 59 -92 q 38 -148 38 -241 l 38 -241 q 38 -352 70 -424 q 101 -496 155 -531 q 209 -566 277 -566 z m 593 -566 l 593 -566 q 653 -566 701 -542 q 748 -519 782 -479 l 782 -479 q 824 -430 847 -361 q 870 -292 870 -216 l 870 -216 q 870 -133 851 -82 q 831 -32 795 -10 q 758 12 706 12 l 706 12 q 653 12 619 -12 q 584 -36 567 -78 q 550 -120 550 -173 l 550 -173 q 550 -230 568 -279 q 586 -328 626 -375 q 665 -423 731 -475 l 731 -475 q 776 -509 801 -531 q 825 -554 835 -574 q 844 -594 844 -619 l 844 -619 q 844 -642 836 -660 q 828 -679 817 -696 l 817 -696 l 891 -730 q 908 -707 917 -682 q 925 -657 925 -626 l 925 -626 q 925 -579 907 -546 q 889 -513 855 -484 q 821 -456 773 -420 l 773 -420 q 725 -381 693 -343 q 661 -306 646 -265 q 630 -224 630 -174 l 630 -174 q 630 -113 651 -83 q 671 -53 706 -53 l 706 -53 q 733 -53 752 -68 q 770 -83 779 -118 q 788 -153 788 -211 l 788 -211 q 788 -276 772 -334 q 756 -392 724 -434 l 724 -434 q 701 -464 667 -481 q 633 -498 595 -498 l 595 -498 q 561 -498 540 -488 q 519 -479 505 -462 l 505 -462 q 492 -446 485 -426 q 477 -406 475 -380 q 472 -354 472 -319 l 472 -319 l 472 -67 l 401 -67 l 401 -297 l 416 -449 q 433 -484 456 -510 q 478 -537 512 -551 q 545 -566 593 -566 z"},"൶":{"ha":1038,"x_min":31,"x_max":987,"o":"m 183 -346 l 183 -346 q 236 -346 270 -322 q 303 -298 319 -260 q 335 -222 335 -178 l 335 -178 q 335 -134 322 -102 q 309 -71 298 -57 l 298 -57 l 286 -66 l 551 -66 l 552 0 l 253 0 l 221 -52 q 235 -74 247 -102 q 258 -130 258 -170 l 258 -170 q 258 -221 239 -250 q 220 -280 184 -280 l 184 -280 q 161 -280 144 -267 q 126 -254 117 -230 q 108 -206 108 -174 l 108 -174 q 108 -131 122 -100 q 135 -69 157 -37 l 157 -37 l 101 7 q 73 -28 52 -72 q 31 -117 31 -173 l 31 -173 q 31 -227 50 -265 q 69 -304 104 -325 q 138 -346 183 -346 z m 752 -566 l 752 -566 q 812 -566 856 -549 q 899 -532 927 -499 l 927 -499 q 948 -475 962 -444 q 975 -414 981 -373 q 987 -333 987 -278 l 987 -278 l 987 0 l 528 0 l 528 -281 q 528 -334 535 -374 q 541 -414 554 -445 q 567 -476 587 -499 l 587 -499 q 616 -532 655 -549 q 694 -566 752 -566 z m 710 -499 l 710 -499 q 685 -499 664 -479 q 642 -460 629 -425 l 629 -425 q 618 -397 613 -358 q 607 -319 607 -260 l 607 -260 l 607 -60 l 606 -62 q 653 -113 688 -171 q 722 -229 741 -289 q 760 -350 760 -408 l 760 -408 q 760 -436 755 -456 q 750 -477 740 -488 q 729 -499 710 -499 z m 840 -397 l 840 -397 q 840 -333 821 -274 q 802 -215 767 -158 q 732 -102 685 -45 l 685 -45 l 672 -61 q 692 -63 722 -64 q 751 -66 767 -66 l 767 -66 l 908 -66 l 908 -279 q 908 -345 897 -389 q 886 -434 863 -461 q 840 -488 802 -499 l 802 -499 l 802 -505 q 820 -484 830 -457 q 840 -430 840 -397 z"},"൷":{"ha":1324,"x_min":31,"x_max":1304,"o":"m 183 -346 l 183 -346 q 235 -346 269 -322 q 302 -298 319 -260 q 335 -222 335 -178 l 335 -178 q 335 -134 322 -102 q 309 -71 298 -57 l 298 -57 l 284 -66 l 525 -66 l 538 0 l 253 0 l 222 -52 q 236 -74 247 -101 q 258 -129 258 -168 l 258 -168 q 258 -221 239 -250 q 220 -280 184 -280 l 184 -280 q 161 -280 144 -267 q 126 -254 117 -230 q 108 -206 108 -174 l 108 -174 q 108 -131 122 -100 q 135 -69 157 -37 l 157 -37 l 101 7 q 73 -28 52 -72 q 31 -117 31 -174 l 31 -174 q 31 -227 50 -265 q 69 -304 104 -325 q 138 -346 183 -346 z m 609 -566 l 609 -566 q 644 -566 669 -554 q 694 -542 713 -521 q 732 -500 749 -471 l 749 -471 l 772 -270 l 772 -230 l 693 -230 l 693 -326 q 693 -390 686 -422 q 679 -455 663 -474 l 663 -474 q 653 -485 641 -491 q 628 -498 611 -498 l 611 -498 q 581 -498 557 -474 q 533 -451 519 -408 q 504 -365 504 -305 l 504 -305 q 504 -218 527 -156 q 550 -94 584 -44 l 584 -44 l 548 0 l 513 0 l 497 -47 q 474 -84 457 -122 q 440 -160 431 -206 q 422 -252 422 -311 l 422 -311 q 422 -387 444 -444 q 466 -501 508 -533 q 550 -566 609 -566 z m 894 -566 l 894 -566 q 947 -566 991 -546 q 1035 -526 1067 -485 q 1099 -444 1116 -381 q 1133 -319 1133 -234 l 1133 -234 q 1133 -138 1113 -84 q 1092 -31 1057 -9 q 1021 12 975 12 l 975 12 q 924 12 893 -10 q 861 -32 847 -66 q 832 -101 832 -140 l 832 -140 q 832 -196 850 -230 q 868 -264 896 -285 l 896 -285 q 918 -301 944 -309 q 969 -318 1004 -322 q 1039 -326 1086 -326 l 1086 -326 l 1110 -326 l 1110 -260 l 1089 -260 q 1032 -260 1001 -253 q 969 -246 947 -229 l 947 -229 q 930 -216 920 -194 q 910 -173 910 -141 l 910 -141 q 910 -101 927 -77 q 944 -54 975 -54 l 975 -54 q 1001 -54 1019 -72 q 1037 -90 1046 -130 q 1055 -170 1055 -236 l 1055 -236 q 1055 -254 1055 -267 q 1054 -281 1053 -293 l 1053 -293 l 1051 -313 q 1046 -361 1028 -403 q 1010 -445 978 -471 q 945 -498 896 -498 l 896 -498 q 870 -498 849 -491 q 828 -484 811 -467 l 811 -467 q 797 -454 788 -433 q 779 -413 776 -386 q 772 -359 772 -325 l 772 -325 l 772 -245 l 723 -250 l 717 -459 q 735 -491 759 -515 q 782 -539 815 -552 q 848 -566 894 -566 z m 1217 -446 l 1294 -462 q 1299 -450 1302 -435 q 1304 -421 1304 -403 l 1304 -403 q 1304 -368 1291 -340 q 1277 -313 1252 -295 l 1252 -295 q 1224 -276 1189 -268 q 1153 -260 1099 -260 l 1099 -260 l 1091 -260 l 1091 -326 l 1095 -326 q 1130 -326 1152 -329 q 1174 -333 1190 -341 l 1190 -341 q 1207 -349 1216 -365 q 1224 -381 1224 -405 l 1224 -405 q 1224 -414 1222 -426 q 1220 -438 1217 -446 l 1217 -446 z"},"൸":{"ha":1651,"x_min":10,"x_max":1600,"o":"m 1065 -566 l 1065 -566 q 1089 -566 1109 -560 q 1129 -554 1147 -540 q 1164 -527 1178 -506 q 1191 -486 1201 -456 l 1201 -456 l 1172 -449 q 1192 -492 1220 -517 q 1248 -543 1284 -554 q 1320 -566 1365 -566 l 1365 -566 q 1425 -566 1469 -549 q 1512 -532 1540 -499 l 1540 -499 q 1561 -475 1575 -444 q 1588 -414 1594 -373 q 1600 -333 1600 -278 l 1600 -278 l 1600 0 l 1222 0 l 1222 -64 q 1266 -113 1300 -171 q 1334 -229 1354 -289 q 1373 -350 1373 -408 l 1373 -408 q 1373 -436 1369 -456 q 1364 -477 1353 -488 q 1342 -499 1323 -499 l 1323 -499 q 1298 -499 1277 -479 q 1255 -459 1242 -424 l 1242 -424 q 1231 -393 1227 -355 q 1223 -317 1223 -257 l 1223 -257 l 1223 -230 l 1144 -230 l 1144 -352 q 1144 -395 1140 -425 q 1136 -456 1121 -475 l 1121 -475 q 1113 -486 1099 -492 q 1085 -498 1067 -498 l 1067 -498 q 1051 -498 1037 -492 q 1023 -486 1015 -475 l 1015 -475 q 1000 -456 996 -425 q 992 -395 992 -352 l 992 -352 l 992 -202 q 992 -157 987 -123 q 982 -90 972 -67 q 962 -44 945 -27 l 945 -27 q 926 -8 901 2 q 875 12 836 12 l 836 12 q 799 12 774 2 q 748 -8 729 -27 l 729 -27 q 713 -44 703 -67 q 692 -91 687 -123 q 682 -156 682 -200 l 682 -200 l 682 -352 q 682 -395 678 -425 q 674 -456 659 -475 l 659 -475 q 651 -486 637 -492 q 623 -498 606 -498 l 606 -498 q 589 -498 575 -492 q 561 -486 553 -475 l 553 -475 q 538 -456 534 -425 q 530 -395 530 -352 l 530 -352 l 530 -194 q 530 -124 519 -88 q 508 -53 483 -27 l 483 -27 q 464 -8 438 2 q 412 12 380 12 l 380 12 q 328 12 297 -11 q 266 -34 246 -74 l 246 -74 l 257 -75 q 241 -47 223 -27 q 205 -8 182 2 q 158 12 123 12 l 123 12 q 88 12 61 5 q 33 -3 10 -15 l 10 -15 l 38 -79 q 55 -70 77 -63 q 99 -57 123 -57 l 123 -57 q 143 -57 157 -62 q 171 -67 181 -79 l 181 -79 q 197 -96 205 -129 q 212 -163 212 -221 l 212 -221 l 212 -554 l 291 -554 l 291 -223 q 291 -167 295 -137 q 299 -107 311 -87 l 311 -87 q 320 -72 335 -64 q 350 -56 370 -56 l 370 -56 q 390 -56 404 -62 q 418 -69 427 -80 l 427 -80 q 442 -100 447 -129 q 451 -159 451 -202 l 451 -202 l 451 -348 q 451 -396 456 -429 q 461 -463 472 -487 q 482 -511 498 -527 l 498 -527 q 517 -546 543 -556 q 568 -566 607 -566 l 607 -566 q 642 -566 669 -556 q 695 -546 714 -527 l 714 -527 q 731 -511 741 -488 q 751 -466 756 -434 q 761 -402 761 -354 l 761 -354 l 761 -202 q 761 -159 765 -129 q 769 -99 784 -79 l 784 -79 q 792 -68 806 -62 q 820 -56 837 -56 l 837 -56 q 854 -56 868 -62 q 882 -68 890 -79 l 890 -79 q 905 -99 909 -129 q 913 -159 913 -202 l 913 -202 l 913 -348 q 913 -396 918 -429 q 923 -463 934 -487 q 944 -511 960 -527 l 960 -527 q 979 -546 1005 -556 q 1031 -566 1065 -566 z m 1453 -397 l 1453 -397 q 1453 -333 1434 -274 q 1415 -215 1380 -158 q 1345 -102 1298 -45 l 1298 -45 l 1285 -61 q 1305 -63 1335 -64 q 1364 -66 1380 -66 l 1380 -66 l 1521 -66 l 1521 -279 q 1521 -345 1510 -389 q 1499 -434 1476 -461 q 1453 -488 1415 -499 l 1415 -499 l 1415 -505 q 1433 -484 1443 -457 q 1453 -430 1453 -397 z"},"൹":{"ha":879,"x_min":36,"x_max":857,"o":"m 223 -566 l 223 -566 q 258 -566 283 -554 q 308 -542 327 -521 q 346 -500 363 -471 l 363 -471 l 386 -243 l 386 0 l 307 0 l 307 -326 q 307 -390 300 -422 q 293 -455 277 -474 l 277 -474 q 267 -485 255 -491 q 242 -498 225 -498 l 225 -498 q 195 -498 171 -474 q 147 -450 133 -405 q 118 -360 118 -297 l 118 -297 q 118 -235 131 -188 q 143 -141 163 -106 q 182 -71 204 -44 l 204 -44 l 142 8 q 113 -28 89 -71 q 65 -114 51 -170 q 36 -227 36 -301 l 36 -301 q 36 -381 58 -440 q 80 -500 122 -533 q 164 -566 223 -566 z m 508 -566 l 508 -566 q 561 -566 605 -546 q 649 -527 681 -487 q 713 -447 730 -384 q 747 -321 747 -234 l 747 -234 q 747 -139 727 -85 q 706 -31 671 -9 q 635 12 589 12 l 589 12 q 538 12 507 -10 q 475 -32 461 -66 q 446 -101 446 -140 l 446 -140 q 446 -196 464 -230 q 482 -264 510 -285 l 510 -285 q 532 -301 558 -309 q 584 -318 620 -322 q 655 -326 705 -326 l 705 -326 l 857 -326 l 857 -260 l 703 -260 q 646 -260 615 -253 q 583 -246 561 -229 l 561 -229 q 544 -216 534 -194 q 524 -173 524 -141 l 524 -141 q 524 -101 541 -77 q 558 -54 589 -54 l 589 -54 q 615 -54 633 -72 q 650 -90 660 -130 q 669 -170 669 -236 l 669 -236 q 669 -254 669 -267 q 668 -281 667 -293 l 667 -293 l 665 -313 q 660 -361 642 -403 q 624 -445 592 -471 q 559 -498 510 -498 l 510 -498 q 484 -498 463 -491 q 442 -484 425 -467 l 425 -467 q 411 -454 402 -433 q 393 -413 390 -386 q 386 -359 386 -325 l 386 -325 l 386 -207 l 337 -214 l 331 -459 q 349 -491 373 -515 q 396 -539 429 -552 q 462 -566 508 -566 z"},"ൺ":{"ha":1148,"x_min":38,"x_max":1112,"o":"m 277 -566 l 277 -566 q 339 -566 376 -542 q 413 -518 444 -473 l 444 -473 l 421 -472 q 447 -521 480 -543 q 512 -566 564 -566 l 564 -566 q 612 -566 645 -540 q 678 -515 699 -469 l 699 -469 l 693 -446 l 723 -333 l 723 0 l 644 0 l 644 -330 q 644 -389 640 -418 q 636 -447 624 -466 l 624 -466 q 615 -481 600 -489 q 584 -498 558 -498 l 558 -498 q 533 -498 519 -489 q 505 -480 495 -466 l 495 -466 q 479 -442 476 -411 q 472 -381 472 -328 l 472 -328 l 472 0 l 393 0 l 393 -326 q 393 -380 387 -412 q 380 -444 362 -465 l 362 -465 q 349 -480 329 -489 q 308 -498 279 -498 l 279 -498 q 228 -498 191 -466 q 154 -435 134 -379 q 113 -323 113 -251 l 113 -251 l 113 -222 q 113 -161 123 -124 q 132 -87 149 -71 q 165 -55 187 -55 l 187 -55 q 204 -55 217 -65 q 229 -76 236 -98 q 243 -120 243 -157 l 243 -157 q 243 -213 226 -236 q 209 -260 177 -260 l 177 -260 q 151 -260 130 -246 q 109 -233 86 -204 l 86 -204 l 65 -257 q 88 -283 122 -304 q 156 -326 195 -326 l 195 -326 q 235 -326 263 -308 q 291 -290 306 -253 q 321 -216 321 -160 l 321 -160 q 321 -101 306 -63 q 290 -25 261 -6 q 231 12 188 12 l 188 12 q 147 12 113 -12 q 79 -37 59 -92 q 38 -148 38 -241 l 38 -241 q 38 -352 70 -424 q 101 -496 155 -531 q 209 -566 277 -566 z m 960 12 l 960 12 q 910 12 876 -13 q 841 -38 824 -86 q 806 -135 806 -206 l 806 -206 q 806 -276 823 -330 q 839 -385 865 -429 q 890 -474 916 -513 l 916 -513 l 933 -540 q 957 -575 972 -605 q 986 -635 986 -660 l 986 -660 q 986 -687 971 -703 q 955 -720 926 -720 l 926 -720 q 912 -720 894 -717 q 876 -715 867 -711 l 867 -711 l 852 -779 q 866 -784 891 -788 q 915 -792 940 -792 l 940 -792 q 990 -792 1017 -772 q 1044 -753 1055 -726 q 1065 -699 1065 -674 l 1065 -674 q 1065 -631 1047 -590 q 1028 -549 993 -499 l 993 -499 l 976 -476 q 951 -436 931 -394 q 910 -353 898 -307 q 886 -261 886 -205 l 886 -205 q 886 -148 895 -114 q 904 -81 921 -67 q 937 -53 957 -53 l 957 -53 q 994 -53 1012 -86 q 1030 -119 1030 -207 l 1030 -207 q 1030 -253 1020 -306 q 1010 -360 988 -406 q 966 -453 929 -477 l 929 -477 q 914 -487 893 -494 q 872 -501 847 -501 l 847 -501 q 813 -501 792 -491 q 770 -482 756 -465 l 756 -465 q 743 -449 736 -429 q 729 -409 726 -382 q 723 -355 723 -319 l 723 -319 l 723 -32 l 651 -32 l 651 -240 l 667 -451 q 684 -486 707 -512 q 729 -538 763 -552 q 796 -566 844 -566 l 844 -566 q 878 -566 907 -558 q 935 -551 957 -539 l 957 -539 q 961 -538 964 -535 q 967 -533 970 -531 l 970 -531 q 1017 -502 1049 -453 q 1080 -405 1096 -343 q 1112 -282 1112 -213 l 1112 -213 q 1112 -95 1073 -41 q 1034 12 960 12 z"},"ൻ":{"ha":811,"x_min":36,"x_max":775,"o":"m 223 -566 l 223 -566 q 257 -566 281 -553 q 305 -541 323 -521 q 341 -501 354 -477 l 354 -477 l 386 -243 l 386 0 l 307 0 l 307 -326 q 307 -390 300 -422 q 293 -455 277 -474 l 277 -474 q 267 -485 255 -491 q 242 -498 225 -498 l 225 -498 q 195 -498 171 -474 q 147 -450 133 -405 q 118 -360 118 -297 l 118 -297 q 118 -235 131 -188 q 143 -141 163 -106 q 182 -71 204 -44 l 204 -44 l 142 8 q 113 -28 89 -71 q 65 -114 51 -170 q 36 -227 36 -301 l 36 -301 q 36 -381 58 -440 q 80 -500 122 -533 q 164 -566 223 -566 z m 623 12 l 623 12 q 573 12 539 -13 q 504 -38 487 -86 q 469 -135 469 -206 l 469 -206 q 469 -276 486 -330 q 502 -385 528 -429 q 553 -474 579 -513 l 579 -513 l 596 -540 q 620 -575 635 -605 q 649 -635 649 -660 l 649 -660 q 649 -687 634 -703 q 618 -720 589 -720 l 589 -720 q 575 -720 559 -717 q 543 -715 530 -711 l 530 -711 l 515 -779 q 529 -784 554 -788 q 578 -792 603 -792 l 603 -792 q 653 -792 680 -772 q 707 -753 718 -726 q 728 -699 728 -674 l 728 -674 q 728 -631 710 -590 q 691 -549 656 -499 l 656 -499 l 639 -476 q 614 -436 594 -394 q 573 -353 561 -307 q 549 -261 549 -205 l 549 -205 q 549 -148 558 -114 q 567 -81 584 -67 q 600 -53 620 -53 l 620 -53 q 657 -53 675 -86 q 693 -119 693 -207 l 693 -207 q 693 -253 683 -306 q 673 -360 651 -406 q 629 -453 592 -477 l 592 -477 q 577 -487 556 -494 q 535 -501 510 -501 l 510 -501 q 476 -501 455 -491 q 433 -482 419 -465 l 419 -465 q 406 -449 399 -429 q 392 -409 389 -382 q 386 -355 386 -319 l 386 -319 l 386 -32 l 314 -32 l 314 -240 l 330 -451 q 347 -486 370 -512 q 392 -538 426 -552 q 459 -566 507 -566 l 507 -566 q 541 -566 570 -558 q 598 -551 620 -539 l 620 -539 q 624 -538 627 -535 q 630 -533 633 -531 l 633 -531 q 680 -502 712 -453 q 743 -405 759 -343 q 775 -282 775 -213 l 775 -213 q 775 -95 736 -41 q 697 12 623 12 z"},"ർ":{"ha":568,"x_min":36,"x_max":532,"o":"m 380 12 l 380 12 q 330 12 296 -13 q 261 -38 244 -86 q 226 -135 226 -206 l 226 -206 q 226 -276 243 -330 q 259 -385 285 -429 q 310 -474 336 -513 l 336 -513 l 353 -540 q 377 -575 392 -605 q 406 -635 406 -660 l 406 -660 q 406 -687 391 -703 q 375 -720 346 -720 l 346 -720 q 332 -720 314 -717 q 296 -715 287 -711 l 287 -711 l 272 -779 q 286 -784 311 -788 q 335 -792 360 -792 l 360 -792 q 410 -792 437 -772 q 464 -753 475 -726 q 485 -699 485 -674 l 485 -674 q 485 -631 467 -590 q 448 -549 413 -499 l 413 -499 l 396 -476 q 371 -436 351 -394 q 330 -353 318 -307 q 306 -261 306 -205 l 306 -205 q 306 -148 315 -114 q 324 -81 341 -67 q 357 -53 377 -53 l 377 -53 q 414 -53 432 -86 q 450 -119 450 -207 l 450 -207 q 450 -241 445 -280 q 439 -320 427 -359 q 415 -398 396 -429 q 377 -461 349 -479 l 349 -479 q 334 -489 316 -494 q 298 -500 277 -500 l 277 -500 q 224 -500 189 -471 q 153 -442 136 -392 q 118 -343 118 -281 l 118 -281 q 118 -225 129 -181 q 140 -138 160 -105 q 180 -72 206 -47 l 206 -47 l 150 8 q 119 -21 93 -63 q 67 -106 52 -162 q 36 -218 36 -288 l 36 -288 q 36 -348 52 -398 q 68 -449 99 -486 q 130 -524 175 -545 q 219 -566 275 -566 l 275 -566 q 304 -566 330 -559 q 355 -553 377 -541 l 377 -541 q 381 -540 384 -537 q 387 -535 390 -533 l 390 -533 q 437 -504 469 -455 q 500 -406 516 -344 q 532 -282 532 -213 l 532 -213 q 532 -95 493 -41 q 454 12 380 12 z"},"ൽ":{"ha":929,"x_min":36,"x_max":893,"o":"m 565 -566 l 565 -566 q 602 -566 636 -560 q 669 -555 699 -544 q 728 -533 754 -515 l 754 -515 l 764 -509 q 829 -464 861 -384 q 893 -305 893 -213 l 893 -213 q 893 -95 854 -41 q 815 12 741 12 l 741 12 q 691 12 657 -13 q 622 -38 605 -86 q 587 -135 587 -206 l 587 -206 q 587 -276 604 -330 q 620 -385 646 -429 q 671 -474 697 -513 l 697 -513 l 708 -531 q 736 -569 752 -602 q 767 -635 767 -660 l 767 -660 q 767 -687 752 -703 q 736 -720 707 -720 l 707 -720 q 693 -720 675 -717 q 657 -715 648 -711 l 648 -711 l 633 -779 q 647 -784 672 -788 q 696 -792 721 -792 l 721 -792 q 771 -792 798 -772 q 825 -753 836 -726 q 846 -699 846 -674 l 846 -674 q 846 -631 828 -590 q 809 -549 774 -499 l 774 -499 l 757 -476 q 732 -436 712 -394 q 691 -353 679 -307 q 667 -261 667 -205 l 667 -205 q 667 -148 676 -114 q 685 -81 702 -67 q 718 -53 738 -53 l 738 -53 q 775 -53 793 -86 q 811 -119 811 -207 l 811 -207 q 811 -257 802 -305 q 792 -354 771 -395 q 749 -436 711 -462 l 711 -462 l 690 -471 q 663 -486 631 -492 q 598 -498 563 -498 l 563 -498 q 527 -498 494 -492 q 461 -486 435 -471 l 435 -471 l 415 -463 q 366 -429 340 -363 q 313 -298 313 -211 l 313 -211 q 313 -147 324 -113 q 334 -79 351 -66 q 368 -54 388 -54 l 388 -54 q 409 -54 426 -66 q 443 -79 453 -113 q 463 -147 463 -211 l 463 -211 q 463 -273 450 -325 q 437 -377 414 -415 q 391 -453 360 -473 l 360 -473 l 345 -483 q 330 -493 314 -497 q 297 -501 280 -501 l 280 -501 q 229 -501 193 -473 q 156 -446 137 -397 q 118 -348 118 -281 l 118 -281 q 118 -224 129 -180 q 140 -137 160 -104 q 180 -72 206 -47 l 206 -47 l 150 8 q 119 -21 93 -62 q 67 -104 52 -160 q 36 -216 36 -288 l 36 -288 q 36 -345 51 -395 q 65 -446 94 -484 q 123 -523 167 -544 q 211 -566 271 -566 l 271 -566 q 309 -566 341 -556 q 372 -547 401 -524 l 401 -524 l 421 -506 q 477 -463 511 -392 q 544 -321 544 -212 l 544 -212 q 544 -139 526 -89 q 508 -39 473 -13 q 438 12 387 12 l 387 12 q 337 12 303 -14 q 268 -41 250 -91 q 232 -142 232 -212 l 232 -212 q 232 -274 245 -326 q 258 -378 285 -421 q 312 -464 354 -498 l 354 -498 l 369 -512 q 402 -537 450 -551 q 498 -566 565 -566 z"},"ൾ":{"ha":798,"x_min":36,"x_max":762,"o":"m 590 -792 l 590 -792 q 640 -792 667 -772 q 694 -753 705 -726 q 715 -699 715 -674 l 715 -674 q 715 -631 697 -590 q 678 -549 643 -499 l 643 -499 l 626 -476 q 601 -436 581 -394 q 560 -353 548 -307 q 536 -261 536 -205 l 536 -205 q 536 -148 545 -114 q 554 -81 571 -67 q 587 -53 607 -53 l 607 -53 q 644 -53 662 -86 q 680 -119 680 -207 l 680 -207 q 680 -241 675 -280 q 669 -320 657 -359 q 645 -398 626 -429 q 607 -461 579 -479 l 579 -479 q 564 -489 548 -494 q 531 -500 509 -500 l 509 -500 q 487 -500 470 -495 q 453 -491 439 -482 l 439 -482 q 401 -457 391 -409 q 381 -362 381 -295 l 381 -295 l 381 -194 q 381 -157 377 -127 q 373 -97 364 -73 q 354 -50 335 -31 l 335 -31 q 314 -10 286 1 q 258 12 218 12 l 218 12 q 161 12 120 -18 q 79 -49 58 -107 q 36 -165 36 -249 l 36 -249 q 36 -326 51 -383 q 65 -441 90 -485 q 114 -530 143 -566 l 143 -566 l 205 -514 q 183 -488 163 -451 q 143 -415 131 -366 q 118 -317 118 -253 l 118 -253 q 118 -192 131 -147 q 143 -103 166 -79 q 189 -56 219 -56 l 219 -56 q 240 -56 254 -62 q 268 -69 277 -81 l 277 -81 q 292 -102 297 -137 q 301 -172 301 -237 l 301 -237 l 301 -309 q 301 -383 315 -436 q 329 -490 375 -527 l 375 -527 q 397 -544 429 -555 q 461 -566 504 -566 l 504 -566 q 535 -566 560 -559 q 585 -553 607 -541 l 607 -541 l 620 -533 q 667 -504 699 -455 q 730 -406 746 -344 q 762 -282 762 -213 l 762 -213 q 762 -95 723 -41 q 684 12 610 12 l 610 12 q 560 12 526 -13 q 491 -38 474 -86 q 456 -135 456 -206 l 456 -206 q 456 -276 473 -330 q 489 -385 515 -429 q 540 -474 566 -513 l 566 -513 l 583 -540 q 607 -575 622 -605 q 636 -635 636 -660 l 636 -660 q 636 -687 621 -703 q 605 -720 576 -720 l 576 -720 q 562 -720 544 -717 q 526 -715 517 -711 l 517 -711 l 502 -779 q 516 -784 541 -788 q 565 -792 590 -792 z"},"ൿ":{"ha":920,"x_min":30,"x_max":890,"o":"m 398 -566 l 398 -566 q 460 -566 499 -532 q 538 -498 557 -434 q 576 -370 576 -279 l 576 -279 q 576 -178 555 -113 q 533 -49 493 -18 q 453 12 397 12 l 397 12 q 348 12 317 -8 q 285 -28 264 -61 l 264 -61 q 239 -102 229 -159 q 219 -217 219 -279 l 219 -279 q 219 -426 266 -496 q 313 -566 398 -566 z m 398 -500 l 398 -500 q 347 -500 322 -447 q 297 -394 297 -278 l 297 -278 q 297 -198 308 -148 q 319 -99 342 -76 q 364 -54 397 -54 l 397 -54 q 430 -54 453 -76 q 475 -98 487 -147 q 498 -197 498 -278 l 498 -278 q 498 -357 487 -406 q 475 -455 453 -477 q 431 -500 398 -500 z m 177 12 l 177 12 q 108 12 69 -32 q 30 -76 30 -152 l 30 -152 q 30 -205 50 -237 q 70 -269 102 -289 l 102 -289 q 123 -302 149 -310 q 175 -318 213 -322 q 250 -326 305 -326 l 305 -326 l 646 -326 q 714 -326 755 -317 q 796 -309 827 -287 l 827 -287 q 855 -268 873 -234 q 890 -200 890 -146 l 890 -146 q 890 -72 856 -30 q 822 12 755 12 l 755 12 q 687 12 653 -33 q 618 -79 618 -151 l 618 -151 q 618 -183 626 -216 q 633 -250 645 -287 l 645 -287 q 647 -292 648 -298 q 649 -304 651 -309 l 651 -309 q 662 -339 675 -372 q 688 -406 704 -444 l 704 -444 q 725 -494 739 -531 q 752 -569 759 -598 q 765 -628 765 -653 l 765 -653 q 765 -685 750 -702 q 734 -720 705 -720 l 705 -720 q 691 -720 673 -717 q 655 -715 646 -711 l 646 -711 l 631 -779 q 645 -784 670 -788 q 694 -792 719 -792 l 719 -792 q 769 -792 796 -772 q 823 -753 834 -726 q 844 -699 844 -674 l 844 -674 q 844 -649 841 -625 q 837 -601 829 -573 q 820 -545 807 -509 q 794 -473 774 -423 l 774 -423 q 760 -387 748 -357 q 736 -328 728 -305 l 728 -305 q 726 -298 724 -291 q 722 -285 720 -279 l 720 -279 q 707 -240 701 -210 q 694 -180 694 -148 l 694 -148 q 694 -113 703 -93 q 712 -73 726 -65 q 739 -57 754 -57 l 754 -57 q 783 -57 798 -81 q 812 -105 812 -145 l 812 -145 q 812 -174 804 -196 q 796 -218 780 -231 l 780 -231 q 761 -247 732 -253 q 703 -260 656 -260 l 656 -260 l 284 -260 q 229 -260 197 -254 q 165 -248 143 -232 l 143 -232 q 127 -219 117 -199 q 107 -180 107 -151 l 107 -151 q 107 -121 117 -99 q 126 -78 144 -67 q 161 -56 186 -56 l 186 -56 q 215 -56 236 -65 q 256 -75 281 -94 l 281 -94 l 319 -42 q 292 -20 269 -8 q 246 3 224 8 q 202 12 177 12 z"},"!":{"ha":248,"x_min":70,"x_max":178,"o":"m 152 -201 l 94 -201 l 74 -714 l 172 -714 l 152 -201 z m 124 12 l 124 12 q 98 12 84 -4 q 70 -21 70 -52 l 70 -52 q 70 -84 84 -100 q 97 -116 124 -116 l 124 -116 q 149 -116 164 -101 q 178 -86 178 -52 l 178 -52 q 178 -19 163 -3 q 147 12 124 12 z"},"\"":{"ha":388,"x_min":62,"x_max":326,"o":"m 140 -542 l 79 -542 l 62 -800 l 156 -800 l 140 -542 z m 310 -542 l 249 -542 l 232 -800 l 326 -800 l 310 -542 z"},"#":{"ha":497,"x_min":24,"x_max":473,"o":"m 125 0 l 63 0 l 104 -214 l 24 -214 l 24 -277 l 116 -277 l 147 -444 l 47 -444 l 47 -507 l 159 -507 l 199 -714 l 261 -714 l 221 -507 l 332 -507 l 372 -714 l 434 -714 l 394 -507 l 473 -507 l 473 -444 l 382 -444 l 351 -277 l 450 -277 l 450 -214 l 339 -214 l 298 0 l 236 0 l 277 -214 l 166 -214 l 125 0 z m 209 -444 l 178 -277 l 289 -277 l 320 -444 l 209 -444 z"},"%":{"ha":675,"x_min":45,"x_max":630,"o":"m 245 0 l 179 0 l 429 -714 l 495 -714 l 245 0 z m 160 -276 l 160 -276 q 102 -276 74 -333 q 45 -391 45 -499 l 45 -499 q 45 -609 75 -666 q 104 -724 163 -724 l 163 -724 q 221 -724 250 -666 q 278 -609 278 -501 l 278 -501 q 278 -391 249 -333 q 219 -276 160 -276 z m 161 -336 l 161 -336 q 188 -336 200 -376 q 211 -417 211 -500 l 211 -500 q 211 -584 200 -624 q 188 -664 162 -664 l 162 -664 q 135 -664 124 -623 q 112 -583 112 -500 l 112 -500 q 112 -416 124 -376 q 136 -336 161 -336 z m 512 10 l 512 10 q 454 10 426 -47 q 397 -105 397 -213 l 397 -213 q 397 -323 427 -380 q 456 -438 515 -438 l 515 -438 q 573 -438 602 -380 q 630 -323 630 -215 l 630 -215 q 630 -105 601 -47 q 571 10 512 10 z m 513 -50 l 513 -50 q 540 -50 552 -90 q 563 -131 563 -214 l 563 -214 q 563 -298 552 -338 q 540 -378 514 -378 l 514 -378 q 487 -378 476 -337 q 464 -297 464 -214 l 464 -214 q 464 -130 476 -90 q 488 -50 513 -50 z"},"'":{"ha":218,"x_min":62,"x_max":156,"o":"m 140 -542 l 79 -542 l 62 -800 l 156 -800 l 140 -542 z"},"(":{"ha":306,"x_min":47,"x_max":277,"o":"m 47 -274 l 47 -274 q 47 -372 65 -467 q 82 -562 116 -647 q 149 -733 196 -800 l 196 -800 l 277 -800 q 228 -726 195 -641 q 161 -557 144 -465 q 127 -373 127 -275 l 127 -275 q 127 -177 144 -86 q 161 4 194 87 q 227 169 276 244 l 276 244 l 196 244 q 145 174 112 88 q 79 1 63 -92 q 47 -185 47 -274 z"},")":{"ha":306,"x_min":29,"x_max":259,"o":"m 259 -283 l 259 -283 q 259 -185 242 -89 q 224 6 191 91 q 157 176 110 244 l 110 244 l 29 244 q 79 169 112 85 q 145 1 162 -91 q 179 -184 179 -282 l 179 -282 q 179 -381 162 -471 q 145 -561 112 -643 q 79 -726 30 -800 l 30 -800 l 110 -800 q 161 -730 194 -644 q 227 -558 243 -465 q 259 -373 259 -283 z"},"*":{"ha":513,"x_min":39,"x_max":474,"o":"m 212 -800 l 298 -800 l 283 -623 l 459 -672 l 474 -588 l 299 -574 l 411 -426 l 335 -382 l 254 -549 l 180 -382 l 102 -426 l 212 -574 l 39 -588 l 53 -672 l 228 -624 l 212 -800 z"},"+":{"ha":429,"x_min":30,"x_max":398,"o":"m 249 -119 l 180 -119 l 180 -319 l 30 -319 l 30 -387 l 180 -387 l 180 -588 l 249 -588 l 249 -387 l 398 -387 l 398 -319 l 249 -319 l 249 -119 z"},",":{"ha":252,"x_min":45,"x_max":183,"o":"m 90 -114 l 176 -114 l 183 -103 q 173 -61 162 -21 q 150 19 137 58 q 123 96 107 132 l 107 132 l 45 132 q 56 91 65 48 q 73 5 80 -36 q 87 -78 90 -114 l 90 -114 z"},"-":{"ha":308,"x_min":38,"x_max":270,"o":"m 270 -235 l 38 -235 l 38 -306 l 270 -306 l 270 -235 z"},".":{"ha":252,"x_min":72,"x_max":180,"o":"m 126 12 l 126 12 q 101 12 87 -4 q 72 -21 72 -52 l 72 -52 q 72 -84 86 -100 q 100 -116 126 -116 l 126 -116 q 151 -116 166 -101 q 180 -86 180 -52 l 180 -52 q 180 -19 165 -3 q 150 12 126 12 z"},"/":{"ha":382,"x_min":20,"x_max":362,"o":"m 99 244 l 20 244 l 283 -800 l 362 -800 l 99 244 z"},":":{"ha":252,"x_min":72,"x_max":180,"o":"m 126 12 l 126 12 q 100 12 86 -4 q 72 -21 72 -52 l 72 -52 q 72 -84 86 -100 q 99 -116 126 -116 l 126 -116 q 151 -116 166 -101 q 180 -86 180 -52 l 180 -52 q 180 -19 165 -3 q 149 12 126 12 z m 126 -405 l 126 -405 q 100 -405 86 -421 q 72 -438 72 -470 l 72 -470 q 72 -502 86 -518 q 99 -534 126 -534 l 126 -534 q 152 -534 166 -518 q 180 -502 180 -470 l 180 -470 q 180 -437 165 -421 q 149 -405 126 -405 z"},";":{"ha":252,"x_min":45,"x_max":183,"o":"m 91 -114 l 176 -114 l 183 -103 q 174 -61 162 -21 q 150 19 137 58 q 123 96 107 132 l 107 132 l 45 132 q 56 91 65 48 q 74 5 81 -36 q 87 -78 91 -114 l 91 -114 z m 126 -405 l 126 -405 q 100 -405 86 -421 q 72 -438 72 -470 l 72 -470 q 72 -502 86 -518 q 99 -534 126 -534 l 126 -534 q 152 -534 166 -518 q 180 -502 180 -470 l 180 -470 q 180 -437 165 -421 q 149 -405 126 -405 z"},"<":{"ha":429,"x_min":29,"x_max":400,"o":"m 400 -210 l 400 -132 l 29 -332 l 29 -380 l 400 -578 l 400 -500 l 121 -355 l 400 -210 z"},"=":{"ha":429,"x_min":30,"x_max":398,"o":"m 398 -211 l 30 -211 l 30 -279 l 398 -279 l 398 -211 z m 398 -425 l 30 -425 l 30 -493 l 398 -493 l 398 -425 z"},">":{"ha":429,"x_min":29,"x_max":400,"o":"m 400 -332 l 29 -132 l 29 -210 l 308 -355 l 29 -500 l 29 -578 l 400 -380 l 400 -332 z"},"?":{"ha":349,"x_min":32,"x_max":317,"o":"m 165 -724 l 165 -724 q 239 -724 278 -680 q 317 -636 317 -563 l 317 -563 q 317 -519 308 -487 q 299 -455 281 -426 q 263 -397 234 -359 l 234 -359 q 214 -333 203 -312 q 192 -291 188 -269 q 183 -248 183 -221 l 183 -221 l 183 -201 l 118 -201 l 118 -230 q 118 -264 123 -291 q 127 -319 139 -343 q 151 -368 171 -394 l 171 -394 q 195 -425 210 -450 q 225 -475 232 -500 q 239 -525 239 -554 l 239 -554 q 239 -602 219 -627 q 198 -652 156 -652 l 156 -652 q 130 -652 107 -643 q 84 -635 63 -624 l 63 -624 l 32 -687 q 61 -703 94 -713 q 127 -724 165 -724 z m 152 12 l 152 12 q 127 12 113 -4 q 98 -21 98 -52 l 98 -52 q 98 -84 112 -100 q 126 -116 152 -116 l 152 -116 q 177 -116 192 -101 q 206 -86 206 -52 l 206 -52 q 206 -19 191 -3 q 176 12 152 12 z"},"[":{"ha":326,"x_min":78,"x_max":287,"o":"m 287 244 l 78 244 l 78 -800 l 287 -800 l 287 -732 l 157 -732 l 157 176 l 287 176 l 287 244 z"},"\\":{"ha":382,"x_min":20,"x_max":362,"o":"m 362 244 l 283 244 l 20 -800 l 99 -800 l 362 244 z"},"]":{"ha":326,"x_min":39,"x_max":248,"o":"m 248 244 l 39 244 l 39 176 l 169 176 l 169 -732 l 39 -732 l 39 -800 l 248 -800 l 248 244 z"},"^":{"ha":429,"x_min":15,"x_max":413,"o":"m 92 -350 l 15 -350 l 190 -714 l 238 -714 l 413 -350 l 334 -350 l 213 -615 l 92 -350 z"},"_":{"ha":357,"x_min":-2,"x_max":359,"o":"m 359 154 l -2 154 l -2 90 l 359 90 l 359 154 z"},"{":{"ha":362,"x_min":30,"x_max":323,"o":"m 323 179 l 323 244 q 271 243 233 226 q 194 209 173 174 q 152 138 152 85 l 152 85 l 152 -151 q 152 -202 122 -223 q 91 -245 30 -245 l 30 -245 l 30 -310 q 91 -311 122 -332 q 152 -353 152 -403 l 152 -403 l 152 -643 q 152 -696 173 -731 q 194 -766 233 -783 q 271 -800 323 -800 l 323 -800 l 323 -735 q 274 -734 253 -712 q 231 -690 231 -641 l 231 -641 l 231 -403 q 231 -352 207 -321 q 182 -291 129 -281 l 129 -281 l 129 -275 q 182 -265 207 -234 q 231 -204 231 -153 l 231 -153 l 231 86 q 231 118 241 139 q 250 159 271 169 q 291 178 323 179 l 323 179 z"},"|":{"ha":551,"x_min":238,"x_max":313,"o":"m 313 244 l 238 244 l 238 -800 l 313 -800 l 313 244 z"},"}":{"ha":362,"x_min":39,"x_max":332,"o":"m 39 -735 l 39 -800 q 92 -800 130 -782 q 168 -765 189 -730 q 210 -695 210 -641 l 210 -641 l 210 -405 q 210 -354 241 -332 q 271 -311 332 -311 l 332 -311 l 332 -246 q 271 -245 241 -224 q 210 -203 210 -153 l 210 -153 l 210 87 q 210 140 188 175 q 165 210 127 227 q 88 244 39 244 l 39 244 l 39 179 q 88 177 110 156 q 131 134 131 85 l 131 85 l 131 -153 q 131 -204 156 -234 q 181 -265 233 -275 l 233 -275 l 233 -281 q 180 -291 156 -321 q 131 -352 131 -403 l 131 -403 l 131 -642 q 131 -675 122 -695 q 112 -715 92 -724 q 72 -734 39 -735 l 39 -735 z"},"~":{"ha":429,"x_min":29,"x_max":402,"o":"m 205 -320 l 205 -320 q 183 -333 162 -340 q 140 -347 122 -347 l 122 -347 q 100 -347 76 -331 q 52 -316 29 -288 l 29 -288 l 29 -365 q 49 -390 73 -403 q 97 -416 126 -416 l 126 -416 q 154 -416 177 -408 q 199 -400 225 -386 l 225 -386 q 251 -373 271 -366 q 290 -359 309 -359 l 309 -359 q 332 -359 357 -375 q 382 -392 402 -417 l 402 -417 l 402 -340 q 383 -317 359 -304 q 334 -291 305 -291 l 305 -291 q 275 -291 254 -298 q 233 -306 205 -320 z"}," ":{"ha":221,"x_min":0,"x_max":0,"o":""},"­":{"ha":308,"x_min":38,"x_max":270,"o":"m 270 -235 l 38 -235 l 38 -306 l 270 -306 l 270 -235 z"},"–":{"ha":500,"x_min":38,"x_max":462,"o":"m 462 -234 l 38 -234 l 38 -304 l 462 -304 l 462 -234 z"},"—":{"ha":1000,"x_min":38,"x_max":962,"o":"m 962 -234 l 38 -234 l 38 -304 l 962 -304 l 962 -234 z"},"‘":{"ha":218,"x_min":40,"x_max":178,"o":"m 133 -554 l 46 -554 l 40 -565 q 50 -607 62 -647 q 73 -687 87 -725 q 101 -764 117 -800 l 117 -800 l 178 -800 q 167 -759 158 -715 q 149 -672 143 -631 q 137 -590 133 -554 l 133 -554 z"},"’":{"ha":218,"x_min":40,"x_max":178,"o":"m 85 -800 l 171 -800 l 178 -789 q 169 -748 157 -708 q 145 -668 132 -630 q 118 -592 102 -554 l 102 -554 l 40 -554 q 48 -584 55 -616 q 62 -649 68 -681 q 74 -714 79 -744 q 83 -774 85 -800 l 85 -800 z"},"“":{"ha":384,"x_min":40,"x_max":344,"o":"m 299 -554 l 212 -554 l 206 -565 q 216 -607 228 -647 q 239 -687 253 -725 q 267 -764 282 -800 l 282 -800 l 344 -800 q 334 -758 325 -715 q 316 -673 310 -632 q 303 -592 299 -554 l 299 -554 z m 133 -554 l 46 -554 l 40 -565 q 50 -607 62 -647 q 73 -687 87 -725 q 101 -764 117 -800 l 117 -800 l 178 -800 q 167 -759 158 -715 q 149 -672 143 -631 q 137 -590 133 -554 l 133 -554 z"},"”":{"ha":384,"x_min":40,"x_max":344,"o":"m 252 -800 l 337 -800 l 344 -789 q 335 -748 323 -708 q 311 -668 298 -630 q 284 -592 268 -554 l 268 -554 l 206 -554 q 218 -598 227 -640 q 235 -682 242 -722 q 248 -762 252 -800 l 252 -800 z m 85 -800 l 171 -800 l 178 -789 q 169 -748 157 -708 q 145 -668 132 -630 q 118 -592 102 -554 l 102 -554 l 40 -554 q 48 -584 55 -616 q 62 -649 68 -681 q 74 -714 79 -744 q 83 -774 85 -800 l 85 -800 z"},"…":{"ha":705,"x_min":72,"x_max":633,"o":"m 126 12 l 126 12 q 101 12 87 -4 q 72 -21 72 -52 l 72 -52 q 72 -84 86 -100 q 100 -116 126 -116 l 126 -116 q 151 -116 166 -101 q 180 -86 180 -52 l 180 -52 q 180 -19 165 -3 q 150 12 126 12 z m 352 12 l 352 12 q 327 12 313 -4 q 298 -21 298 -52 l 298 -52 q 298 -84 312 -100 q 326 -116 352 -116 l 352 -116 q 377 -116 392 -101 q 406 -86 406 -52 l 406 -52 q 406 -19 391 -3 q 376 12 352 12 z m 579 12 l 579 12 q 554 12 540 -4 q 525 -21 525 -52 l 525 -52 q 525 -84 539 -100 q 553 -116 579 -116 l 579 -116 q 604 -116 619 -101 q 633 -86 633 -52 l 633 -52 q 633 -19 618 -3 q 603 12 579 12 z"},"×":{"ha":429,"x_min":31,"x_max":398,"o":"m 213 -400 l 350 -537 l 398 -491 l 261 -353 l 395 -217 l 349 -171 l 213 -306 l 77 -170 l 31 -217 l 166 -353 l 31 -488 l 77 -535 l 213 -400 z"},"÷":{"ha":429,"x_min":30,"x_max":398,"o":"m 398 -319 l 30 -319 l 30 -387 l 398 -387 l 398 -319 z m 216 -112 l 216 -112 q 191 -112 178 -127 q 165 -143 165 -174 l 165 -174 q 165 -205 178 -220 q 191 -236 216 -236 l 216 -236 q 240 -236 253 -220 q 265 -205 265 -174 l 265 -174 q 265 -143 252 -127 q 238 -112 216 -112 z m 216 -469 l 216 -469 q 191 -469 178 -484 q 165 -500 165 -531 l 165 -531 q 165 -562 178 -577 q 191 -593 216 -593 l 216 -593 q 240 -593 253 -577 q 265 -562 265 -531 l 265 -531 q 265 -500 252 -484 q 238 -469 216 -469 z"},"−":{"ha":429,"x_min":30,"x_max":399,"o":"m 399 -319 l 30 -319 l 30 -387 l 399 -387 l 399 -319 z"},"₹":{"ha":429,"x_min":55,"x_max":379,"o":"m 294 0 l 200 0 l 55 -284 l 65 -354 l 76 -354 q 122 -354 142 -364 q 161 -374 172 -393 l 172 -393 q 184 -413 188 -440 q 191 -467 191 -498 l 191 -498 q 191 -551 186 -576 q 180 -601 163 -620 l 163 -620 q 151 -634 132 -641 q 113 -649 75 -649 l 75 -649 l 55 -649 l 55 -714 l 379 -714 l 379 -649 l 219 -649 q 242 -633 257 -600 q 271 -567 271 -500 l 271 -500 q 271 -436 255 -391 q 239 -347 205 -321 q 170 -295 116 -286 l 116 -286 l 134 -295 l 294 0 z m 379 -474 l 55 -474 l 55 -539 l 379 -539 l 379 -474 z"},"꠰":{"ha":209,"x_min":65,"x_max":144,"o":"m 65 0 l 65 -554 l 144 -554 l 144 0 l 65 0 z"},"꠱":{"ha":363,"x_min":65,"x_max":298,"o":"m 65 0 l 65 -554 l 144 -554 l 144 0 l 65 0 z m 219 0 l 219 -554 l 298 -554 l 298 0 l 219 0 z"},"꠲":{"ha":517,"x_min":65,"x_max":452,"o":"m 65 0 l 65 -554 l 144 -554 l 144 0 l 65 0 z m 219 0 l 219 -554 l 298 -554 l 298 0 l 219 0 z m 373 0 l 373 -554 l 452 -554 l 452 0 l 373 0 z"},"॑":{"ha":0,"x_min":-312,"x_max":-245,"o":"m -312 -653 l -312 -864 l -245 -864 l -245 -653 l -312 -653 z"},"॒":{"ha":0,"x_min":-477,"x_max":-81,"o":"m -81 113 l -81 179 l -477 179 l -477 113 l -81 113 z"},"।":{"ha":282,"x_min":135,"x_max":214,"o":"m 214 49 l 135 49 l 135 -603 l 214 -603 l 214 49 z"},"॥":{"ha":472,"x_min":135,"x_max":404,"o":"m 404 49 l 325 49 l 325 -603 l 404 -603 l 404 49 z m 214 49 l 135 49 l 135 -603 l 214 -603 l 214 49 z"},"᳚":{"ha":0,"x_min":-373,"x_max":-185,"o":"m -373 -653 l -373 -864 l -309 -864 l -309 -653 l -373 -653 z m -249 -653 l -249 -864 l -185 -864 l -185 -653 l -249 -653 z"},"̇":{"ha":0,"x_min":-328,"x_max":-231,"o":"m -328 -701 l -328 -701 q -328 -730 -314 -744 q -301 -758 -279 -758 l -279 -758 q -256 -758 -243 -744 q -231 -730 -231 -701 l -231 -701 q -231 -673 -244 -658 q -257 -644 -279 -644 l -279 -644 q -301 -644 -314 -658 q -328 -673 -328 -701 z"},"̣":{"ha":0,"x_min":-328,"x_max":-231,"o":"m -328 135 l -328 135 q -328 106 -314 92 q -301 78 -279 78 l -279 78 q -256 78 -243 92 q -231 106 -231 135 l -231 135 q -231 163 -244 178 q -257 192 -279 192 l -279 192 q -301 192 -314 178 q -328 163 -328 135 z"},"‐":{"ha":308,"x_min":38,"x_max":270,"o":"m 270 -235 l 38 -235 l 38 -306 l 270 -306 l 270 -235 z"},"​":{"ha":0,"x_min":0,"x_max":0,"o":""},"‌":{"ha":0,"x_min":0,"x_max":0,"o":""},"‍":{"ha":0,"x_min":-161,"x_max":161,"o":"m 29 244 l -29 244 l -29 -565 l -121 -474 l -161 -514 l -40 -631 l -161 -748 l -121 -788 l 0 -669 l 121 -788 l 161 -748 l 40 -631 l 161 -514 l 121 -474 l 29 -565 l 29 244 z"},"◌":{"ha":562,"x_min":57,"x_max":504,"o":"m 89 -231 l 89 -231 q 57 -231 57 -264 l 57 -264 q 57 -295 89 -295 l 89 -295 q 121 -295 121 -264 l 121 -264 q 121 -231 89 -231 z m 138 -95 l 138 -95 q 106 -95 106 -127 l 106 -127 q 106 -158 138 -158 l 138 -158 q 169 -158 169 -127 l 169 -127 q 169 -95 138 -95 z m 281 -40 l 281 -40 q 249 -40 249 -72 l 249 -72 q 249 -104 281 -104 l 281 -104 q 312 -104 312 -72 l 312 -72 q 312 -40 281 -40 z m 138 -369 l 138 -369 q 106 -369 106 -401 l 106 -401 q 106 -432 138 -432 l 138 -432 q 169 -432 169 -401 l 169 -401 q 169 -369 138 -369 z m 423 -95 l 423 -95 q 391 -95 391 -127 l 391 -127 q 391 -158 423 -158 l 423 -158 q 455 -158 455 -127 l 455 -127 q 455 -95 423 -95 z m 281 -424 l 281 -424 q 249 -424 249 -456 l 249 -456 q 249 -487 281 -487 l 281 -487 q 312 -487 312 -456 l 312 -456 q 312 -424 281 -424 z m 472 -231 l 472 -231 q 441 -231 441 -264 l 441 -264 q 441 -295 472 -295 l 472 -295 q 504 -295 504 -264 l 504 -264 q 504 -231 472 -231 z m 423 -369 l 423 -369 q 391 -369 391 -401 l 391 -401 q 391 -432 423 -432 l 423 -432 q 455 -432 455 -401 l 455 -401 q 455 -369 423 -369 z"},"«":{"ha":460,"x_min":35,"x_max":425,"o":"m 35 -257 l 35 -271 l 179 -465 l 236 -436 l 130 -264 l 236 -94 l 179 -63 l 35 -257 z m 224 -257 l 224 -271 l 369 -465 l 425 -436 l 320 -264 l 425 -94 l 369 -63 l 224 -257 z"},"»":{"ha":460,"x_min":36,"x_max":426,"o":"m 426 -271 l 426 -257 l 281 -63 l 225 -94 l 330 -264 l 225 -436 l 281 -465 l 426 -271 z m 237 -271 l 237 -257 l 91 -63 l 36 -94 l 140 -264 l 36 -436 l 91 -465 l 237 -271 z"},"̈":{"ha":0,"x_min":-124,"x_max":125,"o":"m -124 -668 l -124 -668 q -124 -694 -111 -706 q -99 -718 -81 -718 l -81 -718 q -63 -718 -51 -705 q -39 -693 -39 -668 l -39 -668 q -39 -642 -51 -629 q -63 -616 -81 -616 l -81 -616 q -99 -616 -111 -629 q -124 -642 -124 -668 z m 39 -668 l 39 -668 q 39 -694 52 -706 q 64 -718 82 -718 l 82 -718 q 100 -718 113 -705 q 125 -693 125 -668 l 125 -668 q 125 -642 113 -629 q 100 -616 82 -616 l 82 -616 q 63 -616 51 -629 q 39 -642 39 -668 z"},"̀":{"ha":0,"x_min":-391,"x_max":-205,"o":"m -391 -766 l -294 -766 q -283 -743 -267 -715 q -252 -688 -235 -662 q -219 -636 -205 -617 l -205 -617 l -205 -606 l -257 -606 q -272 -619 -291 -638 q -310 -657 -329 -678 q -349 -700 -365 -720 q -381 -741 -391 -757 l -391 -757 l -391 -766 z"},"́":{"ha":0,"x_min":-291,"x_max":-105,"o":"m -105 -766 l -105 -757 q -114 -741 -130 -721 q -147 -701 -166 -679 q -185 -658 -204 -639 q -224 -620 -239 -606 l -239 -606 l -291 -606 l -291 -617 q -272 -644 -255 -669 q -239 -695 -225 -719 q -212 -744 -202 -766 l -202 -766 l -105 -766 z"},"̋":{"ha":0,"x_min":-97,"x_max":210,"o":"m 210 -766 l 210 -757 q 202 -741 188 -720 q 173 -699 155 -677 q 137 -656 120 -637 q 102 -619 88 -606 l 88 -606 l 47 -606 l 47 -617 q 62 -639 78 -668 q 94 -697 107 -724 q 120 -751 126 -766 l 126 -766 l 210 -766 z m 66 -766 l 66 -757 q 57 -740 44 -720 q 30 -700 14 -679 q -3 -659 -21 -640 q -40 -621 -58 -606 l -58 -606 l -97 -606 l -97 -617 q -82 -641 -66 -669 q -51 -697 -38 -723 q -25 -750 -18 -766 l -18 -766 l 66 -766 z"},"̄":{"ha":0,"x_min":-121,"x_max":122,"o":"m -121 -676 l 122 -676 l 122 -614 l -121 -614 l -121 -676 z"},"˙":{"ha":174,"x_min":40,"x_max":134,"o":"m 88 -739 l 88 -739 q 111 -739 123 -724 q 134 -709 134 -681 l 134 -681 q 134 -654 123 -639 q 111 -624 88 -624 l 88 -624 q 66 -624 53 -639 q 40 -654 40 -681 l 40 -681 q 40 -710 53 -724 q 65 -739 88 -739 z"},"°":{"ha":365,"x_min":45,"x_max":320,"o":"m 182 -455 l 182 -455 q 142 -455 111 -471 q 80 -488 63 -518 q 45 -548 45 -589 l 45 -589 q 45 -631 63 -661 q 81 -691 112 -707 q 143 -723 182 -723 l 182 -723 q 222 -723 253 -706 q 284 -690 302 -660 q 320 -630 320 -589 l 320 -589 q 320 -548 302 -517 q 284 -487 253 -471 q 221 -455 182 -455 z m 183 -507 l 183 -507 q 219 -507 241 -529 q 262 -552 262 -589 l 262 -589 q 262 -626 241 -648 q 220 -671 183 -671 l 183 -671 q 144 -671 124 -647 q 103 -624 103 -589 l 103 -589 q 103 -551 126 -529 q 148 -507 183 -507 z"},"A":{"ha":450,"x_min":0,"x_max":450,"o":"m 450 0 l 361 0 l 309 -223 l 142 -223 l 90 0 l 0 0 l 173 -714 l 274 -714 l 450 0 z m 293 -301 l 240 -535 q 237 -554 234 -571 q 230 -589 228 -606 q 225 -623 223 -638 l 223 -638 q 222 -623 220 -606 q 217 -589 214 -571 q 210 -554 206 -536 l 206 -536 l 155 -301 l 293 -301 z"},"Á":{"ha":450,"x_min":0,"x_max":450,"o":"m 450 0 l 361 0 l 309 -223 l 142 -223 l 90 0 l 0 0 l 173 -714 l 274 -714 l 450 0 z m 293 -301 l 240 -535 q 237 -554 234 -571 q 230 -589 228 -606 q 225 -623 223 -638 l 223 -638 q 222 -623 220 -606 q 217 -589 214 -571 q 210 -554 206 -536 l 206 -536 l 155 -301 l 293 -301 z m 354 -943 l 354 -934 q 345 -918 329 -898 q 312 -878 293 -856 q 274 -835 255 -816 q 235 -797 220 -783 l 220 -783 l 168 -783 l 168 -794 q 187 -821 204 -846 q 220 -872 234 -896 q 247 -921 257 -943 l 257 -943 l 354 -943 z"},"Ă":{"ha":450,"x_min":0,"x_max":450,"o":"m 450 0 l 361 0 l 309 -223 l 142 -223 l 90 0 l 0 0 l 173 -714 l 274 -714 l 450 0 z m 293 -301 l 240 -535 q 237 -554 234 -571 q 230 -589 228 -606 q 225 -623 223 -638 l 223 -638 q 222 -623 220 -606 q 217 -589 214 -571 q 210 -554 206 -536 l 206 -536 l 155 -301 l 293 -301 z m 294 -918 l 346 -918 q 346 -877 330 -846 q 314 -816 287 -800 q 259 -784 222 -784 l 222 -784 q 167 -784 136 -817 q 104 -851 102 -918 l 102 -918 l 155 -918 q 157 -894 166 -878 q 174 -862 189 -854 q 204 -846 224 -846 l 224 -846 q 244 -846 259 -854 q 274 -862 283 -878 q 292 -894 294 -918 l 294 -918 z"},"Â":{"ha":450,"x_min":0,"x_max":450,"o":"m 450 0 l 361 0 l 309 -223 l 142 -223 l 90 0 l 0 0 l 173 -714 l 274 -714 l 450 0 z m 293 -301 l 240 -535 q 237 -554 234 -571 q 230 -589 228 -606 q 225 -623 223 -638 l 223 -638 q 222 -623 220 -606 q 217 -589 214 -571 q 210 -554 206 -536 l 206 -536 l 155 -301 l 293 -301 z m 185 -943 l 262 -943 q 273 -921 288 -894 q 303 -868 321 -841 q 339 -815 355 -793 l 355 -793 l 355 -783 l 310 -783 q 289 -803 268 -827 q 247 -851 224 -877 l 224 -877 q 201 -851 179 -825 q 156 -800 138 -783 l 138 -783 l 93 -783 l 93 -793 q 111 -818 129 -844 q 146 -871 161 -896 q 176 -922 185 -943 l 185 -943 z"},"Ä":{"ha":450,"x_min":0,"x_max":450,"o":"m 450 0 l 361 0 l 309 -223 l 142 -223 l 90 0 l 0 0 l 173 -714 l 274 -714 l 450 0 z m 293 -301 l 240 -535 q 237 -554 234 -571 q 230 -589 228 -606 q 225 -623 223 -638 l 223 -638 q 222 -623 220 -606 q 217 -589 214 -571 q 210 -554 206 -536 l 206 -536 l 155 -301 l 293 -301 z m 99 -845 l 99 -845 q 99 -871 112 -883 q 124 -895 142 -895 l 142 -895 q 160 -895 172 -882 q 184 -870 184 -845 l 184 -845 q 184 -819 172 -806 q 160 -793 142 -793 l 142 -793 q 124 -793 112 -806 q 99 -819 99 -845 z m 262 -845 l 262 -845 q 262 -871 275 -883 q 287 -895 305 -895 l 305 -895 q 323 -895 336 -882 q 348 -870 348 -845 l 348 -845 q 348 -819 336 -806 q 323 -793 305 -793 l 305 -793 q 286 -793 274 -806 q 262 -819 262 -845 z"},"À":{"ha":450,"x_min":0,"x_max":450,"o":"m 450 0 l 361 0 l 309 -223 l 142 -223 l 90 0 l 0 0 l 173 -714 l 274 -714 l 450 0 z m 293 -301 l 240 -535 q 237 -554 234 -571 q 230 -589 228 -606 q 225 -623 223 -638 l 223 -638 q 222 -623 220 -606 q 217 -589 214 -571 q 210 -554 206 -536 l 206 -536 l 155 -301 l 293 -301 z m 111 -943 l 208 -943 q 219 -920 235 -892 q 250 -865 267 -839 q 283 -813 297 -794 l 297 -794 l 297 -783 l 245 -783 q 230 -796 211 -815 q 192 -834 173 -855 q 153 -877 137 -897 q 121 -918 111 -934 l 111 -934 l 111 -943 z"},"Ā":{"ha":450,"x_min":0,"x_max":450,"o":"m 450 0 l 361 0 l 309 -223 l 142 -223 l 90 0 l 0 0 l 173 -714 l 274 -714 l 450 0 z m 293 -301 l 240 -535 q 237 -554 234 -571 q 230 -589 228 -606 q 225 -623 223 -638 l 223 -638 q 222 -623 220 -606 q 217 -589 214 -571 q 210 -554 206 -536 l 206 -536 l 155 -301 l 293 -301 z m 102 -853 l 345 -853 l 345 -791 l 102 -791 l 102 -853 z"},"Ą":{"ha":450,"x_min":0,"x_max":450,"o":"m 450 0 l 361 0 l 309 -223 l 142 -223 l 90 0 l 0 0 l 173 -714 l 274 -714 l 450 0 z m 293 -301 l 240 -535 q 237 -554 234 -571 q 230 -589 228 -606 q 225 -623 223 -638 l 223 -638 q 222 -623 220 -606 q 217 -589 214 -571 q 210 -554 206 -536 l 206 -536 l 155 -301 l 293 -301 z m 361 117 l 361 117 q 361 141 373 154 q 384 166 406 166 l 406 166 q 417 166 425 164 q 432 162 437 160 l 437 160 l 437 216 q 429 220 417 222 q 405 224 390 224 l 390 224 q 342 224 318 201 q 294 177 294 131 l 294 131 q 294 106 304 81 q 313 56 332 32 q 350 8 375 -12 l 375 -12 l 421 0 q 387 34 374 61 q 361 88 361 117 z"},"Å":{"ha":450,"x_min":0,"x_max":450,"o":"m 450 0 l 361 0 l 309 -223 l 142 -223 l 90 0 l 0 0 l 173 -714 l 274 -714 l 450 0 z m 293 -301 l 240 -535 q 237 -554 234 -571 q 230 -589 228 -606 q 225 -623 223 -638 l 223 -638 q 222 -623 220 -606 q 217 -589 214 -571 q 210 -554 206 -536 l 206 -536 l 155 -301 l 293 -301 z m 225 -669 l 225 -669 q 176 -669 148 -696 q 120 -724 120 -769 l 120 -769 q 120 -815 148 -842 q 176 -870 225 -870 l 225 -870 q 271 -870 301 -843 q 330 -816 330 -771 l 330 -771 q 330 -725 302 -697 q 273 -669 225 -669 z m 226 -718 l 226 -718 q 249 -718 264 -732 q 279 -746 279 -769 l 279 -769 q 279 -792 266 -807 q 252 -822 226 -822 l 226 -822 q 202 -822 187 -807 q 172 -792 172 -769 l 172 -769 q 172 -746 186 -732 q 199 -718 226 -718 z"}}}
